{"glyphs":{"0":{"ha":632,"x_min":74,"x_max":578,"o":"m 539 585 q 578 445 578 540 q 537 240 578 349 q 422 57 496 130 q 255 -16 348 -16 q 114 71 162 -16 q 74 250 74 142 q 142 562 74 423 q 285 709 194 665 q 375 732 332 732 q 439 722 418 732 q 479 698 460 712 q 516 667 498 684 q 555 636 534 650 q 561 611 561 627 q 539 585 561 594 m 503 589 q 479 610 492 597 q 378 665 421 665 q 240 600 296 665 q 160 438 184 534 q 136 257 136 342 q 155 126 136 172 q 197 59 174 81 q 259 37 220 37 q 394 107 336 37 q 481 273 452 178 q 510 426 510 368 q 488 541 510 485 q 485 561 485 547 q 503 589 485 574 z "},"1":{"ha":497,"x_min":-69,"x_max":446,"o":"m -69 11 q -53 49 -69 49 q 79 52 39 49 q 140 57 118 56 q 177 330 161 259 q 212 467 193 401 q 71 298 153 376 q 47 290 58 290 q 22 315 22 290 q 31 339 22 326 q 122 438 102 412 q 160 490 142 465 q 198 552 179 515 q 235 623 217 589 q 270 680 252 656 q 304 703 287 703 q 322 681 322 703 q 322 674 322 677 q 321 667 322 671 l 317 653 l 318 653 l 315 648 q 203 60 228 318 q 317 62 264 62 l 376 62 q 395 61 382 62 q 422 60 408 60 q 446 32 446 54 q 420 -3 446 11 q 404 -7 412 -7 l 309 0 l -21 -5 q -45 -14 -35 -14 q -69 11 -69 -14 z "},"2":{"ha":700,"x_min":-29,"x_max":631,"o":"m 108 485 q 83 510 83 485 q 125 602 83 557 q 231 677 168 647 q 355 707 294 707 q 549 543 549 707 q 293 123 549 379 q 414 64 380 73 q 474 56 448 56 q 515 71 499 56 q 539 108 530 85 q 553 157 549 131 q 564 206 558 183 q 578 243 570 229 q 606 258 587 258 q 631 233 625 258 q 597 81 623 127 q 541 13 571 35 q 476 -8 511 -8 q 416 0 442 -8 q 364 22 391 9 q 309 52 337 35 q 253 83 281 68 q 238 68 245 75 q 210 41 231 62 q 79 -12 157 -12 q 3 15 35 -12 q -29 75 -29 42 q 5 163 -29 132 q 90 195 39 195 q 225 160 140 195 q 231 156 229 157 q 237 154 234 155 q 486 538 486 403 q 347 643 486 643 q 208 604 269 643 q 146 513 146 564 q 129 492 140 500 q 108 485 117 485 m 32 90 q 83 54 32 54 q 195 111 135 54 q 105 135 139 135 q 52 121 71 135 q 32 90 32 106 z "},"3":{"ha":631,"x_min":-293,"x_max":589,"o":"m 142 154 q 114 178 114 157 q 154 222 114 199 q 240 256 194 245 l 285 283 q 412 393 342 317 q 482 524 482 468 q 469 601 482 579 q 367 648 439 648 q 121 522 229 648 q 93 505 106 505 q 65 530 65 505 q 170 646 65 585 q 364 708 275 708 q 500 660 453 708 q 547 553 547 611 q 513 435 547 495 q 399 299 474 372 q 347 254 374 275 q 524 134 458 231 q 589 -92 589 37 q 480 -423 589 -293 q 113 -571 357 -571 q -146 -488 -17 -571 q -273 -349 -235 -432 q -293 -271 -293 -305 q -239 -132 -293 -132 q -215 -155 -221 -132 q -221 -201 -218 -178 q -225 -256 -225 -224 q -172 -386 -225 -326 q -36 -476 -118 -445 q 139 -507 47 -507 q 305 -472 231 -507 q 427 -377 379 -436 q 522 -83 522 -260 q 451 113 522 22 q 283 204 380 204 l 275 204 q 142 154 204 163 z "},"4":{"ha":693,"x_min":25,"x_max":665,"o":"m 436 -20 q 56 -24 86 -24 q 25 1 25 -24 q 33 26 25 14 q 142 151 93 97 q 259 280 191 205 q 394 444 328 355 q 541 673 460 532 q 578 696 556 696 q 600 663 600 696 q 564 602 579 625 q 575 582 575 595 l 572 555 q 505 43 564 351 q 632 54 614 52 q 665 33 665 54 q 642 -4 665 12 q 576 -20 618 -20 l 493 -20 q 429 -452 439 -313 q 426 -484 428 -465 q 366 -570 417 -570 q 342 -545 342 -570 q 347 -530 342 -536 q 353 -512 353 -524 q 354 -483 354 -500 q 384 -309 355 -466 q 436 -20 414 -151 m 193 37 l 273 37 q 446 40 387 37 q 515 525 488 311 q 301 250 428 392 q 117 39 174 108 q 193 37 155 37 z "},"5":{"ha":905,"x_min":-5,"x_max":922,"o":"m 155 53 q 131 78 131 53 q 134 92 131 87 q 278 323 241 243 q 350 659 350 484 q 368 684 355 674 q 398 700 382 700 q 424 690 414 700 q 444 672 434 681 q 677 643 503 643 q 865 697 787 643 q 899 713 888 713 q 922 688 922 713 q 833 613 922 652 q 736 585 773 587 q 679 583 699 583 q 412 611 481 583 q 267 182 401 387 q 484 218 342 218 q 743 116 625 218 q 860 -155 860 14 q 755 -441 860 -324 q 415 -574 634 -574 q 133 -487 254 -574 q -5 -216 -5 -387 q 33 -146 -5 -146 q 57 -161 47 -146 l 57 -180 q 159 -422 57 -338 q 414 -507 260 -507 q 760 -313 673 -507 q 790 -165 790 -244 q 698 67 790 -23 q 473 157 606 157 q 325 136 384 157 q 180 61 265 116 q 155 53 168 53 z "},"6":{"ha":764,"x_min":65,"x_max":808,"o":"m 711 1299 q 774 1218 740 1275 q 808 1141 808 1162 q 768 1104 808 1104 q 743 1114 747 1104 q 663 1254 701 1223 q 560 1284 625 1284 q 450 1253 495 1284 q 365 1169 405 1222 q 234 898 291 1069 q 153 551 177 728 q 364 720 239 679 q 451 733 406 733 q 596 654 541 733 q 652 443 652 576 q 567 130 652 258 q 296 -14 471 -14 q 125 76 186 -14 q 65 313 65 165 q 101 606 65 414 q 193 960 137 798 q 339 1235 250 1123 q 541 1348 429 1348 q 711 1299 652 1348 m 136 335 q 221 70 136 137 q 302 45 252 45 q 466 105 400 45 q 560 255 531 165 q 589 427 589 346 q 542 614 589 561 q 417 667 496 667 q 244 575 339 667 q 136 336 149 484 l 136 335 z "},"7":{"ha":659,"x_min":29,"x_max":600,"o":"m 555 694 q 600 634 600 694 q 574 563 600 604 q 338 53 462 393 l 519 53 q 543 28 543 53 q 530 1 543 13 q 500 -11 517 -11 q 322 0 391 0 l 318 0 q 210 -310 268 -133 q 139 -518 152 -488 q 114 -564 126 -549 q 82 -582 101 -578 q 53 -562 59 -579 l 50 -547 q 72 -500 50 -506 q 165 -257 110 -431 q 249 -1 220 -84 l 212 -1 q 74 3 130 -1 q 58 0 64 0 q 35 25 35 0 q 52 57 35 45 l 181 56 l 269 56 q 498 574 374 355 q 513 596 504 583 q 528 625 522 608 l 176 631 q 129 620 163 631 q 79 610 94 610 q 29 656 29 610 q 53 690 29 682 q 129 699 77 699 l 555 694 z "},"8":{"ha":690,"x_min":31,"x_max":653,"o":"m 31 277 q 236 638 31 448 q 355 749 294 692 q 275 868 307 802 q 218 1054 218 989 q 286 1263 218 1185 q 471 1341 354 1341 q 616 1241 566 1341 q 653 1100 653 1165 q 639 994 653 1034 q 602 920 625 954 q 432 741 563 860 q 489 640 458 694 q 611 299 611 432 q 532 69 611 165 q 319 -28 454 -28 q 122 55 213 -28 q 31 277 31 137 m 493 506 q 386 699 467 563 q 284 608 336 654 q 97 306 97 437 q 155 116 97 189 q 308 43 214 43 q 472 115 401 43 q 543 290 543 187 q 493 506 543 393 m 463 1278 q 278 1069 278 1278 q 318 927 278 1012 q 395 803 358 842 l 401 791 l 447 836 q 497 887 471 863 q 543 937 522 911 q 591 1062 591 996 q 547 1232 591 1173 q 463 1278 513 1278 z "},"9":{"ha":646,"x_min":-215,"x_max":652,"o":"m 652 597 l 652 544 q 628 425 652 506 q 564 268 604 343 q 537 141 550 210 q 498 -52 524 73 q 290 -513 431 -376 q 69 -597 204 -597 q -90 -553 -33 -597 q -214 -395 -147 -509 q -215 -388 -215 -391 l -215 -380 q -201 -353 -213 -365 q -180 -340 -189 -340 q -168 -344 -171 -340 q -160 -357 -165 -348 q -153 -367 -155 -366 q 12 -534 -83 -519 q 64 -539 39 -539 q 266 -434 176 -539 q 439 -28 382 -297 q 464 126 456 50 q 218 0 347 0 q 71 95 120 0 q 31 243 31 170 q 34 281 31 262 q 130 544 56 444 q 467 694 245 694 q 586 663 531 694 q 618 639 604 653 q 644 629 640 636 q 652 597 652 618 m 561 593 q 472 628 523 628 q 300 599 374 628 q 171 492 226 570 q 97 277 116 413 q 94 222 94 257 q 114 141 94 186 q 237 64 149 64 q 442 187 344 64 q 494 264 471 223 q 528 428 509 317 q 561 593 546 539 z "},"\u0000":{"ha":0,"x_min":0,"x_max":0,"o":""},"\r":{"ha":0,"x_min":0,"x_max":0,"o":""}," ":{"ha":576,"x_min":0,"x_max":0,"o":""},"!":{"ha":454,"x_min":74,"x_max":401,"o":"m 378 1528 q 401 1504 395 1528 q 384 1356 399 1449 q 352 1123 368 1264 q 290 737 336 981 q 186 250 243 493 q 147 222 173 222 q 123 250 126 222 q 300 1219 250 787 q 321 1357 309 1289 q 338 1495 334 1425 q 353 1518 342 1508 q 378 1528 365 1528 m 102 -32 q 74 8 74 -22 q 99 59 74 39 q 147 79 123 79 q 182 64 170 79 q 195 24 195 48 q 175 -34 195 0 q 125 -68 156 -68 q 106 -61 113 -68 q 100 -45 100 -54 q 102 -32 100 -37 z "},"\"":{"ha":361,"x_min":153,"x_max":414,"o":"m 176 1112 q 153 1138 153 1112 q 212 1341 153 1208 q 252 1369 227 1369 q 277 1349 277 1369 q 277 1342 277 1345 q 256 1292 277 1339 q 216 1146 235 1246 q 200 1121 213 1131 q 176 1112 187 1112 m 354 1348 q 391 1364 369 1364 q 414 1340 414 1364 l 414 1335 q 400 1311 414 1333 q 376 1252 387 1289 q 356 1185 364 1215 q 338 1139 347 1156 q 306 1121 328 1121 q 283 1146 283 1121 q 354 1348 283 1230 z "},"#":{"ha":957,"x_min":0,"x_max":987,"o":"m 844 504 l 599 505 l 587 505 q 504 111 541 229 q 465 83 491 83 q 441 111 444 83 q 488 298 469 198 q 526 505 507 399 q 420 503 473 504 q 314 497 367 501 q 245 231 292 420 q 232 125 233 180 q 217 97 230 109 q 194 86 204 86 q 168 115 168 86 q 250 492 168 203 q 140 473 195 484 q 29 460 85 462 q 0 484 0 463 q 11 509 0 495 q 45 524 22 522 q 97 529 68 525 q 154 538 125 533 q 211 547 182 543 q 268 555 239 552 q 301 677 281 607 q 323 771 320 748 q 239 760 283 768 q 163 747 195 752 q 100 729 130 742 q 76 718 87 718 q 50 746 53 718 q 202 819 70 807 q 255 825 234 821 q 295 831 276 829 q 334 835 315 833 q 341 905 338 867 q 353 1007 345 943 q 378 1121 361 1072 q 424 1169 395 1169 q 453 1129 453 1169 q 436 1100 451 1113 q 416 964 425 1051 q 401 839 408 878 l 468 840 q 587 838 526 840 q 675 1122 629 1019 q 713 1145 691 1145 q 734 1111 734 1145 q 648 835 686 999 q 842 828 755 828 q 964 831 929 828 q 987 807 987 825 q 896 762 987 762 q 635 771 804 762 q 599 570 610 637 l 608 570 l 854 568 q 878 545 878 562 q 868 520 878 532 q 844 504 858 509 m 574 772 q 477 775 514 775 l 422 775 q 387 774 404 775 q 362 674 379 736 l 332 562 q 538 570 385 566 q 574 772 549 642 z "},"$":{"ha":778,"x_min":-9,"x_max":804,"o":"m 585 1343 q 628 1339 595 1343 q 650 1423 643 1381 q 668 1448 655 1438 q 690 1457 680 1457 q 713 1432 713 1457 q 688 1320 713 1390 q 799 1168 765 1276 q 804 1146 804 1159 q 792 1123 804 1134 q 768 1112 781 1112 q 743 1143 747 1112 q 719 1207 738 1173 q 664 1263 700 1242 q 623 1131 648 1223 q 536 812 599 1038 q 585 698 560 755 q 677 352 677 486 q 610 117 677 218 q 339 -16 524 -16 q 292 -12 320 -16 l 275 -77 q 237 -104 260 -104 q 212 -77 215 -104 l 232 -4 q 9 159 65 31 q -9 253 -9 203 q 24 415 -9 347 q 139 555 58 484 q 165 567 153 567 q 192 545 192 567 q 186 524 192 533 q 94 418 117 460 q 57 263 57 345 q 111 127 57 182 q 249 54 164 73 l 469 800 q 386 1098 386 1000 q 435 1269 386 1196 q 585 1343 484 1343 m 545 144 q 611 355 611 227 q 584 503 611 417 q 505 711 557 588 q 408 378 457 543 q 310 46 358 214 l 335 46 q 545 144 469 46 m 607 1282 q 569 1284 592 1284 q 486 1239 519 1284 q 453 1135 453 1194 q 498 905 453 1038 q 564 1144 544 1065 q 607 1282 583 1223 z "},"%":{"ha":697,"x_min":64,"x_max":661,"o":"m 572 1310 q 597 1321 585 1321 q 625 1299 625 1321 q 606 1259 625 1287 q 552 1141 586 1230 q 482 938 519 1053 q 397 697 446 823 q 140 -52 250 307 q 102 -79 126 -79 q 78 -52 81 -79 q 338 703 165 239 q 399 868 384 825 q 572 1310 515 1204 m 64 1138 q 105 1258 64 1215 q 207 1300 146 1300 q 304 1262 267 1300 q 342 1165 342 1225 q 305 1068 342 1105 q 207 1031 268 1031 q 104 1063 145 1031 q 64 1138 64 1095 m 494 58 l 542 56 q 583 72 565 56 q 602 124 602 87 q 576 195 602 160 q 516 231 550 231 q 466 213 483 231 q 436 160 436 182 q 464 100 436 120 q 469 78 469 91 q 458 55 469 66 q 425 45 446 45 q 388 76 403 45 q 372 136 372 107 q 416 245 372 195 q 523 296 460 296 q 623 247 585 296 q 661 146 661 199 q 621 27 661 60 q 518 -5 581 -5 q 472 -2 488 -5 q 456 16 456 1 q 467 43 456 31 q 494 58 477 56 m 277 1161 q 203 1239 277 1239 q 148 1216 168 1239 q 127 1159 127 1194 q 146 1112 127 1125 q 199 1099 165 1099 q 277 1161 277 1099 z "},"&":{"ha":1060,"x_min":65,"x_max":1121,"o":"m 349 914 q 236 1139 236 1009 q 258 1221 236 1179 q 317 1290 280 1262 q 505 1348 392 1348 q 753 1267 662 1348 q 804 1200 785 1239 l 806 1192 q 780 1155 806 1167 q 766 1152 773 1152 q 742 1174 751 1152 q 664 1253 724 1222 q 519 1283 604 1283 q 366 1242 435 1283 q 297 1128 297 1202 q 374 970 297 1034 q 443 933 402 947 l 456 933 q 554 903 522 933 q 566 877 566 892 q 553 851 566 861 q 522 840 540 840 q 418 867 438 857 q 215 750 300 853 q 131 509 131 646 q 241 181 131 312 q 519 50 351 50 q 814 152 687 50 q 930 315 897 218 q 947 412 947 363 q 912 558 947 503 q 803 650 878 612 q 648 490 691 601 q 633 411 633 453 q 659 336 633 369 q 664 316 664 329 q 653 291 664 302 q 627 279 642 279 q 583 326 600 279 q 570 401 570 360 q 622 560 570 483 q 751 690 673 637 q 843 732 779 709 q 941 770 907 755 q 1059 918 1059 821 l 1046 1031 q 1062 1054 1050 1044 q 1084 1064 1074 1064 q 1121 909 1121 1064 q 1106 851 1121 886 q 1061 784 1091 817 q 872 677 992 713 q 1005 498 987 614 q 1011 412 1011 463 q 940 203 1011 304 q 752 43 868 103 q 528 -17 637 -17 q 193 132 321 -17 q 65 501 65 281 q 107 690 65 608 q 189 812 150 773 q 349 914 256 879 z "},"'":{"ha":196,"x_min":153,"x_max":249,"o":"m 153 1137 q 187 1371 153 1283 q 219 1393 203 1393 q 242 1387 235 1393 q 249 1374 249 1380 l 249 1364 q 245 1354 249 1362 q 239 1330 242 1347 q 232 1289 235 1314 q 226 1230 229 1265 q 218 1163 222 1196 q 202 1119 214 1131 q 179 1108 189 1108 q 153 1137 153 1108 z "},"(":{"ha":395,"x_min":72,"x_max":602,"o":"m 459 1264 q 562 1349 545 1349 q 585 1356 574 1356 q 602 1340 602 1356 q 589 1310 602 1324 q 558 1280 576 1295 q 520 1249 540 1265 q 488 1218 501 1234 q 161 500 229 922 q 140 241 140 370 q 225 -228 140 -19 q 269 -312 239 -264 q 298 -370 298 -361 l 298 -375 q 285 -407 298 -392 q 258 -421 271 -421 q 205 -362 237 -421 q 72 215 72 -123 q 262 982 72 622 q 380 1169 323 1097 q 459 1264 437 1242 z "},")":{"ha":376,"x_min":-285,"x_max":368,"o":"m 205 1301 q 237 1343 210 1329 q 255 1346 245 1346 q 272 1331 265 1346 q 308 1196 277 1281 q 347 1060 340 1110 q 368 837 368 900 q 322 528 368 708 q 200 179 275 347 q 43 -82 124 12 q -18 -151 5 -124 q -59 -196 -41 -177 q -90 -228 -76 -214 q -123 -259 -104 -242 q -170 -300 -142 -276 q -239 -361 -197 -323 q -265 -370 -254 -370 q -285 -349 -285 -370 q -222 -275 -285 -329 q -170 -232 -203 -260 q -99 -167 -136 -204 q -5 -52 -62 -130 q 244 481 160 180 q 298 814 298 675 q 277 1033 298 954 q 232 1181 256 1112 q 205 1301 208 1251 z "},"*":{"ha":465,"x_min":89,"x_max":478,"o":"m 195 817 q 170 840 170 817 q 172 856 170 846 l 241 965 q 138 920 185 953 q 112 911 121 911 q 96 918 102 911 q 89 939 89 926 q 106 966 89 952 q 225 1023 168 1006 q 196 1077 215 1037 q 163 1135 176 1118 q 160 1153 160 1141 q 171 1176 160 1164 q 195 1187 181 1187 q 221 1173 209 1187 q 246 1137 234 1158 q 270 1092 258 1116 q 292 1048 281 1067 l 292 1047 q 355 1158 332 1112 q 390 1179 370 1179 q 415 1156 415 1179 q 392 1102 415 1141 q 355 1039 369 1063 q 444 1048 439 1048 q 478 1028 478 1048 q 469 1004 478 1017 q 444 986 459 991 q 388 980 414 982 q 336 977 361 979 q 431 861 367 928 q 436 841 436 854 q 425 816 436 827 q 400 804 414 804 q 378 814 387 804 q 285 926 317 881 l 227 833 q 195 817 215 817 z "},"+":{"ha":612,"x_min":61,"x_max":546,"o":"m 254 203 q 231 262 231 203 q 258 444 231 322 q 237 441 251 444 q 208 436 224 439 q 168 428 192 433 q 89 404 117 404 q 61 425 61 404 q 65 439 61 435 q 88 463 74 454 q 111 472 102 472 q 122 469 119 472 q 257 503 185 498 l 268 503 q 275 542 270 521 l 285 583 q 288 619 288 596 l 288 650 q 315 703 288 686 q 334 708 323 708 q 359 674 359 708 q 356 620 359 641 q 349 579 353 598 q 340 542 345 559 q 332 505 335 524 l 342 505 q 415 498 374 505 q 480 492 457 492 q 526 494 503 492 q 546 472 546 489 q 518 437 546 454 q 503 431 510 433 l 321 446 q 300 271 300 332 l 300 252 q 254 203 290 203 z "},",":{"ha":224,"x_min":-53,"x_max":129,"o":"m -28 -258 q -53 -233 -53 -258 q -45 -210 -53 -223 q 21 -106 -14 -174 q 61 -24 55 -39 q 56 -17 61 -19 q 52 -7 52 -14 q 28 -12 39 -12 q 0 17 0 -12 q 19 65 0 41 q 70 89 37 89 q 129 14 129 89 q 83 -122 129 -42 q -4 -250 37 -201 q -28 -258 -16 -258 z "},"-":{"ha":590,"x_min":61,"x_max":519,"o":"m 86 371 q 61 397 61 371 q 85 430 61 418 q 144 441 109 441 q 232 435 179 441 q 347 428 286 428 q 486 449 408 428 l 494 449 q 513 443 507 449 q 519 428 519 436 q 243 363 519 363 q 158 372 178 363 l 119 374 l 93 370 q 90 371 90 370 l 86 371 z "},".":{"ha":174,"x_min":-53,"x_max":79,"o":"m -12 -17 q -53 31 -53 -17 q -33 74 -53 55 q 11 93 -13 93 q 56 77 34 93 q 79 31 79 54 q 62 -7 79 9 q 26 -22 45 -22 q -7 -17 6 -22 l -12 -17 z "},"/":{"ha":553,"x_min":-160,"x_max":701,"o":"m -160 -602 q -134 -533 -160 -596 q -39 -286 -109 -469 q 72 1 30 -102 l 197 313 q 345 664 255 458 q 477 960 435 869 q 566 1187 553 1122 q 612 1362 591 1314 q 668 1417 633 1411 l 676 1417 q 701 1395 701 1417 q 676 1357 701 1373 q 654 1290 661 1326 q 644 1232 648 1253 q 622 1152 640 1210 q 490 842 603 1094 q 333 485 376 589 q 254 293 289 380 q 183 116 219 207 q 111 -69 147 24 q 22 -297 74 -163 q -97 -597 -31 -431 q -134 -624 -108 -624 q -160 -602 -160 -624 z "},":":{"ha":329,"x_min":-12,"x_max":265,"o":"m 235 495 q 228 488 235 495 q 204 474 221 482 q 168 467 187 467 q 131 484 149 467 q 113 533 113 500 q 135 596 113 565 q 185 628 157 628 q 239 606 212 628 q 265 562 265 584 q 257 523 265 539 q 235 495 248 507 m 52 -26 q 32 -21 37 -24 l 31 -21 q 3 9 18 -21 q -12 66 -12 39 q 6 107 -12 93 q 53 122 24 122 q 110 101 81 122 q 139 56 139 81 q 123 12 139 31 q 52 -26 92 -23 z "},";":{"ha":343,"x_min":-46,"x_max":260,"o":"m -37 -167 q 42 -48 21 -95 q 64 20 64 -1 l 64 21 q 48 -1 60 8 q 19 -11 35 -11 q -7 4 2 -11 q -17 40 -17 19 q 11 88 -17 60 q 64 115 38 115 q 111 91 90 115 q 132 45 132 66 q 66 -123 132 -9 q 14 -196 36 -177 q -19 -215 -7 -215 q -39 -209 -31 -215 q -46 -193 -46 -202 q -37 -167 -46 -183 m 165 479 q 150 475 159 475 q 124 505 134 475 q 114 563 114 535 q 133 610 114 591 q 181 629 151 629 q 235 609 211 629 q 260 559 260 589 q 235 503 260 528 q 180 478 211 478 l 174 478 q 165 479 170 478 z "},"<":{"ha":633,"x_min":180,"x_max":571,"o":"m 549 692 q 570 679 570 692 q 546 636 570 648 q 363 460 521 625 l 343 440 q 314 418 342 440 q 269 380 286 395 q 251 354 252 365 q 261 325 250 344 q 288 282 272 305 q 324 235 304 259 q 362 189 344 210 q 394 151 380 168 q 411 129 408 135 q 415 111 415 123 q 400 86 415 99 q 373 74 386 74 q 354 77 361 74 q 331 104 347 86 q 180 327 180 270 q 273 450 180 383 q 311 481 295 467 l 389 554 q 395 562 391 556 q 400 567 399 567 q 399 565 400 566 q 399 562 399 564 q 430 600 414 581 q 542 692 488 670 l 549 692 z "},"=":{"ha":633,"x_min":66,"x_max":570,"o":"m 478 481 q 249 490 298 490 q 115 471 132 490 q 92 463 103 463 q 66 488 66 463 q 289 557 66 557 q 511 521 511 557 q 502 496 511 508 q 478 481 492 485 m 536 318 l 334 326 q 119 283 190 326 q 104 281 111 281 q 81 306 81 281 q 132 358 81 336 q 342 389 205 389 q 446 386 394 389 q 546 382 498 383 q 570 358 570 375 q 560 334 570 346 q 536 318 550 322 z "},">":{"ha":633,"x_min":211,"x_max":561,"o":"m 364 604 l 366 606 q 370 602 366 602 l 372 599 l 375 589 q 519 406 463 440 q 561 360 561 381 q 546 324 561 340 q 516 294 532 309 q 483 264 500 280 q 447 232 465 248 q 415 203 430 216 q 379 168 400 190 q 245 65 315 103 q 231 62 237 62 q 211 83 211 62 q 237 119 211 104 q 287 155 263 135 q 331 196 310 174 q 373 239 353 217 q 416 281 394 260 l 482 339 q 443 372 463 357 q 398 413 422 388 q 351 478 374 439 q 306 554 329 517 l 306 559 q 319 593 306 578 q 346 607 333 607 q 364 604 359 607 z "},"?":{"ha":619,"x_min":41,"x_max":606,"o":"m 122 999 q 103 982 122 982 q 41 1102 41 982 q 156 1292 41 1222 q 370 1350 252 1350 q 586 1202 530 1350 q 606 1084 606 1149 q 597 981 606 1020 q 575 908 589 941 q 541 845 560 874 q 498 786 521 816 q 450 724 475 756 q 347 555 386 640 q 278 250 308 471 q 263 222 276 233 q 239 211 250 211 q 214 240 216 211 q 267 499 248 436 q 314 615 285 563 q 427 785 344 667 q 541 1069 541 947 q 483 1245 541 1191 q 377 1284 439 1284 q 179 1233 258 1284 q 100 1096 100 1181 q 111 1044 100 1081 q 122 999 122 1008 m 240 117 q 289 76 289 117 q 279 25 289 57 q 227 -25 258 -15 q 168 6 184 -25 q 163 44 163 17 q 190 94 163 71 q 240 117 216 117 z "},"@":{"ha":1157,"x_min":14,"x_max":1166,"o":"m 452 199 q 359 366 359 199 q 403 677 359 533 q 635 978 495 978 q 672 967 655 978 q 699 950 689 957 q 720 940 709 944 q 743 913 743 933 q 718 880 743 892 q 699 876 709 876 q 660 895 688 876 q 612 913 632 913 q 569 890 592 913 q 520 820 546 867 q 459 642 494 772 q 424 392 424 513 q 461 271 424 271 q 654 591 530 271 q 670 643 662 612 q 750 772 703 772 q 782 642 782 772 l 781 507 q 808 347 781 385 q 839 332 819 332 q 994 392 926 332 q 1111 690 1111 496 q 1096 817 1111 745 q 1054 952 1082 889 q 897 1159 998 1082 q 667 1236 795 1236 q 356 1148 488 1236 q 154 913 224 1060 q 83 597 83 767 q 346 11 83 155 q 593 -49 454 -49 q 903 60 771 -49 q 1026 181 975 118 q 1111 282 1078 243 q 1139 293 1124 293 q 1162 269 1162 293 q 1152 241 1162 255 q 1078 155 1114 198 q 1004 72 1042 111 q 818 -66 919 -18 q 573 -115 716 -115 q 308 -42 429 -115 q 37 362 102 82 q 14 567 14 461 q 88 934 14 768 q 308 1202 162 1099 q 660 1304 454 1304 q 1028 1131 890 1304 q 1166 646 1166 957 q 1092 414 1166 534 q 949 287 1037 326 q 852 267 903 267 q 734 353 764 267 q 715 518 715 408 l 715 567 q 505 215 614 283 q 452 199 479 199 z "},"A":{"ha":975,"x_min":-109,"x_max":880,"o":"m 143 443 q 323 431 197 436 q 624 952 441 608 q 772 1324 739 1168 q 790 1348 778 1338 q 814 1357 802 1357 q 833 1336 831 1357 q 843 1312 844 1325 q 835 1291 842 1298 q 813 1176 819 1236 q 786 954 806 1116 q 766 681 766 791 q 783 412 766 570 q 873 394 867 404 q 880 373 880 385 q 868 350 880 361 q 841 339 855 338 q 815 341 826 340 q 793 345 804 343 l 793 338 q 795 317 793 334 q 798 270 798 300 q 801 217 798 240 q 808 168 803 193 q 824 96 814 143 q 835 34 835 49 q 824 7 835 19 q 799 -4 812 -4 q 774 16 785 -4 q 758 67 764 36 q 746 137 751 98 q 739 213 742 176 q 733 283 735 251 q 728 334 730 315 l 724 353 q 537 363 631 362 q 349 367 443 365 q 11 24 170 96 q -72 -3 -42 -3 q -109 32 -109 -3 q -96 62 -109 50 q -71 75 -84 75 q -50 64 -58 75 l -49 65 q 225 293 96 121 q 257 336 245 320 q 281 368 269 351 q 123 379 176 374 q 104 401 104 387 q 116 429 104 416 q 143 443 128 441 m 717 419 q 705 666 705 510 q 734 1043 705 821 q 552 698 652 873 q 392 429 452 524 q 555 427 473 428 q 717 419 637 426 z "},"B":{"ha":714,"x_min":-113,"x_max":665,"o":"m 4 -56 q 14 0 7 -34 q -26 8 -6 4 q -113 53 -110 25 q -113 64 -113 56 q -105 81 -113 72 q -91 90 -98 90 q -76 88 -83 90 q -44 74 -66 85 q 28 64 -22 64 l 64 215 q 111 430 85 322 q 163 650 137 538 l 121 652 q 100 675 100 652 q 175 708 100 708 q 229 989 205 838 q 290 1260 253 1141 q 244 1231 265 1249 q 208 1206 232 1206 q 193 1212 202 1206 q 184 1234 184 1217 q 225 1290 184 1265 q 318 1325 266 1315 q 339 1339 327 1339 q 361 1328 352 1339 q 568 1239 490 1324 q 646 1014 646 1155 q 561 801 646 899 q 370 689 475 703 q 576 586 488 682 q 665 387 665 490 q 514 89 665 189 q 103 -11 362 -11 l 74 -9 q 69 -43 69 -29 q 54 -72 66 -60 q 31 -83 42 -83 q 4 -56 7 -83 m 86 54 q 140 52 104 52 q 482 140 362 52 q 602 378 602 229 q 507 563 602 481 q 296 644 412 644 q 222 647 266 644 q 140 283 157 361 q 119 188 123 205 q 109 148 114 170 l 97 102 q 86 54 91 77 m 578 1013 q 578 1076 578 1013 q 514 1202 578 1138 q 347 1268 450 1265 q 282 965 313 1156 q 236 710 250 774 q 478 804 379 720 q 578 1013 578 888 z "},"C":{"ha":745,"x_min":41,"x_max":811,"o":"m 602 174 q 625 149 625 174 q 604 114 625 130 q 540 68 572 92 q 323 -20 422 -20 q 217 8 267 -20 q 64 223 111 68 q 41 372 41 301 q 78 648 41 488 q 184 971 115 808 q 350 1244 254 1135 q 555 1353 446 1353 q 737 1262 663 1353 q 811 1078 811 1172 q 797 1051 809 1063 q 772 1039 785 1039 q 754 1047 760 1039 q 742 1092 745 1059 q 680 1232 731 1178 q 553 1286 629 1286 q 391 1183 477 1286 q 195 799 277 1048 q 113 407 113 551 q 161 165 113 262 q 334 47 221 47 q 524 125 416 47 q 572 160 553 146 q 602 174 590 174 z "},"D":{"ha":929,"x_min":-100,"x_max":907,"o":"m 29 -49 q 32 -9 29 -35 q -8 -2 12 -5 q -99 39 -96 12 q -100 51 -100 43 q -92 67 -100 58 q -77 77 -84 77 q -62 75 -70 77 q -29 60 -53 71 q 40 49 -5 49 q 340 1244 195 810 q 187 1173 256 1216 q 172 1169 178 1169 q 149 1194 149 1169 q 165 1226 149 1215 q 367 1317 267 1289 q 394 1335 380 1335 q 412 1328 408 1335 q 558 1343 477 1343 q 709 1308 640 1343 q 907 872 907 1210 q 712 244 907 482 q 355 18 577 80 q 106 -14 243 -14 l 97 -14 q 75 -71 92 -59 q 56 -77 68 -77 q 29 -49 29 -77 m 842 856 q 525 1276 842 1276 q 407 1263 460 1276 q 184 410 290 895 q 107 46 147 242 q 515 156 350 46 q 761 449 681 265 q 842 856 842 633 z "},"E":{"ha":777,"x_min":-21,"x_max":859,"o":"m 342 1310 q 765 1344 477 1344 q 832 1340 806 1344 q 859 1320 859 1336 q 840 1283 859 1296 q 825 1279 833 1279 l 732 1279 q 332 1243 439 1279 q 268 968 305 1149 q 215 720 231 786 q 405 714 260 714 q 599 717 550 714 q 623 694 623 710 q 595 657 623 667 q 507 648 568 648 l 201 656 q 134 367 178 572 q 60 62 90 163 l 596 52 q 692 54 665 52 q 715 31 715 47 q 684 -6 715 3 q 601 -12 663 -12 q 459 -10 539 -12 q 306 -5 380 -7 q 169 0 231 -2 q 65 3 106 3 l 18 -1 q -13 8 -5 -1 q -21 27 -21 18 q -16 43 -21 36 q -4 67 -12 51 q 13 112 3 84 q 50 248 31 164 q 123 589 69 331 q 258 1214 177 846 q 236 1241 236 1216 q 277 1287 236 1265 q 318 1331 277 1331 q 342 1310 338 1331 z "},"F":{"ha":661,"x_min":-31,"x_max":1145,"o":"m 142 742 q 178 739 162 739 l 204 739 q 225 741 214 739 l 229 775 q 294 1157 250 952 q 18 1047 60 1095 q -5 1039 5 1039 q -31 1064 -31 1039 q 254 1208 -31 1131 q 310 1223 288 1217 q 334 1315 323 1278 q 368 1336 348 1336 q 393 1312 393 1336 q 387 1293 393 1303 l 376 1242 q 1121 1329 700 1323 q 1145 1305 1145 1322 q 1135 1281 1145 1293 q 1111 1265 1124 1270 q 363 1175 690 1259 q 323 981 343 1078 q 293 785 304 884 l 289 747 l 366 755 q 573 767 471 765 q 711 771 674 770 q 732 749 732 763 q 721 723 732 734 q 694 708 709 711 q 551 704 640 705 q 359 694 461 702 l 281 685 q 182 127 248 439 q 153 -8 168 66 q 114 -36 140 -36 q 90 -8 93 -36 q 187 485 168 359 q 215 677 206 612 q 193 676 203 676 l 170 676 q 119 681 140 676 q 98 703 98 686 q 111 728 98 715 q 142 742 124 741 z "},"G":{"ha":932,"x_min":33,"x_max":977,"o":"m 665 79 q 346 -21 543 -21 q 167 45 243 -21 q 41 295 68 132 q 33 387 33 342 q 116 791 33 545 q 261 1100 173 960 q 463 1299 349 1240 q 583 1329 522 1329 q 770 1259 701 1329 q 860 1069 839 1188 q 845 1043 858 1055 q 818 1031 833 1031 q 796 1050 804 1031 q 764 1134 780 1095 q 583 1264 711 1264 q 384 1166 481 1264 q 178 802 259 1039 q 97 417 97 564 q 145 172 97 270 q 355 41 209 41 q 683 175 596 41 q 724 283 714 223 q 721 298 722 291 q 705 326 721 306 q 638 396 688 347 q 545 476 587 446 q 342 443 455 458 q 314 468 314 446 q 330 500 314 486 q 488 566 422 566 q 566 545 527 566 q 943 648 732 581 q 977 625 977 648 q 971 604 977 618 q 701 -33 793 313 q 628 -355 655 -208 q 583 -583 600 -503 q 568 -611 581 -600 q 545 -623 555 -623 q 519 -593 522 -623 q 598 -171 566 -300 q 665 79 630 -43 m 632 494 q 704 425 694 435 q 732 397 714 414 q 765 361 751 380 q 820 465 791 414 q 879 566 850 515 q 632 494 756 524 z "},"H":{"ha":990,"x_min":-205,"x_max":1219,"o":"m -143 412 l -140 400 q -152 373 -140 385 q -176 361 -163 361 q -205 401 -205 361 q -41 582 -205 484 q 50 628 15 615 q 122 657 85 641 q 185 682 159 673 q 218 693 211 690 q 263 947 248 815 q 287 1156 279 1078 q 306 1311 296 1234 q 346 1344 310 1344 q 366 1339 361 1344 q 370 1321 371 1333 q 286 711 353 1126 q 815 779 495 765 q 870 1162 861 1124 q 903 1325 900 1283 q 919 1349 907 1339 q 943 1358 930 1358 q 966 1335 960 1358 q 954 1251 964 1297 l 937 1177 q 907 996 924 1124 q 879 781 890 867 l 1196 790 q 1219 766 1219 784 q 1210 742 1219 754 q 1186 726 1200 730 q 1029 722 1107 723 q 869 718 950 720 q 833 500 857 619 q 788 263 810 380 q 762 24 767 145 q 748 -4 760 7 q 722 -16 735 -16 q 699 14 701 -16 q 725 258 703 139 q 761 449 747 377 q 787 593 775 520 l 807 715 q 269 644 485 703 q 179 308 227 474 q 92 -20 132 142 q 53 -47 77 -47 q 29 -20 32 -47 q 113 298 67 136 q 201 625 159 460 q -81 484 24 566 q -96 472 -86 479 q -143 415 -143 437 q -143 412 -143 414 z "},"I":{"ha":376,"x_min":-78,"x_max":526,"o":"m 214 1271 q 187 1297 187 1271 q 200 1320 187 1308 q 231 1333 213 1332 l 349 1333 q 505 1332 420 1333 q 526 1310 526 1324 q 515 1284 526 1296 q 489 1270 505 1273 l 445 1270 q 392 1271 426 1270 q 118 62 191 464 q 258 37 246 59 q 261 22 261 31 q 249 1 261 14 q 221 -14 237 -12 q 142 -7 183 -14 q 79 1 101 -1 q 24 4 56 4 q -43 -7 -7 4 l -50 -7 q -71 0 -64 -7 q -78 17 -78 7 q 53 64 -78 64 l 58 64 q 204 748 116 373 q 326 1271 292 1123 q 309 1270 316 1270 l 273 1270 l 214 1271 z "},"J":{"ha":708,"x_min":-90,"x_max":743,"o":"m 667 1331 q 684 1336 675 1336 q 701 1331 692 1336 q 718 1336 709 1336 q 743 1312 737 1336 q 659 933 703 1160 q 603 639 616 705 q 570 468 590 572 q 508 249 550 363 q 392 64 466 134 q 164 -18 303 -18 q -50 143 26 -18 q -90 248 -90 228 q -79 280 -90 268 q -58 293 -68 293 q -30 275 -34 293 q 9 172 -19 227 q 80 79 37 117 q 188 41 123 41 q 309 78 254 41 q 403 179 363 115 q 517 515 468 286 q 540 628 527 566 q 568 760 553 691 q 597 900 582 829 q 626 1038 612 971 q 653 1164 640 1105 q 675 1267 665 1223 q 574 1239 626 1239 q 446 1260 523 1239 q 326 1284 368 1280 q 307 1308 307 1293 q 319 1334 307 1322 q 346 1349 331 1347 q 455 1324 381 1345 q 575 1304 530 1304 q 667 1331 621 1304 z "},"K":{"ha":851,"x_min":-9,"x_max":865,"o":"m 842 1343 q 865 1320 865 1343 q 854 1292 865 1305 q 539 929 750 1167 q 257 608 328 691 q 371 244 276 414 q 530 76 437 126 q 628 50 578 50 q 705 60 678 50 q 758 110 732 71 q 784 121 772 121 q 811 96 811 121 q 770 36 811 72 q 693 -6 728 0 q 611 -12 658 -12 q 511 15 565 -12 q 412 87 456 41 q 278 298 332 168 q 201 557 224 427 q 173 528 186 540 q 150 500 159 515 q 54 26 79 182 q 39 -1 51 9 q 15 -12 26 -12 q -9 17 -7 -12 q 146 763 53 362 q 275 1322 239 1164 q 293 1346 281 1337 q 315 1356 305 1356 q 338 1331 338 1356 l 338 1322 q 263 971 304 1148 q 182 616 222 793 q 473 943 259 704 q 814 1332 688 1181 q 842 1343 827 1343 z "},"L":{"ha":629,"x_min":-8,"x_max":596,"o":"m 25 1 q 11 -1 18 -1 q -2 8 4 -1 q -8 38 -8 17 q 12 90 -8 58 q 40 154 33 122 q 77 287 47 185 q 131 526 106 389 q 205 893 156 663 q 290 1296 255 1123 q 307 1319 294 1310 q 330 1329 319 1329 q 354 1305 349 1329 q 267 878 323 1168 q 185 484 210 588 q 139 275 160 380 q 90 75 119 169 q 330 50 238 50 l 359 50 l 481 56 q 572 64 507 56 q 596 40 596 58 q 586 16 596 28 q 562 0 576 4 q 376 -9 466 -9 l 25 1 z "},"M":{"ha":1189,"x_min":-8,"x_max":1126,"o":"m 1063 1311 q 1103 1344 1081 1344 q 1125 1324 1125 1344 q 1125 1320 1125 1322 q 1079 52 1084 630 q 1078 16 1088 34 q 1040 -17 1062 -17 q 1012 30 1014 -17 q 1011 116 1011 43 q 1015 322 1011 189 q 1024 590 1019 456 q 1034 859 1029 725 q 1043 1124 1040 993 q 810 658 976 974 q 587 228 644 342 q 552 199 572 199 q 525 218 532 199 q 418 703 490 381 q 319 1157 346 1025 q 176 521 274 926 q 54 12 77 115 q 16 -16 41 -16 q -8 12 -5 -16 q 142 693 36 254 q 288 1310 248 1133 q 303 1333 292 1323 q 326 1343 315 1343 q 351 1320 345 1343 q 468 787 409 1070 q 564 346 526 505 q 736 664 656 506 q 892 976 815 822 q 1063 1311 969 1130 z "},"N":{"ha":901,"x_min":-9,"x_max":935,"o":"m 276 1332 q 279 1339 276 1332 q 298 1346 282 1346 q 322 1337 313 1346 q 335 1302 330 1327 q 475 742 358 1189 q 646 107 592 295 q 754 686 677 288 q 872 1315 831 1084 q 892 1339 877 1330 q 920 1349 907 1349 q 934 1340 933 1349 q 935 1315 935 1332 q 781 521 848 899 q 703 80 714 142 q 688 11 692 18 q 675 -6 685 4 q 649 -16 665 -16 q 613 16 632 -16 q 570 151 595 50 q 452 601 545 252 q 306 1174 359 951 q 194 640 274 1028 q 56 14 113 251 q 20 -14 50 -14 q -9 12 -9 -14 q 38 214 -9 20 q 178 863 85 408 q 276 1332 271 1318 z "},"O":{"ha":861,"x_min":41,"x_max":839,"o":"m 289 -31 q 41 410 41 -31 q 156 959 41 707 q 479 1234 280 1234 q 625 1178 557 1234 q 637 1150 637 1164 q 615 1117 637 1117 q 583 1131 610 1117 q 458 1165 522 1165 q 291 1056 374 1165 q 156 777 208 947 q 104 439 104 606 q 224 49 104 117 q 300 33 252 33 q 401 57 349 33 q 646 340 547 124 q 741 631 709 477 q 774 929 774 785 q 720 1183 774 1073 q 620 1278 682 1260 q 561 1291 589 1286 q 513 1303 532 1297 q 493 1324 493 1310 q 528 1354 493 1350 q 833 998 800 1354 q 839 868 839 938 q 799 560 839 719 q 684 266 758 401 q 508 50 610 131 q 289 -31 407 -31 z "},"P":{"ha":743,"x_min":64,"x_max":751,"o":"m 182 549 q 64 616 64 587 q 75 642 64 633 q 100 650 87 650 q 125 646 113 650 q 149 638 137 643 q 174 628 161 633 q 196 618 186 622 l 335 1270 q 244 1198 273 1251 q 212 1182 232 1182 q 187 1206 187 1182 q 191 1221 187 1211 q 355 1336 239 1314 q 390 1364 370 1364 q 414 1343 410 1364 l 419 1343 q 663 1239 574 1343 q 751 1008 751 1136 q 642 665 751 794 q 310 524 524 524 q 240 533 277 524 q 191 300 224 455 q 138 32 157 144 q 122 4 134 15 q 99 -7 110 -7 q 74 22 77 -7 q 133 319 97 156 q 182 549 168 482 m 254 597 q 353 589 287 589 q 484 620 419 589 q 595 704 549 651 q 693 975 693 817 q 614 1190 693 1099 q 400 1280 536 1280 l 254 597 z "},"Q":{"ha":896,"x_min":41,"x_max":1578,"o":"m 1544 -372 q 1578 -393 1578 -372 q 1569 -417 1578 -405 q 1544 -435 1559 -429 q 1275 -481 1400 -462 q 1043 -500 1149 -500 q 624 -395 819 -500 q 171 11 388 -268 q 72 177 102 68 q 41 393 41 286 q 89 807 41 615 q 236 1115 137 1000 q 519 1250 352 1250 q 580 1242 549 1250 q 616 1231 611 1234 q 624 1223 620 1225 q 628 1211 628 1221 q 616 1191 628 1202 q 590 1181 604 1181 q 545 1190 576 1181 q 500 1200 513 1200 q 288 1080 380 1200 q 121 595 159 913 q 110 400 110 498 q 317 32 110 32 q 519 134 418 32 q 783 671 713 330 q 810 940 810 806 q 751 1181 810 1074 q 572 1304 684 1304 q 471 1291 517 1304 q 443 1314 443 1293 q 572 1367 443 1367 q 786 1241 701 1367 q 872 986 872 1116 q 804 498 872 730 q 607 117 736 267 q 301 -33 477 -33 q 294 -33 297 -33 q 286 -32 290 -32 q 1050 -436 640 -436 q 1284 -417 1162 -436 q 1544 -372 1406 -398 z "},"R":{"ha":643,"x_min":5,"x_max":1483,"o":"m 227 633 q 250 675 227 675 q 267 671 263 675 q 282 658 271 667 q 346 650 294 650 q 455 680 399 650 q 553 760 512 709 q 640 1013 640 866 q 585 1205 640 1126 q 440 1284 530 1284 q 332 1274 369 1284 l 75 21 q 37 -3 68 -3 q 5 20 5 -3 q 7 34 5 26 q 16 72 9 41 q 117 561 31 149 q 264 1242 203 974 q 215 1203 243 1229 q 201 1177 214 1188 q 171 1166 188 1166 l 154 1171 q 135 1199 135 1179 q 179 1269 135 1237 q 290 1318 224 1301 q 335 1377 315 1377 q 359 1331 351 1377 q 415 1335 389 1335 q 635 1232 561 1335 q 697 1006 697 1146 q 591 705 697 825 q 294 585 485 585 q 373 132 294 353 q 651 -251 465 -127 q 987 -346 793 -346 q 1340 -216 1180 -346 q 1440 -129 1388 -176 q 1458 -123 1446 -123 q 1483 -149 1483 -123 q 1472 -176 1483 -163 q 1271 -336 1369 -283 q 967 -408 1137 -408 q 639 -311 798 -408 q 260 288 351 -133 q 227 633 227 440 z "},"S":{"ha":778,"x_min":-9,"x_max":804,"o":"m 585 1343 q 799 1168 747 1343 q 804 1146 804 1159 q 792 1123 804 1134 q 768 1112 781 1112 q 743 1138 747 1112 q 692 1242 734 1199 q 585 1284 650 1284 q 486 1239 519 1284 q 453 1132 453 1194 q 470 1005 453 1070 q 511 875 486 940 q 565 745 536 810 q 619 614 594 680 q 677 339 677 461 q 610 117 677 218 q 339 -16 524 -16 q 94 55 197 -16 q -9 257 -9 125 q 69 484 -9 389 q 139 555 98 519 q 165 567 153 567 q 192 545 192 567 q 186 524 192 533 q 94 418 117 460 q 57 277 57 345 q 81 168 57 209 q 144 100 104 127 q 345 46 221 46 q 545 144 469 46 q 611 348 611 227 q 498 730 611 468 q 386 1094 386 991 q 435 1269 386 1196 q 585 1343 484 1343 z "},"T":{"ha":804,"x_min":109,"x_max":991,"o":"m 486 1263 q 268 1267 328 1267 q 138 1263 208 1267 q 109 1286 109 1265 q 179 1329 109 1324 q 218 1331 199 1331 l 503 1325 q 555 1383 522 1383 q 579 1360 575 1383 l 582 1332 l 581 1325 q 649 1329 619 1326 q 706 1332 680 1331 q 784 1338 732 1334 q 899 1341 836 1341 l 949 1341 q 968 1343 958 1341 q 991 1320 991 1337 q 924 1278 991 1278 q 735 1271 836 1278 q 553 1263 635 1264 q 497 1005 530 1148 q 399 532 464 861 q 298 -14 334 203 q 283 -42 295 -31 q 260 -53 271 -53 q 235 -24 237 -53 q 418 923 276 319 q 449 1052 438 1011 q 463 1114 460 1093 q 470 1161 467 1136 q 478 1212 474 1185 q 486 1263 481 1238 z "},"U":{"ha":888,"x_min":68,"x_max":937,"o":"m 913 1335 q 937 1311 937 1335 q 922 1261 937 1297 q 897 1189 907 1225 q 870 1081 887 1152 q 836 928 854 1010 q 799 760 818 846 q 694 328 730 438 q 628 163 657 218 q 323 -14 534 -14 q 138 65 209 -14 q 68 253 68 144 q 79 334 68 300 q 124 590 103 468 q 179 902 144 711 q 275 1314 214 1093 q 305 1335 290 1335 q 335 1311 335 1335 q 331 1294 334 1303 q 325 1278 328 1286 l 298 1193 q 223 794 269 1048 q 152 416 177 541 q 126 239 126 292 q 178 104 126 159 q 323 50 229 50 q 544 140 471 50 q 602 243 584 189 l 632 330 q 750 805 678 471 q 864 1280 821 1139 q 886 1320 871 1305 q 913 1335 900 1335 z "},"V":{"ha":742,"x_min":110,"x_max":821,"o":"m 110 1307 q 126 1330 114 1320 q 148 1340 138 1340 q 174 1317 168 1340 q 259 695 195 1099 q 347 97 324 292 q 685 763 589 478 q 757 1149 757 976 q 747 1255 757 1198 q 733 1346 738 1312 q 745 1376 733 1364 q 769 1389 758 1389 q 798 1365 793 1389 q 813 1265 805 1315 q 821 1140 821 1216 q 749 767 821 981 q 570 353 677 552 q 345 0 464 154 q 314 -22 328 -22 q 293 -3 300 -22 q 271 180 281 73 q 200 675 260 288 q 110 1307 140 1062 z "},"W":{"ha":1057,"x_min":87,"x_max":1116,"o":"m 629 977 q 632 865 632 895 l 632 745 q 669 228 632 410 q 714 81 686 146 q 996 712 924 461 q 1048 1072 1048 897 q 954 1431 1048 1246 q 777 1621 885 1563 q 652 1650 720 1650 q 617 1642 631 1650 q 595 1629 602 1633 l 574 1565 q 534 1537 560 1537 q 511 1565 514 1537 q 518 1592 515 1578 q 525 1619 521 1606 q 672 1715 551 1715 q 896 1616 793 1715 q 1057 1371 999 1518 q 1116 1111 1116 1225 q 777 60 1116 612 q 701 -14 732 -14 q 629 127 669 -14 q 568 755 568 354 q 342 144 463 389 q 300 61 320 102 q 214 -21 258 -21 q 193 -9 201 -21 q 184 24 184 3 q 166 386 184 219 q 136 650 149 553 q 105 912 123 748 q 87 1264 87 1077 q 105 1319 87 1307 q 134 1332 122 1332 q 154 1307 154 1332 l 147 1221 q 153 1112 147 1177 q 163 950 159 1046 q 205 556 168 853 q 252 97 243 258 q 308 219 282 163 q 358 330 334 275 q 566 978 451 549 q 564 1139 564 1047 q 577 1278 564 1232 q 623 1324 590 1324 q 661 1198 661 1324 q 629 977 661 1115 z "},"X":{"ha":872,"x_min":-78,"x_max":958,"o":"m 268 1275 q 249 1299 249 1275 q 267 1340 249 1322 q 294 1358 285 1358 l 307 1358 q 315 1356 309 1358 q 337 1308 321 1354 q 374 1186 353 1261 q 421 1011 395 1110 q 476 803 447 912 q 849 1284 696 1114 q 910 1340 896 1336 q 934 1344 924 1344 q 951 1338 943 1344 q 958 1322 958 1332 q 940 1289 958 1312 q 830 1158 922 1265 q 500 715 738 1051 q 734 9 646 184 q 721 -24 734 -10 q 691 -39 707 -39 q 669 -29 675 -39 q 668 -31 668 -29 q 653 34 660 2 q 636 97 646 66 q 449 642 551 286 q 232 325 342 486 q -3 0 121 165 q -34 -18 -14 -18 q -78 16 -78 -18 l -77 22 q 302 551 66 204 q 425 729 363 640 q 352 992 387 862 q 275 1249 316 1122 l 269 1275 l 268 1275 z "},"Y":{"ha":597,"x_min":66,"x_max":774,"o":"m 117 -41 q 92 -53 112 -53 q 66 -28 66 -53 q 115 17 66 5 q 168 29 142 23 q 220 40 193 35 q 264 209 252 129 q 284 341 277 288 q 300 457 291 395 q 146 1067 240 534 q 110 1300 123 1204 q 120 1331 110 1318 q 146 1344 130 1344 q 176 1332 161 1344 q 182 1313 182 1324 q 175 1293 182 1302 q 192 1170 183 1235 q 332 528 252 725 q 433 781 363 597 q 569 1096 504 965 q 722 1332 635 1226 q 746 1343 731 1343 q 774 1320 774 1343 q 762 1292 774 1305 q 532 872 650 1171 q 449 656 500 791 q 374 472 398 520 q 328 260 353 391 q 283 50 304 129 q 353 54 319 54 q 488 17 488 54 q 474 -9 488 2 q 443 -21 460 -21 q 333 -9 400 -9 q 197 -26 265 -9 q 121 -43 129 -43 l 117 -43 l 117 -41 z "},"Z":{"ha":665,"x_min":-103,"x_max":1166,"o":"m 846 1324 q 840 1301 846 1310 q 28 102 467 709 q 83 107 44 107 q 277 -17 151 107 q 528 -210 404 -142 q 779 -278 653 -278 q 1014 -210 904 -278 q 1046 -186 1028 -201 q 1095 -146 1064 -171 q 1146 -121 1126 -121 q 1166 -143 1166 -121 q 1133 -195 1166 -165 q 1035 -264 1074 -244 q 751 -345 868 -345 q 378 -194 583 -345 q 233 -74 269 -114 q 170 -11 196 -35 q 46 46 105 46 q -7 28 23 46 q -52 3 -37 11 q -78 -5 -66 -5 q -103 20 -103 -5 q -94 45 -103 31 q 99 316 -6 174 q 316 614 204 459 q 754 1284 592 999 l 724 1282 q 343 1268 542 1268 l 241 1268 q 113 1276 159 1268 q 93 1303 93 1284 q 118 1335 93 1323 q 134 1339 125 1339 l 363 1331 q 637 1341 543 1331 q 789 1352 732 1352 q 846 1324 846 1352 z "},"[":{"ha":399,"x_min":-31,"x_max":561,"o":"m 519 1257 q 367 1270 510 1257 q 155 260 202 496 q 80 -107 107 24 q 39 -368 54 -238 q 77 -372 47 -372 q 199 -349 106 -372 q 310 -326 292 -326 q 329 -342 329 -326 q 316 -368 328 -353 q 282 -389 305 -383 q 189 -415 260 -395 q 71 -435 119 -435 q -1 -430 22 -435 q -31 -406 -24 -425 q 12 -130 -16 -267 q 313 1308 166 642 q 333 1332 319 1322 q 358 1341 347 1341 q 372 1335 369 1341 q 458 1328 416 1333 q 543 1321 499 1322 q 561 1300 561 1318 q 535 1264 561 1282 q 519 1257 528 1259 z "},"\\":{"ha":553,"x_min":-160,"x_max":701,"o":"m 676 -625 q 634 -604 648 -621 q 609 -562 620 -587 q 591 -506 598 -536 q 577 -447 583 -476 q 566 -393 571 -418 q 541 -313 561 -368 q 478 -168 520 -258 q 342 137 435 -77 q 197 481 248 351 l 72 791 q 1 975 51 843 q -89 1210 -50 1107 q -144 1350 -128 1312 q -160 1393 -160 1388 q -134 1417 -160 1417 q -97 1390 -108 1417 q 134 800 -31 1224 q 395 162 299 376 q 562 -213 491 -52 q 644 -439 633 -374 q 654 -497 648 -460 q 676 -566 660 -533 q 701 -603 701 -580 q 676 -625 701 -625 z "},"]":{"ha":457,"x_min":-41,"x_max":382,"o":"m -17 -241 q -41 -216 -41 -241 q -5 -160 -41 -197 q 52 -102 31 -123 q 175 66 122 -34 q 315 601 315 328 q 184 1120 315 874 q 143 1197 173 1141 q 98 1301 113 1252 q 110 1332 98 1318 q 135 1346 121 1346 q 160 1331 149 1346 q 224 1193 175 1278 q 290 1061 274 1107 q 360 837 339 922 q 381 659 381 752 q 381 652 381 655 q 340 311 381 473 q 228 41 300 149 q 136 -91 155 -68 q 102 -132 117 -115 q 64 -172 86 -149 q 7 -233 41 -196 q -17 -241 -5 -241 z "},"^":{"ha":724,"x_min":139,"x_max":812,"o":"m 614 1732 q 611 1716 614 1726 l 596 1689 q 595 1682 595 1686 q 614 1615 604 1651 q 644 1514 624 1578 q 700 1395 665 1450 q 802 1303 745 1323 q 812 1281 812 1294 q 795 1255 812 1269 q 760 1242 778 1242 q 610 1408 667 1276 q 580 1480 595 1444 q 550 1550 566 1515 q 530 1621 535 1584 l 489 1576 q 420 1499 456 1540 q 172 1293 279 1337 q 157 1291 164 1291 q 139 1307 139 1291 q 179 1354 139 1338 q 480 1643 261 1388 q 525 1695 506 1674 l 553 1725 q 562 1738 553 1727 q 592 1750 571 1750 q 614 1732 614 1750 z "},"_":{"ha":905,"x_min":-12,"x_max":916,"o":"m 119 -58 q -12 -26 -12 -58 q 0 4 -12 -8 q 32 17 13 17 q 77 11 52 17 q 132 5 102 5 q 194 7 161 5 q 291 12 227 9 q 565 14 356 14 q 892 22 773 14 q 916 -1 916 16 q 905 -26 916 -14 q 882 -41 895 -37 q 581 -49 777 -49 l 119 -58 z "},"`":{"ha":385,"x_min":77,"x_max":269,"o":"m 77 1691 q 89 1722 77 1709 q 112 1735 100 1735 q 140 1711 136 1735 q 264 1489 155 1628 q 269 1469 269 1482 q 258 1443 269 1455 q 234 1432 247 1432 q 211 1442 222 1432 q 77 1691 98 1588 z "},"a":{"ha":624,"x_min":22,"x_max":558,"o":"m 102 0 q 22 100 22 0 q 97 344 22 199 q 271 594 171 489 q 435 700 372 700 q 507 644 498 700 q 511 608 510 627 q 526 612 517 612 q 558 582 558 612 l 558 576 q 541 515 558 574 q 503 319 524 456 q 481 83 481 181 q 495 74 487 79 q 515 59 503 69 q 528 34 528 48 q 519 8 528 20 q 494 -3 510 -3 q 434 31 460 -3 q 407 104 407 65 q 453 396 407 189 q 304 163 395 275 q 177 26 212 52 q 102 0 142 0 m 92 97 q 113 72 92 72 q 138 82 127 72 q 389 416 278 203 q 456 557 452 538 q 460 588 460 575 q 453 612 460 601 q 434 624 446 624 q 398 611 422 624 q 270 490 346 583 q 142 288 193 397 q 92 97 92 178 z "},"b":{"ha":546,"x_min":103,"x_max":504,"o":"m 359 1303 l 357 1293 q 279 869 321 1057 q 205 526 237 680 q 277 635 248 603 q 391 699 336 699 q 475 656 446 699 q 504 568 504 614 q 472 330 504 468 q 386 101 441 192 q 229 -14 317 -14 q 134 43 165 -14 q 103 175 103 100 q 114 319 103 250 q 136 465 124 388 q 160 607 149 543 q 181 725 171 671 q 202 830 191 779 q 239 1013 212 882 q 296 1311 267 1144 q 323 1333 307 1333 q 359 1303 359 1333 m 174 175 q 229 57 174 57 q 330 140 280 57 q 423 417 397 252 q 431 516 431 464 q 421 600 431 569 q 382 631 412 631 q 266 527 338 631 q 184 322 194 423 q 174 175 174 222 z "},"c":{"ha":471,"x_min":41,"x_max":471,"o":"m 110 175 q 200 52 110 52 q 284 95 245 52 q 312 125 299 112 q 338 139 325 139 q 366 115 366 139 q 310 27 366 72 q 184 -17 254 -17 q 78 35 114 -17 q 41 152 41 87 q 86 404 41 273 q 205 622 132 534 q 361 710 279 710 q 439 667 420 710 q 451 638 444 656 q 465 615 457 620 q 471 594 471 606 q 459 570 471 581 q 433 559 448 559 q 396 603 404 559 q 351 646 388 646 q 242 566 298 646 q 148 374 186 487 q 110 175 110 260 z "},"d":{"ha":610,"x_min":41,"x_max":665,"o":"m 458 639 l 525 930 q 558 1092 532 962 q 596 1272 584 1221 l 599 1289 q 611 1319 599 1307 q 635 1332 623 1332 q 665 1300 665 1332 l 665 1294 q 617 1041 665 1261 q 555 732 570 821 q 502 481 541 642 q 452 264 462 321 q 432 169 441 208 q 422 92 422 130 q 435 14 422 53 q 420 -14 433 -3 q 396 -25 407 -25 q 366 17 378 -25 q 353 86 353 58 q 361 153 353 115 q 289 28 333 68 q 173 -12 245 -12 q 72 46 102 -12 q 41 161 41 105 q 120 513 41 369 q 185 611 157 579 q 257 672 213 643 q 366 701 301 701 q 458 639 430 701 m 409 421 q 414 448 409 421 q 422 491 419 476 q 425 542 425 507 q 405 610 425 576 q 347 643 385 643 q 225 559 281 643 q 137 364 170 475 q 104 176 104 252 q 148 66 104 99 q 186 56 162 56 q 289 138 234 56 q 371 293 344 220 q 409 421 398 366 z "},"e":{"ha":450,"x_min":46,"x_max":432,"o":"m 351 114 q 375 89 375 114 q 304 23 375 60 q 185 -14 233 -14 q 114 2 138 -14 q 75 45 90 18 q 46 176 46 100 q 87 432 46 312 q 195 631 127 552 q 342 710 263 710 q 408 675 384 710 q 432 593 432 640 q 386 442 432 504 q 271 341 339 380 q 115 267 203 302 l 113 167 q 183 50 113 50 q 263 72 221 50 q 323 104 304 94 q 351 114 341 114 m 368 590 q 323 644 368 644 q 227 571 282 644 q 136 378 172 498 q 126 334 127 349 q 182 362 153 349 q 237 391 210 376 q 334 472 300 425 q 368 590 368 518 z "},"f":{"ha":475,"x_min":-564,"x_max":663,"o":"m 140 635 l 47 631 q 20 656 20 633 q 98 694 20 692 q 154 694 123 694 l 191 694 q 252 916 229 851 q 365 1117 298 1047 q 547 1186 432 1186 q 663 1145 663 1186 q 635 1104 663 1122 q 524 1111 540 1111 q 354 991 422 1111 q 258 694 285 871 q 317 693 303 693 l 348 694 l 403 694 l 418 694 q 435 693 425 694 q 473 667 473 693 q 407 630 473 633 q 368 629 389 629 l 317 629 q 244 631 289 629 q 201 373 218 485 q 177 214 184 260 q 160 101 169 168 q 134 -81 152 34 q -60 -498 85 -378 q -298 -571 -150 -571 q -491 -521 -404 -571 q -545 -481 -526 -500 q -564 -450 -564 -461 q -551 -429 -564 -438 q -524 -419 -539 -419 l -515 -421 q -398 -490 -438 -477 q -293 -504 -358 -504 q -177 -482 -228 -504 q -87 -423 -125 -460 q -21 -335 -49 -386 q 26 -228 7 -285 q 59 -109 45 -170 q 82 12 72 -47 q 99 127 92 72 q 117 227 107 182 q 145 431 132 328 q 176 633 159 534 q 140 635 155 635 z "},"g":{"ha":528,"x_min":-64,"x_max":510,"o":"m 485 689 q 507 666 507 689 q 499 622 507 644 q 482 566 491 600 q 456 461 473 532 q 422 318 439 391 q 391 174 406 246 q 361 36 376 102 q 412 77 387 54 q 455 114 437 100 q 484 127 472 127 q 510 104 510 127 q 498 77 510 86 q 353 -32 412 11 l 313 -236 q 209 -514 272 -443 q 93 -570 159 -570 q -19 -525 26 -570 q -64 -404 -64 -479 q 48 -198 -64 -296 q 171 -102 94 -159 q 292 -9 248 -46 q 306 57 298 21 q 321 123 315 94 q 335 182 328 153 q 348 238 342 212 q 358 283 353 264 q 281 102 321 163 q 156 -11 207 -11 q 73 28 104 -11 q 41 131 41 66 q 86 382 41 250 q 210 611 131 515 q 382 707 288 707 q 467 685 429 707 q 485 689 475 689 m 148 372 q 126 312 148 372 q 104 154 104 253 q 156 56 104 56 q 261 143 201 56 q 356 352 320 231 q 410 542 391 474 q 435 633 428 609 q 381 652 413 652 q 255 571 319 652 q 148 372 191 490 m 281 -85 q 180 -164 230 -127 q 91 -239 130 -202 q 4 -397 4 -323 q 37 -491 4 -471 q 80 -500 51 -500 q 181 -435 140 -500 q 260 -195 222 -370 l 281 -85 z "},"h":{"ha":650,"x_min":55,"x_max":574,"o":"m 131 21 q 79 -11 131 -11 q 56 12 56 -11 q 191 658 56 35 q 319 1301 292 1135 l 325 1320 q 349 1340 331 1340 q 393 1305 384 1340 q 379 1234 388 1280 q 357 1128 370 1187 q 331 1001 345 1069 q 302 862 317 932 q 256 646 287 791 q 204 403 226 501 q 472 694 346 694 q 549 654 524 694 q 574 565 574 614 q 556 429 574 516 l 533 312 q 495 83 495 120 l 497 30 q 485 1 497 12 q 454 -9 473 -9 q 425 4 434 -9 q 416 31 416 18 q 418 54 416 44 l 498 505 q 503 555 503 527 q 464 625 503 625 q 264 406 391 625 q 177 234 193 282 q 145 124 161 186 q 130 45 130 62 l 131 21 z "},"i":{"ha":297,"x_min":43,"x_max":300,"o":"m 260 933 q 300 893 300 933 q 259 827 300 835 q 234 825 248 825 q 207 839 220 825 q 193 874 193 852 q 214 914 193 895 q 260 933 235 933 m 164 616 l 164 630 q 154 676 164 640 q 165 707 154 693 q 194 721 177 721 q 221 700 210 721 q 232 654 232 679 q 168 354 232 629 q 104 65 104 79 q 118 50 104 50 q 143 67 127 50 q 171 85 159 85 q 193 57 193 85 q 151 7 193 28 q 90 -14 109 -14 q 43 62 43 -14 q 49 97 43 78 q 63 151 56 117 q 83 244 70 185 q 110 366 96 303 q 144 519 124 429 q 164 616 164 609 z "},"j":{"ha":279,"x_min":-464,"x_max":293,"o":"m 241 925 q 254 925 241 925 q 280 907 267 925 q 293 867 293 890 q 275 833 293 845 q 237 821 257 821 q 203 839 218 821 q 189 877 189 857 q 203 910 189 896 q 241 925 216 925 m -429 -488 q -311 -505 -385 -505 q 28 -150 -40 -505 q 168 673 128 380 q 183 697 172 689 q 207 705 195 705 q 231 681 231 705 l 201 472 q 58 -273 125 -66 q -109 -517 2 -445 q -323 -575 -197 -575 q -448 -548 -399 -575 q -464 -528 -464 -540 q -453 -503 -464 -515 q -429 -488 -443 -491 z "},"k":{"ha":606,"x_min":45,"x_max":583,"o":"m 547 136 q 583 91 583 136 q 560 37 583 64 q 467 -14 515 -14 q 326 37 387 -14 q 226 159 264 88 q 178 280 187 231 l 175 278 q 145 141 170 243 q 116 18 120 39 q 83 -17 109 -17 q 54 -9 62 -17 q 45 3 45 -2 l 45 8 q 107 311 45 47 q 186 644 170 575 q 292 1144 264 979 q 327 1324 319 1309 q 343 1339 334 1339 q 388 1293 388 1339 q 372 1200 388 1276 q 342 1056 356 1123 q 296 842 328 988 q 254 648 264 696 q 367 708 311 708 q 443 670 422 708 q 464 588 464 631 q 406 444 464 506 q 232 312 349 382 q 319 130 251 208 q 461 52 388 52 q 511 83 495 52 q 526 117 519 97 q 547 136 532 136 m 351 644 q 260 597 298 644 q 204 454 222 550 q 191 391 201 434 l 182 342 q 207 358 189 347 q 268 399 225 370 q 352 475 311 428 q 393 584 393 523 q 351 644 393 644 z "},"l":{"ha":363,"x_min":62,"x_max":363,"o":"m 265 85 q 296 54 296 85 q 255 6 296 23 q 163 -11 215 -11 q 87 17 111 -11 q 62 85 62 45 q 67 158 62 125 q 82 252 71 192 q 107 386 93 311 q 139 546 121 460 q 175 720 157 631 q 212 897 193 809 q 248 1063 231 984 q 279 1208 264 1142 q 302 1320 293 1274 q 334 1341 309 1341 q 363 1310 363 1341 l 363 1292 q 311 1045 336 1165 q 223 629 285 925 q 143 228 161 332 q 125 102 125 123 q 138 65 125 81 q 168 49 151 49 q 199 55 185 49 q 227 67 214 60 q 252 79 241 73 q 265 85 262 85 z "},"m":{"ha":956,"x_min":56,"x_max":879,"o":"m 56 0 q 75 80 66 33 q 97 167 83 127 q 192 654 155 397 q 195 677 194 667 q 215 710 196 688 q 236 715 229 715 q 261 692 255 715 l 261 681 q 231 465 258 582 l 196 319 q 229 391 211 351 q 368 635 303 564 q 507 707 432 707 q 575 673 549 707 q 602 595 602 640 q 601 583 602 588 q 600 572 600 578 q 757 697 675 664 q 807 708 782 708 q 856 684 833 708 q 879 619 879 660 q 870 532 879 578 q 848 437 861 485 q 818 341 835 390 q 775 207 802 293 q 744 75 749 121 q 736 20 739 29 q 724 0 733 12 q 699 -12 715 -12 q 667 56 667 -12 q 682 148 667 98 q 708 231 698 197 q 734 313 718 265 q 777 437 751 360 q 810 603 802 515 q 803 636 810 631 q 777 642 795 642 q 722 618 759 642 q 647 551 685 594 q 519 306 562 451 q 496 231 507 262 q 468 146 486 200 q 439 51 450 92 q 421 -1 429 9 q 395 -12 413 -12 q 361 22 363 -12 q 410 224 377 136 q 463 363 442 311 q 502 479 483 414 q 521 591 521 544 q 492 637 521 637 q 281 374 412 637 q 197 189 212 234 q 174 121 182 144 q 89 -20 129 -20 q 65 -14 75 -20 q 56 0 56 -8 z "},"n":{"ha":619,"x_min":56,"x_max":543,"o":"m 473 549 q 437 616 473 616 q 250 336 388 616 q 163 145 188 210 q 126 54 138 80 q 102 14 114 27 q 76 0 90 0 q 58 7 61 0 q 56 33 56 14 q 110 353 56 52 q 173 670 165 654 q 189 690 182 686 q 213 694 195 694 q 240 681 231 694 q 250 657 250 667 q 248 636 250 646 q 233 591 243 618 q 171 328 201 498 l 157 245 q 192 324 172 278 q 250 455 212 370 q 336 608 289 541 q 450 696 397 696 q 543 546 543 696 q 527 406 543 490 q 492 222 511 321 q 471 57 473 122 l 463 20 q 458 -2 463 5 q 432 -8 454 -8 q 400 0 410 -8 q 393 29 390 8 l 461 435 q 473 549 473 510 z "},"o":{"ha":529,"x_min":41,"x_max":488,"o":"m 359 701 q 488 507 488 701 q 404 182 488 356 q 269 14 348 66 q 184 -12 228 -12 q 75 49 108 -12 q 41 180 41 110 q 84 425 41 307 q 199 623 126 544 q 359 701 272 701 m 178 477 q 104 191 104 330 q 158 60 104 94 q 195 50 174 50 q 292 125 239 50 q 382 311 346 201 q 419 500 419 421 q 410 600 419 579 q 389 629 401 621 q 350 637 377 637 q 290 616 322 637 q 178 477 227 575 z "},"p":{"ha":581,"x_min":-60,"x_max":549,"o":"m 221 514 q 435 704 320 704 q 522 668 496 704 q 549 563 549 633 q 512 301 549 435 q 402 75 475 168 q 231 -18 330 -18 q 170 -2 193 -18 q 132 53 146 14 q 67 -260 98 -104 q 3 -542 36 -416 q -36 -570 -11 -570 q -60 -542 -57 -570 q 12 -224 -15 -366 q 54 -7 39 -83 q 95 211 68 69 q 182 656 122 353 l 182 686 q 194 712 182 700 q 223 725 207 725 q 248 712 240 725 q 256 687 256 699 q 254 666 256 675 q 249 647 252 656 q 243 629 246 638 q 240 614 241 621 l 221 514 m 161 154 q 240 47 161 47 q 374 138 313 47 q 477 449 452 255 q 485 552 485 503 q 441 642 485 642 q 338 577 397 642 q 209 363 257 487 q 161 154 161 240 z "},"q":{"ha":518,"x_min":41,"x_max":463,"o":"m 463 510 q 449 476 460 496 q 341 -98 446 395 q 306 -266 324 -178 q 245 -545 287 -354 q 211 -572 239 -572 q 192 -566 201 -572 q 183 -551 183 -559 q 191 -504 183 -543 q 209 -413 199 -466 q 228 -316 219 -359 q 243 -235 236 -272 q 258 -163 251 -198 q 273 -92 265 -127 q 290 -14 281 -56 q 309 78 298 28 q 334 192 320 128 q 310 151 321 174 q 276 89 298 129 q 220 19 254 50 q 140 -11 187 -11 q 67 29 92 -11 q 41 122 41 68 q 68 372 41 239 q 151 596 94 505 q 325 708 221 708 q 424 650 385 708 q 463 510 463 591 m 104 153 q 147 57 104 57 q 300 271 197 57 q 373 458 369 413 q 377 504 375 474 q 389 551 380 534 l 393 555 q 325 644 374 644 q 157 441 225 644 q 104 153 104 283 z "},"r":{"ha":493,"x_min":56,"x_max":524,"o":"m 56 3 l 87 168 q 120 348 111 295 q 140 466 129 401 q 186 650 151 530 q 184 656 184 653 l 184 663 q 210 709 184 695 q 225 714 217 714 q 254 672 254 714 q 235 584 254 648 q 204 467 215 521 q 228 506 214 482 q 272 575 241 530 q 348 662 302 621 q 441 703 393 703 q 514 677 489 703 q 524 654 524 668 q 511 630 524 641 q 486 619 499 619 q 461 626 473 619 q 434 633 449 633 q 387 609 419 633 q 173 235 257 515 q 146 133 151 161 q 138 87 141 104 q 75 -22 117 -22 q 56 3 56 -22 z "},"s":{"ha":429,"x_min":41,"x_max":387,"o":"m 262 648 q 195 570 195 648 q 219 462 195 517 q 260 373 243 406 q 326 173 326 242 q 284 54 326 103 q 163 -4 242 5 l 154 -4 q 43 90 77 -4 q 41 96 41 94 l 41 103 q 50 126 41 117 q 69 138 59 136 l 77 138 q 99 127 90 138 q 115 103 107 116 q 131 79 122 90 q 161 68 140 68 q 235 97 208 68 q 262 161 262 125 q 252 227 262 196 q 194 357 235 279 q 125 556 125 485 q 161 673 125 627 q 262 718 197 718 q 332 701 303 718 q 387 630 387 669 q 354 590 387 590 q 334 599 342 590 q 317 619 326 608 q 262 648 294 648 z "},"t":{"ha":439,"x_min":57,"x_max":435,"o":"m 184 639 q 85 632 127 639 q 57 656 57 635 q 67 681 57 668 q 94 696 77 694 l 195 693 q 200 727 197 707 q 211 786 203 747 q 233 855 219 824 q 269 886 247 886 q 292 861 292 886 l 292 852 q 258 694 272 768 l 358 694 q 423 686 411 694 q 435 666 435 678 q 406 635 435 642 q 346 631 391 631 q 248 635 300 631 q 190 381 235 567 q 146 141 146 195 q 158 71 146 87 q 188 60 167 60 q 224 72 209 60 q 251 99 239 84 q 275 125 263 113 q 301 138 287 138 q 329 110 329 138 q 301 63 329 96 q 249 12 273 30 q 180 -5 225 -5 q 117 10 134 -5 q 82 110 82 41 q 90 193 82 145 l 103 272 q 126 374 116 330 q 144 451 136 418 q 163 537 151 484 q 184 639 176 591 z "},"u":{"ha":590,"x_min":56,"x_max":555,"o":"m 406 -33 q 364 78 364 -33 q 378 225 364 150 q 407 372 392 300 q 359 280 382 328 q 320 204 337 233 q 293 156 303 176 q 131 -11 205 -11 q 56 138 56 -11 q 116 570 56 328 l 137 654 q 180 700 150 700 q 204 676 198 700 q 193 636 202 654 q 180 595 184 618 q 121 184 121 294 l 119 119 q 138 64 119 64 q 317 313 191 64 q 366 409 337 351 q 410 497 394 467 q 439 555 427 527 q 532 672 493 672 q 555 646 555 672 q 529 560 555 620 q 486 438 503 500 q 425 74 437 264 l 425 66 q 434 36 425 46 q 446 22 442 26 q 450 4 450 18 q 434 -22 450 -10 q 406 -33 418 -33 z "},"v":{"ha":475,"x_min":57,"x_max":482,"o":"m 289 935 q 482 697 482 920 q 330 199 482 475 q 215 24 279 109 q 178 -4 194 -4 q 139 25 143 -4 q 100 339 115 197 q 57 686 85 481 q 73 710 61 700 q 95 720 85 720 q 121 696 115 720 q 155 412 136 559 q 193 97 174 264 q 334 348 294 256 q 416 685 416 538 q 331 865 416 832 q 286 877 307 874 q 258 884 266 880 q 250 900 250 888 q 289 935 250 930 z "},"w":{"ha":799,"x_min":57,"x_max":798,"o":"m 182 -4 q 153 53 153 -4 q 103 358 130 150 q 66 609 76 566 q 57 661 57 651 q 68 683 57 671 q 92 696 79 696 q 114 686 104 696 q 130 651 125 675 q 147 546 135 627 q 181 308 159 465 q 208 139 202 151 q 259 275 231 204 q 392 675 372 568 q 424 701 397 701 q 446 693 439 701 q 454 669 452 685 q 529 118 486 346 q 736 648 736 450 q 672 815 736 747 q 647 834 663 825 q 615 853 631 844 q 576 893 576 876 q 588 918 576 907 q 616 929 600 929 q 682 897 632 929 q 765 804 732 865 q 798 659 798 743 q 741 379 798 517 q 597 111 684 241 q 576 74 587 95 q 497 -9 533 -9 q 465 46 465 -9 q 467 66 465 56 q 464 104 469 77 q 401 488 416 359 q 319 274 381 441 q 214 14 258 106 q 182 -4 201 -4 z "},"x":{"ha":475,"x_min":-39,"x_max":472,"o":"m -39 12 q -26 45 -39 26 q 57 177 -13 65 q 184 375 127 290 q 177 396 180 385 q 160 444 173 407 q 130 531 147 481 q 106 599 112 581 q 95 634 100 616 q 85 664 90 651 q 81 685 81 677 q 91 705 81 694 q 118 715 101 715 q 144 702 134 715 q 160 671 154 689 q 170 633 166 652 q 179 597 174 614 q 191 561 184 580 q 205 523 198 542 q 219 485 212 505 q 235 444 227 466 q 319 559 262 478 q 392 661 376 640 q 431 694 408 681 q 450 699 441 699 q 472 676 472 694 q 465 646 472 659 q 429 594 455 625 q 352 488 403 563 q 265 371 301 414 q 354 146 340 186 q 382 78 368 106 q 397 24 397 50 q 383 -1 395 9 q 354 -11 370 -11 q 332 11 338 -11 q 318 55 330 34 q 294 111 306 75 q 260 197 281 146 q 216 302 238 248 l 26 11 q -13 -9 14 -9 q -39 12 -39 -9 z "},"y":{"ha":583,"x_min":-43,"x_max":538,"o":"m 455 607 q 462 637 455 607 q 481 685 470 668 q 515 701 493 701 q 538 685 538 701 q 477 401 538 669 q 395 35 416 134 q 443 79 422 58 q 480 115 464 100 q 509 129 496 129 q 534 106 534 129 q 524 78 534 92 q 379 -41 448 10 q 268 -464 321 -362 q 231 -517 254 -492 q 105 -579 176 -579 q -4 -527 35 -579 q -43 -426 -43 -475 q -31 -341 -43 -377 q 3 -275 -18 -305 q 52 -220 24 -245 q 113 -171 81 -195 q 181 -124 146 -147 q 250 -75 216 -101 l 318 -24 q 370 149 326 6 q 421 318 414 291 q 278 53 363 148 q 170 -11 221 -11 q 85 31 118 -11 q 52 147 52 72 q 118 515 52 264 q 151 650 151 640 q 154 677 149 670 q 200 704 174 704 q 227 677 227 704 q 175 443 227 652 q 123 163 123 234 q 141 74 123 92 q 183 56 158 56 q 296 144 237 56 q 397 389 355 233 q 455 607 439 545 m 301 -104 q 196 -181 245 -147 q 109 -249 146 -215 q 28 -412 28 -322 q 65 -500 28 -469 q 107 -513 81 -513 q 155 -495 133 -513 q 195 -450 177 -477 q 226 -387 212 -422 q 251 -316 240 -351 q 270 -249 262 -281 q 283 -195 277 -216 l 301 -104 z "},"z":{"ha":554,"x_min":-16,"x_max":541,"o":"m 146 701 l 204 696 l 503 694 q 540 681 538 694 q 541 668 541 676 q 537 653 541 661 q 529 641 533 646 q 520 632 524 635 q 470 565 515 628 q 299 338 424 503 q 109 83 174 174 q 188 65 136 83 q 282 46 239 46 q 416 122 416 46 q 404 156 416 137 q 392 187 392 175 q 403 213 392 199 q 429 227 414 227 q 469 192 455 227 q 484 132 484 157 q 435 24 484 64 q 294 -16 387 -16 q 205 0 247 -16 q 144 22 164 15 q 104 29 124 29 q 53 11 84 29 q 9 -8 22 -8 q -16 17 -16 -8 q -7 40 -16 26 q 243 368 103 183 q 444 632 382 553 l 278 639 l 184 632 l 161 632 q 98 666 98 632 q 146 701 98 701 z "},"{":{"ha":383,"x_min":22,"x_max":468,"o":"m 93 -412 q 22 -231 22 -412 q 103 250 22 -50 q 129 350 119 313 l 134 373 q 141 403 139 393 q 145 423 142 414 q 147 435 147 433 l 147 440 q 141 449 147 449 l 97 443 q 76 448 79 443 q 72 457 73 453 q 66 467 71 461 q 111 514 73 494 q 142 529 127 522 q 172 555 158 536 q 195 604 186 574 q 207 663 203 633 q 211 724 211 694 q 222 1001 211 901 q 426 1337 253 1291 q 439 1339 433 1339 q 468 1315 468 1339 q 435 1278 468 1291 q 418 1274 427 1274 l 412 1274 q 339 1221 365 1264 l 339 1219 q 293 1010 300 1152 q 287 836 290 949 q 272 664 285 724 q 242 568 258 604 q 195 505 226 533 q 215 450 215 493 q 174 267 215 408 q 86 -205 86 -26 q 107 -323 86 -284 q 119 -335 111 -331 q 134 -345 127 -339 l 184 -330 q 214 -349 214 -330 q 172 -393 214 -373 q 93 -412 130 -412 m 111 457 l 113 457 l 111 457 m 339 1221 l 339 1219 l 339 1221 z "},"|":{"ha":393,"x_min":12,"x_max":429,"o":"m 31 -207 q 12 -187 15 -207 q 14 -178 12 -180 l 12 -178 l 12 -177 l 14 -176 q 53 26 22 -109 q 193 753 83 161 q 363 1630 303 1344 q 384 1654 370 1644 q 410 1664 398 1664 q 429 1640 427 1664 q 261 775 375 1383 q 118 38 148 167 q 81 -155 89 -90 l 81 -160 q 49 -202 81 -185 q 31 -207 40 -207 z "},"}":{"ha":444,"x_min":-354,"x_max":419,"o":"m 277 1260 l 216 1257 q 193 1274 193 1259 q 309 1325 193 1325 q 419 1166 419 1325 q 372 892 419 1048 q 329 756 352 824 q 286 622 306 689 q 239 353 239 467 q 239 338 239 345 q 240 323 240 331 q 278 330 259 330 q 297 309 297 330 q 267 270 297 287 q 232 249 237 254 q 162 -45 193 203 q 110 -377 132 -292 q 8 -615 68 -536 q -147 -694 -52 -694 q -313 -648 -243 -694 q -354 -604 -354 -622 q -338 -572 -354 -587 q -310 -558 -323 -558 q -289 -564 -296 -558 q -125 -633 -218 -633 q 11 -498 -25 -633 q 66 -224 42 -379 q 104 -4 91 -70 q 98 -22 103 -11 q 106 47 102 9 q 179 265 123 195 q 161 327 161 281 q 171 417 161 372 q 187 496 181 462 q 209 584 193 530 q 244 691 225 638 q 281 798 262 745 q 325 942 300 852 q 350 1132 350 1032 q 313 1252 350 1232 q 277 1260 298 1260 z "},"~":{"ha":840,"x_min":41,"x_max":785,"o":"m 785 464 q 779 444 785 454 l 724 343 q 636 290 697 294 q 461 358 572 290 q 389 403 432 376 q 325 437 345 431 q 279 443 304 443 q 165 397 221 443 q 106 290 109 352 q 91 262 104 273 q 65 252 78 252 q 41 281 44 252 q 125 440 50 366 q 286 514 200 514 q 350 500 321 514 q 490 422 379 487 q 628 357 602 357 q 673 370 655 357 q 707 422 692 384 q 761 488 730 488 q 785 464 785 488 z "},"":{"ha":576,"x_min":0,"x_max":0,"o":"z "},"":{"ha":275,"x_min":-107,"x_max":220,"o":"m -83 -900 q -107 -876 -101 -900 q -91 -739 -104 -806 q -69 -602 -78 -671 q 109 378 -20 -164 q 125 398 114 391 q 146 406 137 406 q 171 378 168 406 q -5 -591 45 -159 q -27 -730 -14 -662 q -43 -867 -39 -798 q -59 -890 -47 -880 q -83 -900 -71 -900 m 192 661 q 220 620 220 650 q 195 569 220 589 q 147 549 170 549 q 112 564 124 549 q 100 602 100 580 q 146 688 100 651 q 168 694 156 694 q 193 671 193 694 l 193 666 q 192 661 193 663 z "},"":{"ha":471,"x_min":41,"x_max":471,"o":"m 125 -160 q 102 -138 102 -160 q 121 -80 102 -119 q 149 -14 140 -41 q 71 46 100 -3 q 41 155 41 96 q 80 385 41 264 q 184 595 119 505 q 325 704 249 684 q 363 800 357 777 q 408 842 375 838 q 423 836 416 842 q 429 817 429 829 q 392 705 429 773 q 443 659 427 697 q 453 632 449 644 q 465 615 457 619 q 471 594 471 606 q 459 570 471 581 q 433 559 448 559 q 396 603 404 559 q 349 646 388 646 q 234 566 292 646 q 140 373 176 486 q 103 185 103 260 q 138 74 103 111 q 170 56 151 61 q 198 69 183 69 q 220 53 212 69 q 295 100 264 59 q 316 127 307 115 q 339 139 326 139 q 366 110 366 139 q 319 39 366 81 q 211 -12 272 -2 q 149 -146 186 -105 q 125 -160 137 -160 z "},"":{"ha":730,"x_min":-60,"x_max":940,"o":"m 399 660 q 517 629 489 629 q 654 686 569 629 q 675 692 663 692 q 697 667 697 692 q 626 598 697 633 q 507 564 555 564 q 383 589 458 564 q 369 519 376 553 q 355 454 363 485 q 333 343 348 424 q 301 215 319 262 q 377 173 340 194 q 455 136 415 153 q 533 101 494 120 q 633 55 571 82 q 740 28 695 28 q 821 50 784 28 q 877 82 857 72 q 918 92 897 92 q 940 71 940 92 q 867 -3 940 31 q 744 -37 793 -37 q 653 -26 694 -37 q 573 3 613 -14 q 494 41 533 20 q 419 78 454 62 q 348 116 383 94 q 277 158 313 138 q 195 60 243 101 q 45 -21 98 -21 q -34 14 -8 -21 q -60 86 -60 48 q -14 220 -60 159 q 98 282 33 282 q 248 243 163 282 q 271 345 262 294 q 292 450 279 395 l 325 610 q 205 639 237 639 q 159 637 174 639 q 135 621 144 635 q 103 604 121 604 q 78 627 78 604 q 119 688 78 667 q 178 704 149 704 q 237 697 208 704 q 298 685 266 691 l 339 676 q 398 937 373 848 q 427 1043 422 1025 q 438 1093 431 1062 q 456 1146 446 1124 q 474 1188 466 1168 q 491 1227 481 1207 q 608 1339 541 1339 q 722 1273 661 1339 q 793 1157 784 1206 q 779 1130 791 1142 q 751 1118 766 1118 q 729 1137 736 1118 q 676 1221 723 1179 q 603 1274 629 1264 l 602 1274 q 480 1017 528 1220 q 453 902 463 942 q 433 818 444 861 l 399 660 m 224 186 q 113 216 160 216 q 34 185 65 216 q 3 114 3 154 q 31 49 3 73 q 57 40 41 40 q 142 91 90 40 q 224 186 194 141 z "},"":{"ha":685,"x_min":61,"x_max":610,"o":"m 144 469 q 109 577 109 522 q 147 694 109 632 q 90 740 111 715 q 65 772 69 764 q 61 791 61 780 q 72 815 61 803 q 97 828 83 828 q 118 815 111 828 q 135 794 125 803 q 154 779 144 786 q 175 764 164 771 q 193 749 185 756 q 323 802 252 802 q 376 790 355 802 q 404 773 396 778 q 436 760 412 768 q 505 825 450 785 q 585 865 561 865 q 610 840 610 865 q 562 787 610 819 q 519 760 541 774 q 486 738 498 747 q 469 726 475 728 q 498 640 498 690 q 460 486 498 555 q 452 468 458 474 q 499 399 461 439 q 553 343 537 360 q 568 314 568 326 q 557 290 568 301 q 530 278 545 278 q 468 323 515 278 q 397 416 421 368 q 300 389 357 389 q 193 422 243 389 q 138 340 160 361 q 107 319 115 319 q 82 345 82 319 q 107 413 82 371 q 144 469 132 455 m 383 696 q 364 714 366 701 q 336 731 349 724 q 303 739 324 739 q 216 692 258 739 q 174 593 174 646 q 209 498 174 540 q 303 457 245 457 q 402 507 361 457 q 443 617 443 557 q 383 696 443 677 z "},"":{"ha":597,"x_min":66,"x_max":774,"o":"m 92 -53 q 66 -28 66 -53 q 115 17 66 5 q 168 29 142 23 q 220 40 193 35 q 244 119 232 85 q 274 208 256 153 q 293 351 291 263 q 142 311 195 343 q 126 309 135 309 q 110 315 117 309 q 103 338 103 322 q 160 388 103 369 q 296 414 216 407 l 300 457 q 272 518 288 475 q 138 498 154 515 q 114 490 124 490 q 89 515 89 490 q 252 583 89 572 q 126 1190 189 798 q 110 1300 117 1250 q 120 1331 110 1318 q 146 1344 130 1344 q 172 1336 161 1344 q 182 1315 182 1327 q 175 1293 182 1302 q 283 731 209 1042 q 326 585 307 633 l 339 585 q 377 667 353 621 q 468 877 401 712 q 593 1153 535 1041 q 722 1332 651 1264 q 748 1343 736 1343 q 774 1320 774 1343 q 762 1292 774 1305 q 570 972 667 1199 q 501 804 543 909 q 435 651 458 698 q 403 582 411 605 q 533 549 533 575 q 523 524 533 536 q 500 509 513 513 q 378 515 450 513 q 366 416 373 509 q 469 414 418 416 q 568 410 519 411 q 591 386 591 404 q 582 362 591 374 q 558 346 572 350 l 358 354 q 321 183 347 269 q 283 50 295 97 q 353 54 319 54 q 488 17 488 54 q 474 -9 488 2 q 443 -21 460 -21 q 333 -9 400 -9 q 204 -25 265 -9 q 127 -46 144 -40 q 92 -53 111 -53 z "},"":{"ha":450,"x_min":12,"x_max":486,"o":"m 237 549 q 220 570 220 549 q 238 633 220 575 q 302 883 256 691 q 373 1171 347 1075 q 419 1362 399 1266 q 461 1396 439 1396 q 486 1372 484 1396 q 439 1180 465 1276 q 389 986 414 1085 q 341 788 365 888 q 286 587 318 688 q 266 560 281 571 q 237 549 250 549 m 12 -518 l 75 -187 q 128 99 116 17 q 146 189 140 181 q 185 215 164 215 q 207 192 207 215 q 161 -95 191 52 q 113 -328 131 -241 q 81 -501 95 -415 q 59 -529 74 -518 q 32 -541 45 -541 q 12 -518 12 -541 z "},"":{"ha":726,"x_min":-281,"x_max":692,"o":"m 355 1121 q 216 1394 216 1273 q 236 1496 216 1460 q 286 1553 256 1531 q 404 1592 340 1592 q 606 1522 521 1592 q 692 1364 692 1452 q 686 1272 692 1296 q 637 1218 675 1218 q 618 1238 622 1218 l 624 1333 q 557 1475 624 1416 q 395 1533 491 1533 q 287 1447 298 1533 q 283 1396 283 1421 q 416 1141 283 1276 q 565 975 530 1023 q 627 828 627 892 q 511 643 627 719 q 328 575 412 578 q 454 379 426 431 q 517 176 517 262 q 437 -81 517 22 q 240 -236 357 -184 q 22 -288 123 -288 q -167 -245 -78 -288 q -281 -132 -256 -203 q -252 -83 -281 -99 q -233 -78 -243 -78 q -215 -93 -222 -78 q -118 -187 -195 -154 q 23 -220 -42 -220 q 232 -166 136 -220 q 387 -26 327 -113 q 447 164 447 62 q 366 392 447 266 q 292 497 332 446 q 217 601 252 549 q 136 805 136 722 q 153 936 136 887 q 200 1018 170 984 q 270 1074 230 1051 q 355 1121 309 1097 m 561 818 q 561 847 561 818 q 524 931 561 876 q 411 1064 487 987 q 269 990 301 1023 q 210 859 210 931 q 235 732 210 787 q 307 606 260 677 q 396 667 318 632 q 500 719 473 701 q 561 818 561 760 z "},"":{"ha":1157,"x_min":227,"x_max":611,"o":"m 530 1474 q 497 1519 497 1486 q 515 1571 497 1553 q 568 1603 549 1603 q 611 1560 611 1603 q 589 1501 611 1530 q 542 1472 568 1472 q 530 1474 537 1472 m 322 1592 l 322 1593 q 345 1545 345 1567 q 314 1494 345 1524 q 265 1464 283 1464 q 237 1487 247 1464 q 227 1529 227 1510 q 232 1561 227 1548 q 245 1585 237 1575 q 264 1601 254 1595 q 291 1607 275 1607 q 322 1592 307 1607 z "},"":{"ha":739,"x_min":107,"x_max":794,"o":"m 575 1257 l 515 1265 q 331 1213 428 1265 q 176 1038 198 1141 q 170 965 170 1008 q 188 876 170 922 q 239 798 206 831 q 419 728 307 728 q 633 823 532 728 q 720 957 694 881 q 733 1031 733 994 q 727 1092 733 1069 q 709 1133 721 1115 q 680 1169 697 1151 q 639 1214 662 1187 q 636 1232 636 1221 q 647 1255 636 1243 q 673 1267 658 1267 q 726 1228 688 1267 q 775 1161 763 1189 q 794 1059 794 1109 q 744 868 794 959 q 606 720 694 777 q 407 663 517 663 q 187 749 267 663 q 107 953 107 835 q 173 1155 107 1072 q 341 1285 239 1239 q 550 1333 443 1332 q 576 1328 564 1333 q 603 1318 589 1322 q 618 1294 618 1308 q 605 1269 618 1280 q 575 1257 591 1257 m 492 860 q 424 818 492 818 q 319 867 356 818 q 282 960 282 917 q 353 1113 282 1043 q 503 1182 423 1182 q 586 1156 552 1182 q 591 1134 591 1147 q 580 1111 591 1122 q 557 1100 568 1100 q 524 1110 545 1100 q 483 1120 502 1120 q 439 1105 465 1120 q 392 1069 413 1091 q 346 966 346 1020 q 411 891 346 911 q 468 884 435 884 q 492 860 492 878 z "},"":{"ha":390,"x_min":96,"x_max":443,"o":"m 315 873 q 224 846 275 846 q 140 879 173 846 q 107 980 107 912 q 174 1104 107 1048 q 319 1160 241 1160 l 321 1160 q 325 1220 325 1187 q 256 1291 325 1291 q 171 1259 202 1291 q 157 1236 161 1249 q 119 1208 146 1208 q 96 1236 98 1208 q 102 1261 99 1248 q 115 1286 105 1275 q 184 1333 138 1312 q 266 1354 231 1354 q 359 1322 330 1354 q 389 1235 389 1290 q 373 1097 389 1181 q 357 981 357 1013 q 363 935 357 949 q 379 913 370 921 q 400 902 389 905 q 420 895 411 899 q 443 868 443 888 q 416 837 443 848 q 400 833 408 833 q 315 873 344 833 m 292 945 l 292 981 q 309 1095 292 1008 l 298 1095 q 205 1056 241 1095 q 170 983 170 1018 q 231 913 170 913 q 293 930 275 913 q 292 945 292 938 z "},"":{"ha":453,"x_min":-20,"x_max":404,"o":"m 191 335 q 165 354 165 335 q 180 378 165 363 q 335 575 283 486 q 374 597 356 597 q 395 586 391 597 q 388 557 398 574 q 258 380 309 426 q 356 288 307 350 q 404 205 404 227 q 390 169 404 183 q 361 154 375 154 q 339 164 347 154 q 191 335 273 281 m 195 216 q 160 186 195 186 q 121 212 140 186 q 16 317 52 300 q -20 346 -20 334 q -12 365 -20 357 q 11 385 -5 373 q 180 559 98 463 q 195 575 189 568 q 211 592 201 583 q 238 602 221 602 q 254 583 254 602 q 250 570 253 580 q 100 388 235 530 q 60 347 77 363 q 121 292 86 328 q 175 242 155 256 q 195 216 195 227 z "},"":{"ha":672,"x_min":65,"x_max":627,"o":"m 490 315 q 512 382 492 327 q 545 467 532 437 l 533 467 q 308 475 452 467 q 89 484 163 483 q 65 501 65 486 q 95 541 65 525 q 113 547 103 546 q 333 538 186 547 q 559 530 479 530 l 606 532 q 627 513 627 532 q 623 496 627 503 q 620 487 618 489 q 617 481 621 486 q 610 470 614 476 q 601 459 606 465 q 593 446 597 454 q 588 425 590 437 q 578 403 585 413 q 555 333 564 350 q 513 296 536 296 q 490 315 490 296 z "},"":{"ha":590,"x_min":61,"x_max":519,"o":"m 86 371 q 61 397 61 371 q 85 430 61 418 q 144 441 109 441 q 232 435 179 441 q 347 428 286 428 q 486 449 408 428 l 494 449 q 513 443 507 449 q 519 428 519 436 q 243 363 519 363 q 168 368 204 363 q 119 374 132 374 l 93 370 q 90 371 90 370 l 86 371 z "},"":{"ha":736,"x_min":107,"x_max":791,"o":"m 697 1218 q 791 1005 791 1132 q 666 786 791 878 q 391 694 540 694 q 287 715 340 694 q 194 774 234 736 q 107 975 107 856 q 157 1121 107 1062 q 420 1312 280 1263 q 516 1331 475 1331 q 578 1324 557 1331 q 619 1309 600 1318 q 656 1287 638 1299 q 693 1265 675 1276 q 708 1241 708 1255 q 697 1218 708 1226 m 364 823 q 328 1028 328 823 q 351 1178 328 1121 q 389 1200 367 1200 q 406 1206 401 1206 l 414 1206 q 463 1200 424 1206 q 591 1108 591 1183 q 522 1017 591 1040 q 467 1000 503 1010 q 418 979 431 990 q 615 889 508 889 q 626 889 621 889 q 637 890 631 889 q 661 867 661 884 q 659 852 661 859 q 726 996 726 919 q 675 1135 726 1074 q 610 1235 625 1197 q 513 1263 556 1263 q 355 1223 432 1263 q 227 1119 278 1184 q 175 980 175 1053 q 242 832 175 906 q 424 758 309 758 q 631 829 538 758 q 596 825 615 825 q 490 856 548 825 q 401 945 431 887 l 404 863 q 389 834 402 846 q 364 823 376 823 m 400 1139 q 389 1048 389 1098 l 389 1026 q 432 1045 408 1036 q 490 1067 456 1053 q 525 1096 525 1080 q 493 1131 525 1124 q 400 1139 460 1139 z "},"":{"ha":1157,"x_min":325,"x_max":741,"o":"m 718 1572 q 741 1548 741 1565 q 704 1508 741 1518 q 566 1500 675 1500 q 412 1503 456 1500 q 334 1522 367 1506 q 325 1544 325 1532 q 337 1567 325 1556 q 365 1578 350 1578 q 396 1573 379 1578 q 431 1568 413 1568 l 472 1569 q 590 1567 556 1567 q 718 1572 623 1567 z "},"":{"ha":328,"x_min":160,"x_max":469,"o":"m 363 1400 q 469 1308 469 1373 q 414 1197 469 1246 q 290 1149 358 1149 q 191 1181 221 1149 q 160 1253 160 1213 q 199 1382 160 1329 q 293 1436 239 1436 q 363 1400 348 1436 m 406 1287 q 406 1302 406 1287 q 358 1344 406 1318 q 283 1371 311 1371 q 241 1347 254 1371 q 228 1289 228 1323 q 244 1233 228 1255 q 296 1210 260 1210 q 369 1233 332 1210 q 406 1287 406 1256 z "},"":{"ha":586,"x_min":24,"x_max":566,"o":"m 81 403 q 105 438 89 427 q 130 449 122 449 q 143 446 138 449 q 278 479 201 473 l 289 479 q 296 518 292 500 l 304 559 q 307 596 307 572 l 307 627 q 334 680 307 663 q 353 685 342 685 q 379 642 379 685 q 373 590 379 618 q 362 537 366 562 q 351 482 358 512 l 361 482 q 418 477 385 482 l 468 471 q 505 468 485 468 q 547 471 524 468 q 566 452 566 465 q 553 426 566 440 q 524 407 541 411 l 340 422 q 319 248 319 317 l 319 228 q 273 179 311 179 q 250 236 250 179 q 278 421 250 293 q 259 418 274 421 q 228 412 243 415 q 187 404 212 409 q 155 391 187 404 q 105 380 130 380 q 81 403 81 380 m 484 47 l 282 56 q 58 12 138 56 q 43 9 50 9 q 24 28 24 9 q 80 84 24 61 q 189 110 121 101 q 307 118 257 118 q 408 115 357 118 q 507 111 458 113 q 525 90 525 108 q 498 55 525 72 q 484 47 491 50 z "},"":{"ha":407,"x_min":14,"x_max":393,"o":"m 136 785 q 43 725 72 725 q 14 760 14 725 q 58 837 14 795 q 99 865 77 854 q 133 876 121 876 q 153 873 146 876 q 325 1196 256 1000 q 245 1152 286 1189 q 229 1123 242 1136 q 201 1111 216 1111 q 178 1141 178 1111 q 241 1217 178 1172 q 350 1261 306 1261 q 393 1215 393 1261 q 281 973 393 1169 q 193 846 241 904 q 218 810 207 829 q 255 775 230 791 q 297 760 279 760 q 345 764 315 760 q 364 741 364 758 q 343 712 364 725 q 297 699 321 699 q 136 785 199 699 z "},"":{"ha":386,"x_min":-168,"x_max":404,"o":"m 293 1275 q 404 1211 404 1275 q 275 1029 404 1128 q 332 911 332 1002 q 295 754 332 819 q 139 588 236 650 q 10 543 69 543 q -100 582 -49 543 q -168 714 -165 630 q -151 744 -165 729 q -122 758 -136 758 q -102 743 -107 758 q 28 615 -99 615 q 104 634 62 615 q 183 688 147 652 q 264 886 264 767 q 220 975 264 968 q 191 973 203 973 q 155 992 155 973 q 202 1043 155 1010 q 246 1073 222 1057 q 289 1106 269 1088 q 323 1144 309 1124 q 336 1187 336 1164 q 289 1210 336 1210 q 245 1203 262 1210 q 222 1196 228 1196 q 201 1189 214 1189 q 182 1206 182 1189 q 221 1256 182 1236 q 293 1275 261 1275 m 193 978 q 200 981 197 978 q 196 979 198 979 q 193 978 195 979 z "},"":{"ha":1157,"x_min":515,"x_max":715,"o":"m 547 1429 q 515 1461 515 1429 q 530 1491 515 1471 q 562 1542 545 1512 q 595 1606 579 1573 q 625 1670 610 1638 q 656 1732 640 1702 q 690 1753 671 1753 q 715 1729 715 1753 q 705 1699 715 1718 q 680 1647 694 1679 q 638 1560 665 1615 q 578 1463 612 1506 q 566 1439 576 1449 q 547 1429 555 1429 z "},"":{"ha":632,"x_min":-121,"x_max":585,"o":"m -103 -768 q -121 -749 -121 -768 q -121 -740 -121 -747 q -40 -375 -121 -734 q 79 240 41 -16 q 76 220 78 237 q 72 201 73 203 q 79 248 75 224 q 86 294 82 271 q 132 661 90 448 q 149 682 142 676 q 195 711 171 711 q 214 688 211 711 q 154 306 193 576 l 154 267 q 244 58 154 58 q 315 117 277 58 q 341 163 330 140 q 383 243 353 186 q 452 412 413 301 q 459 481 456 446 q 472 562 463 517 q 507 656 481 606 q 567 707 532 707 q 585 686 585 707 q 572 620 585 680 q 519 439 559 560 l 515 406 q 484 210 500 309 q 458 14 468 111 q 441 -14 456 -2 q 411 -25 426 -25 q 392 -5 396 -25 q 412 180 398 87 q 307 31 351 59 q 207 -5 251 -5 q 115 64 144 -5 q -54 -729 65 -189 q -75 -757 -60 -746 q -103 -768 -90 -768 z "},"":{"ha":745,"x_min":37,"x_max":951,"o":"m 96 -268 q 74 -245 74 -268 q 79 -194 74 -222 q 91 -139 84 -167 q 103 -88 97 -111 q 117 -28 109 -64 q 139 83 124 9 q 170 237 154 158 q 201 396 186 316 q 231 550 217 476 q 257 687 245 623 q 278 798 269 751 q 114 858 191 798 q 37 994 37 918 q 142 1222 37 1127 q 639 1381 318 1381 q 791 1375 717 1381 q 932 1364 865 1369 q 951 1341 951 1358 q 924 1307 951 1324 q 908 1300 916 1302 q 743 1312 849 1302 q 602 569 678 1002 q 437 -232 526 135 q 416 -260 431 -249 q 389 -271 401 -271 q 371 -250 371 -271 l 371 -246 q 386 -182 371 -243 q 425 -16 401 -121 q 553 653 488 281 q 681 1317 618 1025 q 576 1321 637 1321 q 439 1308 515 1321 q 350 860 368 960 l 370 864 q 387 844 387 861 q 339 798 387 816 q 163 -118 298 553 l 142 -222 q 127 -253 142 -239 q 96 -268 113 -268 m 286 859 q 371 1291 336 1129 q 185 1183 273 1263 q 97 1014 97 1103 q 222 873 97 901 l 286 859 z "},"":{"ha":616,"x_min":221,"x_max":401,"o":"m 289 397 q 270 397 289 397 q 236 430 252 397 q 221 492 221 463 q 229 534 221 521 q 258 562 237 547 q 312 576 278 576 q 373 557 345 576 q 401 511 401 538 q 363 432 401 466 q 289 397 326 397 z "},"":{"ha":863,"x_min":258,"x_max":574,"o":"m 340 -184 q 315 -162 315 -184 q 334 -119 315 -140 q 367 -52 351 -86 q 404 12 382 -17 q 432 24 417 24 q 457 1 457 24 q 449 -22 457 -9 q 421 -77 440 -35 q 526 -131 478 -79 q 574 -239 574 -182 q 527 -348 574 -295 q 395 -400 480 -400 q 324 -389 358 -400 q 258 -342 258 -367 q 270 -317 258 -328 q 297 -306 281 -306 l 307 -307 q 406 -336 366 -336 q 478 -311 447 -336 q 509 -255 509 -286 q 488 -195 509 -223 q 410 -139 450 -139 q 372 -168 387 -139 l 370 -167 q 340 -184 353 -184 z "},"":{"ha":393,"x_min":46,"x_max":367,"o":"m 225 817 q 367 787 367 817 q 351 758 367 773 q 312 743 334 743 q 259 749 290 743 q 178 754 229 754 q 82 732 127 754 q 66 729 74 729 q 46 747 46 729 q 161 812 46 794 q 240 1121 205 968 q 132 1057 187 1068 q 110 1075 110 1059 q 120 1100 110 1086 q 146 1120 130 1113 q 245 1215 198 1131 q 264 1245 258 1236 q 270 1255 271 1254 q 271 1258 269 1256 l 273 1258 q 318 1289 295 1289 q 336 1265 336 1289 q 224 817 279 996 l 225 817 z "},"":{"ha":355,"x_min":66,"x_max":421,"o":"m 412 1241 q 421 1219 421 1233 q 400 1190 421 1204 q 305 808 400 928 q 158 736 248 736 q 94 770 122 736 q 66 846 66 804 q 109 1025 66 929 q 216 1189 151 1120 q 346 1263 281 1257 q 412 1241 387 1263 m 340 1197 q 336 1198 338 1198 l 334 1198 q 192 1068 253 1166 q 131 864 131 970 q 152 807 131 823 q 182 800 160 800 q 230 817 204 800 q 283 873 255 833 q 329 996 311 913 q 347 1166 347 1079 l 340 1197 z "},"":{"ha":458,"x_min":-68,"x_max":429,"o":"m -43 121 q -68 146 -68 123 q -54 173 -66 161 q -29 189 -42 186 l -8 210 q 13 231 -1 216 q 103 303 27 246 q 180 368 179 361 q 142 397 170 384 q 100 422 115 410 q 47 548 47 465 q 61 605 47 587 q 95 624 75 624 q 114 596 115 624 q 113 549 113 569 q 123 512 113 530 q 149 480 133 494 q 182 455 164 467 q 226 427 200 444 q 252 392 252 410 q 238 357 252 374 q 201 319 224 340 q 143 272 177 298 q 84 225 110 246 q 46 189 58 203 q 8 150 33 174 q -43 121 -16 125 m 303 535 q 308 526 303 535 q 325 498 312 517 q 370 444 338 479 q 415 401 401 408 q 429 382 429 395 q 416 357 429 370 q 314 292 393 334 q 205 212 234 251 q 170 196 189 196 q 150 214 150 196 q 155 235 150 224 q 286 336 197 288 q 335 363 311 349 q 236 503 267 420 q 227 544 227 527 q 238 578 227 561 q 272 595 250 595 q 295 574 294 595 q 303 535 295 554 z "},"":{"ha":947,"x_min":102,"x_max":913,"o":"m 102 -87 q 118 -41 102 -78 q 165 67 135 -4 q 229 207 196 138 l 546 875 l 818 1426 l 819 1426 q 857 1404 857 1426 q 846 1381 857 1392 q 846 1379 846 1379 l 847 1379 q 773 1185 847 1333 l 747 1132 q 296 195 476 591 l 168 -86 q 129 -110 157 -110 q 102 -87 102 -110 m 739 293 q 582 271 623 271 q 541 294 541 271 q 567 352 541 318 q 608 404 593 385 q 633 436 624 422 l 633 435 q 659 488 646 459 q 769 637 727 629 q 779 639 774 639 q 802 614 802 639 q 790 586 802 599 q 735 499 766 570 q 642 346 704 429 q 639 342 639 343 q 672 347 656 345 q 701 351 687 349 q 729 354 715 353 q 760 359 743 356 q 802 465 779 422 q 800 459 802 463 q 813 503 806 477 q 890 618 846 618 q 913 593 913 618 q 899 545 913 574 q 878 453 885 515 q 859 342 871 391 q 814 310 847 319 q 726 103 768 179 l 726 106 q 699 27 701 50 q 684 -7 696 4 q 659 -18 671 -18 q 635 11 637 -18 q 675 137 640 64 q 739 293 711 210 m 302 921 q 444 892 444 921 q 428 862 444 877 q 389 847 412 847 q 336 853 367 847 q 257 859 306 859 q 160 836 208 859 q 144 833 151 833 q 123 850 123 833 q 160 895 123 878 q 239 917 187 909 q 318 1225 284 1075 q 210 1161 265 1172 q 187 1179 187 1164 q 198 1204 187 1191 q 224 1223 208 1217 q 324 1318 277 1236 q 342 1349 336 1339 q 348 1359 349 1358 q 349 1362 347 1360 l 351 1362 q 396 1393 373 1393 q 414 1369 414 1393 q 301 921 357 1101 l 302 921 z "},"":{"ha":947,"x_min":102,"x_max":880,"o":"m 102 -87 q 118 -41 102 -78 q 172 80 135 -4 q 229 207 209 164 l 408 599 q 476 737 441 669 q 546 875 512 805 l 818 1426 l 819 1426 q 857 1404 857 1426 q 846 1381 857 1392 q 846 1379 846 1379 l 847 1379 q 773 1185 847 1333 l 747 1132 q 296 195 476 591 l 168 -86 q 129 -110 157 -110 q 102 -87 102 -110 m 624 100 q 530 40 559 40 q 501 76 501 40 q 545 152 501 111 q 586 181 564 170 q 621 192 608 192 q 640 189 633 192 q 812 511 743 315 q 733 467 774 505 q 716 439 730 451 q 689 427 703 427 q 665 457 665 427 q 728 532 665 487 q 840 576 793 576 q 880 533 880 576 q 857 454 880 500 q 681 161 755 251 q 694 144 688 153 q 706 125 700 134 q 764 80 727 96 q 788 75 774 75 q 832 79 802 75 q 851 57 851 73 q 830 27 851 40 q 785 14 810 14 q 624 100 688 14 m 302 921 q 444 892 444 921 q 428 862 444 877 q 389 847 412 847 q 336 853 367 847 q 257 859 306 859 q 160 836 208 859 q 144 833 151 833 q 123 850 123 833 q 160 895 123 878 q 239 917 187 909 q 318 1225 284 1075 q 210 1161 265 1172 q 187 1179 187 1164 q 198 1204 187 1191 q 224 1223 208 1217 q 324 1318 277 1236 q 342 1349 336 1339 q 348 1359 349 1358 q 349 1362 347 1360 l 351 1362 q 396 1393 373 1393 q 414 1369 414 1393 q 301 921 357 1101 l 302 921 z "},"":{"ha":947,"x_min":-77,"x_max":913,"o":"m 102 -87 q 118 -41 102 -78 q 165 67 135 -4 q 229 207 196 138 l 546 875 l 818 1426 l 819 1426 q 857 1404 857 1426 q 846 1381 857 1392 q 846 1379 846 1379 l 847 1379 q 773 1185 847 1333 l 747 1132 q 296 195 476 591 l 168 -86 q 129 -110 157 -110 q 102 -87 102 -110 m 496 1297 q 367 1111 496 1208 q 424 986 424 1084 q 292 718 424 840 q 102 625 193 625 q -15 669 43 625 q -77 796 -73 712 q -45 837 -70 825 q -26 840 -37 840 q -9 825 -16 840 q 25 730 -8 763 q 106 697 58 697 q 278 773 201 697 q 355 968 355 849 q 311 1057 355 1050 q 281 1055 292 1055 q 266 1055 271 1055 q 248 1075 248 1057 q 281 1116 248 1093 q 338 1155 315 1139 q 381 1188 361 1171 q 415 1226 401 1206 q 428 1269 428 1246 q 380 1292 428 1292 q 337 1285 354 1292 q 314 1278 319 1278 q 293 1271 305 1271 q 273 1288 273 1271 q 313 1338 273 1318 q 396 1357 353 1357 q 468 1341 440 1357 q 496 1297 496 1324 m 739 293 q 582 271 623 271 q 541 294 541 271 q 567 352 541 318 q 608 404 593 385 q 633 436 624 422 l 633 435 q 659 488 646 459 q 769 637 727 629 q 779 639 774 639 q 802 614 802 639 q 790 586 802 599 q 735 499 766 570 q 642 346 704 429 q 639 342 639 343 q 672 347 656 345 q 701 351 687 349 q 729 354 715 353 q 760 359 743 356 q 802 465 779 422 q 800 459 802 463 q 813 503 806 477 q 890 618 846 618 q 913 593 913 618 q 899 545 913 574 q 878 453 885 515 q 859 342 871 391 q 814 310 847 319 q 726 103 768 179 l 726 106 q 699 27 701 50 q 684 -7 696 4 q 659 -18 671 -18 q 635 11 637 -18 q 675 137 640 64 q 739 293 711 210 m 285 1060 q 292 1063 289 1060 q 288 1061 290 1061 q 285 1060 286 1061 z "},"":{"ha":326,"x_min":-171,"x_max":394,"o":"m 313 -338 q 332 -321 313 -321 q 393 -441 393 -321 q 279 -631 393 -561 q 65 -689 182 -689 q -151 -541 -96 -689 q -171 -423 -171 -488 q -163 -319 -171 -359 q -140 -246 -155 -280 q -106 -184 -125 -213 q -63 -125 -86 -155 q -16 -63 -41 -95 q 88 106 49 22 q 157 411 127 190 q 172 439 159 428 q 196 450 184 450 q 221 421 218 450 q 168 162 187 225 q 120 46 150 98 q 7 -123 91 -6 q -106 -408 -106 -285 q -48 -584 -106 -530 q 58 -623 -5 -623 q 256 -572 177 -623 q 335 -435 335 -520 q 324 -383 335 -420 q 313 -338 313 -346 m 195 545 q 146 585 146 545 q 155 636 146 604 q 208 686 176 676 q 267 655 251 686 q 272 617 272 644 q 245 567 272 590 q 195 545 218 545 z "},"":{"ha":975,"x_min":-109,"x_max":880,"o":"m 143 443 q 323 431 197 436 q 624 952 441 608 q 772 1324 739 1168 q 790 1348 778 1338 q 814 1357 802 1357 q 833 1336 831 1357 q 843 1312 844 1325 q 835 1291 842 1298 q 813 1176 819 1236 q 786 954 806 1116 q 766 681 766 791 q 783 412 766 570 q 873 394 867 404 q 880 373 880 385 q 868 350 880 361 q 841 339 855 338 q 815 341 826 340 q 793 345 804 343 l 793 338 q 795 317 793 334 q 798 270 798 300 q 801 217 798 240 q 808 168 803 193 q 824 96 814 143 q 835 34 835 49 q 824 7 835 19 q 799 -4 812 -4 q 774 16 785 -4 q 758 67 764 36 q 746 137 751 98 q 739 213 742 176 q 733 283 735 251 q 728 334 730 315 l 724 353 q 537 363 631 362 q 349 367 443 365 q 11 24 170 96 q -72 -3 -42 -3 q -109 32 -109 -3 q -96 62 -109 50 q -71 75 -84 75 q -50 64 -58 75 l -49 65 q 225 293 96 121 q 257 336 245 320 q 281 368 269 351 q 123 379 176 374 q 104 401 104 387 q 116 429 104 416 q 143 443 128 441 m 717 419 q 705 666 705 510 q 734 1043 705 821 q 552 698 652 873 q 392 429 452 524 q 555 427 473 428 q 717 419 637 426 m 660 1691 q 672 1722 660 1709 q 695 1735 684 1735 q 724 1711 720 1735 q 847 1489 739 1628 q 852 1469 852 1482 q 841 1443 852 1455 q 818 1432 830 1432 q 794 1442 805 1432 q 660 1691 682 1588 z "},"":{"ha":975,"x_min":-109,"x_max":995,"o":"m 143 443 q 323 431 197 436 q 624 952 441 608 q 772 1324 739 1168 q 790 1348 778 1338 q 814 1357 802 1357 q 833 1336 831 1357 q 843 1312 844 1325 q 835 1291 842 1298 q 813 1176 819 1236 q 786 954 806 1116 q 766 681 766 791 q 783 412 766 570 q 873 394 867 404 q 880 373 880 385 q 868 350 880 361 q 841 339 855 338 q 815 341 826 340 q 793 345 804 343 l 793 338 q 795 317 793 334 q 798 270 798 300 q 801 217 798 240 q 808 168 803 193 q 824 96 814 143 q 835 34 835 49 q 824 7 835 19 q 799 -4 812 -4 q 774 16 785 -4 q 758 67 764 36 q 746 137 751 98 q 739 213 742 176 q 733 283 735 251 q 728 334 730 315 l 724 353 q 537 363 631 362 q 349 367 443 365 q 11 24 170 96 q -72 -3 -42 -3 q -109 32 -109 -3 q -96 62 -109 50 q -71 75 -84 75 q -50 64 -58 75 l -49 65 q 225 293 96 121 q 257 336 245 320 q 281 368 269 351 q 123 379 176 374 q 104 401 104 387 q 116 429 104 416 q 143 443 128 441 m 717 419 q 705 666 705 510 q 734 1043 705 821 q 552 698 652 873 q 392 429 452 524 q 555 427 473 428 q 717 419 637 426 m 826 1430 q 795 1462 795 1430 q 809 1493 795 1472 q 841 1544 824 1513 q 874 1607 859 1575 q 905 1671 890 1639 q 935 1733 920 1703 q 970 1754 951 1754 q 995 1731 995 1754 q 984 1700 995 1720 q 959 1648 974 1681 q 918 1562 944 1616 q 857 1464 891 1508 q 845 1440 855 1451 q 826 1430 835 1430 z "},"":{"ha":975,"x_min":-109,"x_max":985,"o":"m 143 443 q 323 431 197 436 q 624 952 441 608 q 772 1324 739 1168 q 790 1348 778 1338 q 814 1357 802 1357 q 833 1336 831 1357 q 843 1312 844 1325 q 835 1291 842 1298 q 813 1176 819 1236 q 786 954 806 1116 q 766 681 766 791 q 783 412 766 570 q 873 394 867 404 q 880 373 880 385 q 868 350 880 361 q 841 339 855 338 q 815 341 826 340 q 793 345 804 343 l 793 338 q 795 317 793 334 q 798 270 798 300 q 801 217 798 240 q 808 168 803 193 q 824 96 814 143 q 835 34 835 49 q 824 7 835 19 q 799 -4 812 -4 q 774 16 785 -4 q 758 67 764 36 q 746 137 751 98 q 739 213 742 176 q 733 283 735 251 q 728 334 730 315 l 724 353 q 537 363 631 362 q 349 367 443 365 q 11 24 170 96 q -72 -3 -42 -3 q -109 32 -109 -3 q -96 62 -109 50 q -71 75 -84 75 q -50 64 -58 75 l -49 65 q 225 293 96 121 q 257 336 245 320 q 281 368 269 351 q 123 379 176 374 q 104 401 104 387 q 116 429 104 416 q 143 443 128 441 m 717 419 q 705 666 705 510 q 734 1043 705 821 q 552 698 652 873 q 392 429 452 524 q 555 427 473 428 q 717 419 637 426 m 876 1651 l 875 1634 q 907 1544 875 1603 q 979 1458 940 1485 q 985 1437 985 1449 q 973 1413 985 1424 q 946 1402 962 1402 q 878 1455 917 1402 q 819 1565 840 1507 q 810 1549 814 1557 q 703 1413 790 1510 q 679 1404 690 1404 q 654 1427 654 1404 q 704 1505 654 1449 q 768 1588 753 1560 q 796 1634 784 1616 q 851 1678 826 1678 q 876 1651 876 1678 z "},"":{"ha":975,"x_min":-109,"x_max":1017,"o":"m 143 443 q 323 431 197 436 q 624 952 441 608 q 772 1324 739 1168 q 790 1348 778 1338 q 814 1357 802 1357 q 833 1336 831 1357 q 843 1312 844 1325 q 835 1291 842 1298 q 813 1176 819 1236 q 786 954 806 1116 q 766 681 766 791 q 783 412 766 570 q 873 394 867 404 q 880 373 880 385 q 868 350 880 361 q 841 339 855 338 q 815 341 826 340 q 793 345 804 343 l 793 338 q 795 317 793 334 q 798 270 798 300 q 801 217 798 240 q 808 168 803 193 q 824 96 814 143 q 835 34 835 49 q 824 7 835 19 q 799 -4 812 -4 q 774 16 785 -4 q 758 67 764 36 q 746 137 751 98 q 739 213 742 176 q 733 283 735 251 q 728 334 730 315 l 724 353 q 537 363 631 362 q 349 367 443 365 q 11 24 170 96 q -72 -3 -42 -3 q -109 32 -109 -3 q -96 62 -109 50 q -71 75 -84 75 q -50 64 -58 75 l -49 65 q 225 293 96 121 q 257 336 245 320 q 281 368 269 351 q 123 379 176 374 q 104 401 104 387 q 116 429 104 416 q 143 443 128 441 m 717 419 q 705 666 705 510 q 734 1043 705 821 q 552 698 652 873 q 392 429 452 524 q 555 427 473 428 q 717 419 637 426 m 989 1622 q 1017 1556 1017 1622 q 959 1467 1017 1491 q 908 1458 937 1458 q 856 1471 878 1458 q 814 1498 834 1483 q 776 1525 794 1512 q 742 1537 758 1537 q 685 1487 709 1537 q 653 1471 671 1471 q 628 1495 628 1471 q 631 1510 628 1501 q 736 1604 678 1604 q 811 1578 767 1604 q 880 1540 855 1552 q 931 1528 905 1528 q 957 1533 957 1528 l 957 1541 l 950 1579 q 962 1610 950 1597 q 989 1622 975 1622 z "},"":{"ha":975,"x_min":-109,"x_max":1017,"o":"m 143 443 q 323 431 197 436 q 624 952 441 608 q 772 1324 739 1168 q 790 1348 778 1338 q 814 1357 802 1357 q 833 1336 831 1357 q 843 1312 844 1325 q 835 1291 842 1298 q 813 1176 819 1236 q 786 954 806 1116 q 766 681 766 791 q 783 412 766 570 q 873 394 867 404 q 880 373 880 385 q 868 350 880 361 q 841 339 855 338 q 815 341 826 340 q 793 345 804 343 l 793 338 q 795 317 793 334 q 798 270 798 300 q 801 217 798 240 q 808 168 803 193 q 824 96 814 143 q 835 34 835 49 q 824 7 835 19 q 799 -4 812 -4 q 774 16 785 -4 q 758 67 764 36 q 746 137 751 98 q 739 213 742 176 q 733 283 735 251 q 728 334 730 315 l 724 353 q 537 363 631 362 q 349 367 443 365 q 11 24 170 96 q -72 -3 -42 -3 q -109 32 -109 -3 q -96 62 -109 50 q -71 75 -84 75 q -50 64 -58 75 l -49 65 q 225 293 96 121 q 257 336 245 320 q 281 368 269 351 q 123 379 176 374 q 104 401 104 387 q 116 429 104 416 q 143 443 128 441 m 717 419 q 705 666 705 510 q 734 1043 705 821 q 552 698 652 873 q 392 429 452 524 q 555 427 473 428 q 717 419 637 426 m 936 1474 q 903 1519 903 1486 q 921 1571 903 1553 q 973 1603 954 1603 q 1017 1560 1017 1603 q 995 1501 1017 1530 q 947 1472 973 1472 q 936 1474 943 1472 m 728 1592 l 728 1593 q 750 1545 750 1567 q 720 1494 750 1524 q 671 1464 689 1464 q 642 1487 652 1464 q 632 1529 632 1510 q 637 1561 632 1548 q 651 1585 642 1575 q 670 1601 659 1595 q 696 1607 681 1607 q 728 1592 712 1607 z "},"":{"ha":975,"x_min":-109,"x_max":929,"o":"m 143 443 q 323 431 197 436 q 624 952 441 608 q 772 1324 739 1168 q 790 1348 778 1338 q 814 1357 802 1357 q 833 1336 831 1357 q 843 1312 844 1325 q 835 1291 842 1298 q 813 1176 819 1236 q 786 954 806 1116 q 766 681 766 791 q 783 412 766 570 q 873 394 867 404 q 880 373 880 385 q 868 350 880 361 q 841 339 855 338 q 815 341 826 340 q 793 345 804 343 l 793 338 q 795 317 793 334 q 798 270 798 300 q 801 217 798 240 q 808 168 803 193 q 824 96 814 143 q 835 34 835 49 q 824 7 835 19 q 799 -4 812 -4 q 774 16 785 -4 q 758 67 764 36 q 746 137 751 98 q 739 213 742 176 q 733 283 735 251 q 728 334 730 315 l 724 353 q 537 363 631 362 q 349 367 443 365 q 11 24 170 96 q -72 -3 -42 -3 q -109 32 -109 -3 q -96 62 -109 50 q -71 75 -84 75 q -50 64 -58 75 l -49 65 q 225 293 96 121 q 257 336 245 320 q 281 368 269 351 q 123 379 176 374 q 104 401 104 387 q 116 429 104 416 q 143 443 128 441 m 717 419 q 705 666 705 510 q 734 1043 705 821 q 552 698 652 873 q 392 429 452 524 q 555 427 473 428 q 717 419 637 426 m 821 1633 q 837 1638 827 1638 q 854 1632 847 1638 q 929 1510 929 1579 q 898 1434 929 1466 q 817 1402 866 1402 q 702 1455 740 1402 q 688 1501 688 1474 q 695 1551 688 1527 q 718 1594 703 1575 q 751 1627 732 1614 q 789 1639 771 1639 q 821 1633 808 1639 m 824 1463 q 864 1504 864 1463 q 832 1558 864 1527 l 824 1558 q 802 1565 812 1558 q 781 1572 792 1572 q 761 1558 769 1572 q 753 1520 753 1544 q 778 1479 753 1495 q 824 1463 802 1463 z "},"":{"ha":1274,"x_min":-109,"x_max":1356,"o":"m 1287 1344 q 1356 1321 1356 1344 q 1346 1295 1356 1307 q 1322 1279 1336 1283 l 1229 1279 q 829 1243 937 1279 q 819 1213 824 1227 q 801 1138 814 1199 q 760 958 787 1076 q 704 720 732 839 q 802 714 744 714 l 888 714 q 1096 717 1053 714 q 1120 694 1120 710 q 1092 657 1120 666 q 1004 648 1065 648 l 888 650 l 865 650 q 690 656 728 650 q 655 490 664 538 q 643 423 646 441 q 875 392 860 412 q 880 373 880 385 q 868 350 880 361 q 838 338 855 338 q 633 360 753 354 q 592 153 610 211 q 557 62 573 95 l 1093 52 q 1189 54 1162 52 q 1213 25 1213 48 q 1186 -5 1213 3 q 1111 -12 1160 -12 l 1101 -12 q 800 -5 997 -12 q 562 3 603 3 l 515 -1 q 484 8 492 -1 q 476 27 476 18 q 481 43 476 36 q 510 105 486 51 q 569 363 534 160 l 349 367 q 11 24 170 96 q -72 -3 -42 -3 q -109 32 -109 -3 q -96 62 -109 50 q -70 75 -84 75 q -50 64 -56 75 l -49 65 q 225 293 96 121 q 257 336 245 320 q 281 368 269 351 q 123 379 176 374 q 104 401 104 387 q 116 429 104 416 q 143 443 128 441 q 323 431 197 436 q 659 1021 465 644 q 743 1218 709 1117 q 733 1244 733 1225 q 762 1280 733 1262 q 767 1302 765 1291 q 774 1325 770 1312 q 790 1348 778 1338 q 814 1357 802 1357 q 835 1324 835 1357 l 834 1321 q 839 1310 838 1313 q 1249 1344 975 1344 l 1287 1344 m 580 426 q 586 458 583 442 q 593 492 589 475 l 633 685 l 633 689 q 639 710 633 697 q 697 967 670 851 q 392 429 517 624 l 580 426 z "},"":{"ha":745,"x_min":41,"x_max":811,"o":"m 340 -20 l 325 -21 q 124 94 207 -21 q 41 400 41 210 q 126 818 41 549 q 342 1235 211 1086 q 555 1353 446 1353 q 737 1262 663 1353 q 811 1078 811 1172 q 797 1051 809 1063 q 772 1039 785 1039 q 754 1047 760 1039 q 742 1092 745 1059 q 680 1232 731 1178 q 553 1286 629 1286 q 391 1183 477 1286 q 195 799 277 1048 q 113 407 113 551 q 161 165 113 262 q 334 47 221 47 q 524 125 416 47 q 572 160 553 146 q 602 174 590 174 q 625 149 625 174 q 604 114 625 130 q 559 82 582 98 q 497 39 536 65 q 414 -4 458 12 q 405 -24 412 -13 q 378 -77 397 -35 q 483 -131 435 -79 q 531 -239 531 -182 q 484 -348 531 -295 q 352 -400 437 -400 q 282 -389 315 -400 q 216 -342 216 -367 q 227 -317 216 -328 q 254 -306 239 -306 l 264 -307 q 363 -336 323 -336 q 435 -311 404 -336 q 466 -255 466 -286 q 446 -195 466 -223 q 367 -139 407 -139 q 330 -168 344 -139 l 327 -167 q 298 -184 311 -184 q 273 -162 273 -184 q 291 -119 273 -140 q 315 -70 304 -95 q 340 -20 326 -44 z "},"":{"ha":777,"x_min":-21,"x_max":859,"o":"m 342 1310 q 765 1344 477 1344 q 832 1340 806 1344 q 859 1320 859 1336 q 840 1283 859 1296 q 825 1279 833 1279 l 732 1279 q 332 1243 439 1279 q 268 968 305 1149 q 215 720 231 786 q 405 714 260 714 q 599 717 550 714 q 623 694 623 710 q 595 657 623 667 q 507 648 568 648 l 201 656 q 134 367 178 572 q 60 62 90 163 l 596 52 q 692 54 665 52 q 715 31 715 47 q 684 -6 715 3 q 601 -12 663 -12 q 459 -10 539 -12 q 306 -5 380 -7 q 169 0 231 -2 q 65 3 106 3 l 18 -1 q -13 8 -5 -1 q -21 27 -21 18 q -16 43 -21 36 q -4 67 -12 51 q 13 112 3 84 q 50 248 31 164 q 123 589 69 331 q 258 1214 177 846 q 236 1241 236 1216 q 277 1287 236 1265 q 318 1331 277 1331 q 342 1310 338 1331 m 418 1693 q 430 1723 418 1710 q 454 1736 442 1736 q 482 1712 478 1736 q 606 1490 497 1630 q 611 1470 611 1483 q 600 1445 611 1457 q 576 1433 589 1433 q 553 1443 564 1433 q 418 1693 440 1590 z "},"":{"ha":777,"x_min":-21,"x_max":859,"o":"m 342 1310 q 765 1344 477 1344 q 832 1340 806 1344 q 859 1320 859 1336 q 840 1283 859 1296 q 825 1279 833 1279 l 732 1279 q 332 1243 439 1279 q 268 968 305 1149 q 215 720 231 786 q 405 714 260 714 q 599 717 550 714 q 623 694 623 710 q 595 657 623 667 q 507 648 568 648 l 201 656 q 134 367 178 572 q 60 62 90 163 l 596 52 q 692 54 665 52 q 715 31 715 47 q 684 -6 715 3 q 601 -12 663 -12 q 459 -10 539 -12 q 306 -5 380 -7 q 169 0 231 -2 q 65 3 106 3 l 18 -1 q -13 8 -5 -1 q -21 27 -21 18 q -16 43 -21 36 q -4 67 -12 51 q 13 112 3 84 q 50 248 31 164 q 123 589 69 331 q 258 1214 177 846 q 236 1241 236 1216 q 277 1287 236 1265 q 318 1331 277 1331 q 342 1310 338 1331 m 584 1433 q 553 1465 553 1433 q 567 1495 553 1475 q 599 1547 582 1516 q 632 1610 616 1577 q 663 1674 648 1642 q 693 1736 677 1706 q 728 1757 709 1757 q 753 1733 753 1757 q 742 1703 753 1723 q 717 1651 732 1683 q 675 1565 702 1619 q 615 1467 649 1510 q 603 1443 613 1453 q 584 1433 593 1433 z "},"":{"ha":777,"x_min":-21,"x_max":859,"o":"m 342 1310 q 765 1344 477 1344 q 832 1340 806 1344 q 859 1320 859 1336 q 840 1283 859 1296 q 825 1279 833 1279 l 732 1279 q 332 1243 439 1279 q 268 968 305 1149 q 215 720 231 786 q 405 714 260 714 q 599 717 550 714 q 623 694 623 710 q 595 657 623 667 q 507 648 568 648 l 201 656 q 134 367 178 572 q 60 62 90 163 l 596 52 q 692 54 665 52 q 715 31 715 47 q 684 -6 715 3 q 601 -12 663 -12 q 459 -10 539 -12 q 306 -5 380 -7 q 169 0 231 -2 q 65 3 106 3 l 18 -1 q -13 8 -5 -1 q -21 27 -21 18 q -16 43 -21 36 q -4 67 -12 51 q 13 112 3 84 q 50 248 31 164 q 123 589 69 331 q 258 1214 177 846 q 236 1241 236 1216 q 277 1287 236 1265 q 318 1331 277 1331 q 342 1310 338 1331 m 635 1654 l 633 1637 q 666 1547 633 1605 q 738 1461 699 1488 q 743 1439 743 1452 q 732 1416 743 1427 q 705 1405 720 1405 q 637 1457 675 1405 q 578 1568 598 1510 q 568 1552 572 1560 q 461 1415 549 1512 q 437 1407 449 1407 q 413 1429 413 1407 q 462 1507 413 1451 q 527 1591 511 1563 q 555 1637 543 1619 q 610 1681 585 1681 q 635 1654 635 1681 z "},"":{"ha":777,"x_min":-21,"x_max":859,"o":"m 342 1310 q 765 1344 477 1344 q 832 1340 806 1344 q 859 1320 859 1336 q 840 1283 859 1296 q 825 1279 833 1279 l 732 1279 q 332 1243 439 1279 q 268 968 305 1149 q 215 720 231 786 q 405 714 260 714 q 599 717 550 714 q 623 694 623 710 q 595 657 623 667 q 507 648 568 648 l 201 656 q 134 367 178 572 q 60 62 90 163 l 596 52 q 692 54 665 52 q 715 31 715 47 q 684 -6 715 3 q 601 -12 663 -12 q 459 -10 539 -12 q 306 -5 380 -7 q 169 0 231 -2 q 65 3 106 3 l 18 -1 q -13 8 -5 -1 q -21 27 -21 18 q -16 43 -21 36 q -4 67 -12 51 q 13 112 3 84 q 50 248 31 164 q 123 589 69 331 q 258 1214 177 846 q 236 1241 236 1216 q 277 1287 236 1265 q 318 1331 277 1331 q 342 1310 338 1331 m 694 1477 q 661 1522 661 1489 q 680 1573 661 1556 q 732 1605 713 1605 q 775 1563 775 1605 q 753 1504 775 1533 q 706 1475 732 1475 q 694 1477 701 1475 m 486 1594 l 486 1596 q 509 1548 509 1569 q 478 1497 509 1527 q 429 1467 448 1467 q 401 1490 411 1467 q 391 1531 391 1512 q 396 1564 391 1550 q 409 1588 401 1577 q 429 1604 418 1598 q 455 1610 439 1610 q 486 1594 471 1610 z "},"":{"ha":376,"x_min":-78,"x_max":526,"o":"m 214 1271 q 187 1297 187 1271 q 200 1320 187 1308 q 231 1333 213 1332 l 349 1333 q 505 1332 420 1333 q 526 1310 526 1324 q 515 1284 526 1296 q 489 1270 505 1273 l 445 1270 q 392 1271 426 1270 q 118 62 191 464 q 258 37 246 59 q 261 22 261 31 q 249 1 261 14 q 221 -14 237 -12 q 142 -7 183 -14 q 79 1 101 -1 q 24 4 56 4 q -43 -7 -7 4 l -50 -7 q -71 0 -64 -7 q -78 17 -78 7 q 53 64 -78 64 l 58 64 q 204 748 116 373 q 326 1271 292 1123 q 309 1270 316 1270 l 273 1270 l 214 1271 m 245 1693 q 257 1723 245 1710 q 280 1736 269 1736 q 309 1712 304 1736 q 432 1490 323 1630 q 437 1470 437 1483 q 426 1445 437 1457 q 402 1433 415 1433 q 379 1443 390 1433 q 245 1693 267 1590 z "},"":{"ha":376,"x_min":-78,"x_max":581,"o":"m 214 1271 q 187 1297 187 1271 q 200 1320 187 1308 q 231 1333 213 1332 l 349 1333 q 505 1332 420 1333 q 526 1310 526 1324 q 515 1284 526 1296 q 489 1270 505 1273 l 445 1270 q 392 1271 426 1270 q 118 62 191 464 q 258 37 246 59 q 261 22 261 31 q 249 1 261 14 q 221 -14 237 -12 q 142 -7 183 -14 q 79 1 101 -1 q 24 4 56 4 q -43 -7 -7 4 l -50 -7 q -71 0 -64 -7 q -78 17 -78 7 q 53 64 -78 64 l 58 64 q 204 748 116 373 q 326 1271 292 1123 q 309 1270 316 1270 l 273 1270 l 214 1271 m 412 1433 q 380 1465 380 1433 q 395 1495 380 1475 q 427 1547 410 1516 q 460 1610 444 1577 q 490 1674 475 1642 q 521 1736 505 1706 q 555 1757 536 1757 q 581 1733 581 1757 q 570 1703 581 1723 q 545 1651 559 1683 q 503 1565 530 1619 q 443 1467 477 1510 q 431 1443 441 1453 q 412 1433 420 1433 z "},"":{"ha":376,"x_min":-78,"x_max":571,"o":"m 214 1271 q 187 1297 187 1271 q 200 1320 187 1308 q 231 1333 213 1332 l 349 1333 q 505 1332 420 1333 q 526 1310 526 1324 q 515 1284 526 1296 q 489 1270 505 1273 l 445 1270 q 392 1271 426 1270 q 118 62 191 464 q 258 37 246 59 q 261 22 261 31 q 249 1 261 14 q 221 -14 237 -12 q 142 -7 183 -14 q 79 1 101 -1 q 24 4 56 4 q -43 -7 -7 4 l -50 -7 q -71 0 -64 -7 q -78 17 -78 7 q 53 64 -78 64 l 58 64 q 204 748 116 373 q 326 1271 292 1123 q 309 1270 316 1270 l 273 1270 l 214 1271 m 463 1654 l 461 1637 q 494 1547 461 1605 q 566 1461 526 1488 q 571 1439 571 1452 q 559 1416 571 1427 q 532 1405 548 1405 q 465 1457 503 1405 q 406 1568 426 1510 q 396 1552 400 1560 q 289 1415 376 1512 q 265 1407 277 1407 q 241 1429 241 1407 q 290 1507 241 1451 q 355 1591 339 1563 q 382 1637 370 1619 q 437 1681 412 1681 q 463 1654 463 1681 z "},"":{"ha":376,"x_min":-78,"x_max":603,"o":"m 214 1271 q 187 1297 187 1271 q 200 1320 187 1308 q 231 1333 213 1332 l 349 1333 q 505 1332 420 1333 q 526 1310 526 1324 q 515 1284 526 1296 q 489 1270 505 1273 l 445 1270 q 392 1271 426 1270 q 118 62 191 464 q 258 37 246 59 q 261 22 261 31 q 249 1 261 14 q 221 -14 237 -12 q 142 -7 183 -14 q 79 1 101 -1 q 24 4 56 4 q -43 -7 -7 4 l -50 -7 q -71 0 -64 -7 q -78 17 -78 7 q 53 64 -78 64 l 58 64 q 204 748 116 373 q 326 1271 292 1123 q 309 1270 316 1270 l 273 1270 l 214 1271 m 522 1477 q 489 1522 489 1489 q 507 1573 489 1556 q 559 1605 541 1605 q 603 1563 603 1605 q 581 1504 603 1533 q 534 1475 559 1475 q 522 1477 529 1475 m 314 1594 l 314 1596 q 336 1548 336 1569 q 306 1497 336 1527 q 257 1467 275 1467 q 229 1490 239 1467 q 218 1531 218 1512 q 223 1564 218 1550 q 237 1588 229 1577 q 256 1604 245 1598 q 283 1610 267 1610 q 314 1594 298 1610 z "},"":{"ha":929,"x_min":-332,"x_max":907,"o":"m -332 318 q -310 364 -328 364 q -279 347 -287 364 q -231 234 -255 286 q -172 144 -207 182 q 40 49 -98 61 q 93 305 49 104 q 175 666 136 506 l 127 661 q 18 652 50 652 q -27 653 -15 652 q -51 656 -40 654 q -70 661 -62 658 q -77 667 -78 663 q -83 688 -83 675 q -72 711 -83 700 q -48 722 -60 722 q -29 718 -35 722 q 30 719 -23 719 q 121 723 83 719 q 191 730 158 727 q 340 1244 264 1029 q 187 1173 256 1216 q 172 1169 178 1169 q 149 1194 149 1169 q 165 1226 149 1215 q 367 1317 267 1289 q 394 1335 380 1335 q 412 1328 408 1335 q 558 1343 477 1343 q 709 1308 640 1343 q 907 872 907 1210 q 723 244 907 476 q 366 18 592 80 q 106 -14 250 -14 l 97 -14 q 75 -71 92 -59 q 56 -77 68 -77 q 29 -49 29 -77 q 32 -9 29 -35 q -264 174 -161 13 q -332 318 -303 233 m 842 856 q 525 1276 842 1276 q 407 1263 460 1276 q 252 736 324 1027 q 627 751 432 751 q 650 728 650 745 q 640 704 650 715 q 616 688 630 692 q 236 671 425 688 q 103 46 176 425 l 107 46 q 509 156 343 46 q 758 450 675 266 q 842 856 842 635 z "},"":{"ha":901,"x_min":-9,"x_max":935,"o":"m 276 1332 q 279 1339 276 1332 q 298 1346 282 1346 q 322 1337 313 1346 q 335 1302 330 1327 q 475 742 358 1189 q 646 107 592 295 q 754 686 677 288 q 872 1315 831 1084 q 892 1339 877 1330 q 920 1349 907 1349 q 934 1340 933 1349 q 935 1315 935 1332 q 781 521 848 899 q 703 80 714 142 q 688 11 692 18 q 675 -6 685 4 q 649 -16 665 -16 q 613 16 632 -16 q 570 151 595 50 q 452 601 545 252 q 306 1174 359 951 q 194 640 274 1028 q 56 14 113 251 q 20 -14 50 -14 q -9 12 -9 -14 q 38 214 -9 20 q 178 863 85 408 q 276 1332 271 1318 m 794 1625 q 822 1559 822 1625 q 764 1470 822 1493 q 713 1461 743 1461 q 662 1473 684 1461 q 620 1500 640 1486 q 581 1528 600 1515 q 547 1540 563 1540 q 490 1490 514 1540 q 458 1474 477 1474 q 433 1497 433 1474 q 436 1512 433 1504 q 541 1607 484 1607 q 616 1580 572 1607 q 685 1542 661 1554 q 736 1531 710 1531 q 762 1536 762 1531 l 762 1544 l 755 1582 q 768 1612 755 1600 q 794 1625 780 1625 z "},"":{"ha":861,"x_min":41,"x_max":839,"o":"m 289 -31 q 41 410 41 -31 q 156 959 41 707 q 479 1234 280 1234 q 625 1178 557 1234 q 637 1150 637 1164 q 615 1117 637 1117 q 583 1131 610 1117 q 458 1165 522 1165 q 291 1056 374 1165 q 156 777 208 947 q 104 439 104 606 q 224 49 104 117 q 300 33 252 33 q 401 57 349 33 q 646 340 547 124 q 741 631 709 477 q 774 929 774 785 q 720 1183 774 1073 q 620 1278 682 1260 q 561 1291 589 1286 q 513 1303 532 1297 q 493 1324 493 1310 q 528 1354 493 1350 q 833 998 800 1354 q 839 868 839 938 q 799 560 839 719 q 684 266 758 401 q 508 50 610 131 q 289 -31 407 -31 m 439 1773 q 451 1804 439 1791 q 475 1817 463 1817 q 503 1793 499 1817 q 627 1571 518 1710 q 632 1551 632 1564 q 621 1526 632 1537 q 597 1514 610 1514 q 574 1524 585 1514 q 439 1773 461 1670 z "},"":{"ha":861,"x_min":41,"x_max":839,"o":"m 289 -31 q 41 410 41 -31 q 156 959 41 707 q 479 1234 280 1234 q 625 1178 557 1234 q 637 1150 637 1164 q 615 1117 637 1117 q 583 1131 610 1117 q 458 1165 522 1165 q 291 1056 374 1165 q 156 777 208 947 q 104 439 104 606 q 224 49 104 117 q 300 33 252 33 q 401 57 349 33 q 646 340 547 124 q 741 631 709 477 q 774 929 774 785 q 720 1183 774 1073 q 620 1278 682 1260 q 561 1291 589 1286 q 513 1303 532 1297 q 493 1324 493 1310 q 528 1354 493 1350 q 833 998 800 1354 q 839 868 839 938 q 799 560 839 719 q 684 266 758 401 q 508 50 610 131 q 289 -31 407 -31 m 605 1514 q 574 1546 574 1514 q 588 1576 574 1556 q 620 1627 603 1596 q 653 1690 637 1658 q 684 1754 669 1723 q 714 1817 699 1786 q 749 1838 730 1838 q 774 1814 774 1838 q 763 1784 774 1803 q 738 1732 753 1764 q 696 1645 723 1699 q 636 1548 670 1591 q 624 1524 634 1534 q 605 1514 614 1514 z "},"":{"ha":861,"x_min":41,"x_max":839,"o":"m 289 -31 q 41 410 41 -31 q 156 959 41 707 q 479 1234 280 1234 q 625 1178 557 1234 q 637 1150 637 1164 q 615 1117 637 1117 q 583 1131 610 1117 q 458 1165 522 1165 q 291 1056 374 1165 q 156 777 208 947 q 104 439 104 606 q 224 49 104 117 q 300 33 252 33 q 401 57 349 33 q 646 340 547 124 q 741 631 709 477 q 774 929 774 785 q 720 1183 774 1073 q 620 1278 682 1260 q 561 1291 589 1286 q 513 1303 532 1297 q 493 1324 493 1310 q 528 1354 493 1350 q 833 998 800 1354 q 839 868 839 938 q 799 560 839 719 q 684 266 758 401 q 508 50 610 131 q 289 -31 407 -31 m 655 1735 l 654 1718 q 686 1627 654 1686 q 758 1541 719 1569 q 764 1520 764 1533 q 752 1497 764 1508 q 725 1486 741 1486 q 657 1538 696 1486 q 598 1649 618 1590 q 589 1632 593 1640 q 481 1496 569 1593 q 458 1488 469 1488 q 433 1510 433 1488 q 483 1588 433 1532 q 547 1672 532 1644 q 575 1718 563 1699 q 630 1761 605 1761 q 655 1735 655 1761 z "},"":{"ha":861,"x_min":41,"x_max":839,"o":"m 289 -31 q 41 410 41 -31 q 156 959 41 707 q 479 1234 280 1234 q 625 1178 557 1234 q 637 1150 637 1164 q 615 1117 637 1117 q 583 1131 610 1117 q 458 1165 522 1165 q 291 1056 374 1165 q 156 777 208 947 q 104 439 104 606 q 224 49 104 117 q 300 33 252 33 q 401 57 349 33 q 646 340 547 124 q 741 631 709 477 q 774 929 774 785 q 720 1183 774 1073 q 620 1278 682 1260 q 561 1291 589 1286 q 513 1303 532 1297 q 493 1324 493 1310 q 528 1354 493 1350 q 833 998 800 1354 q 839 868 839 938 q 799 560 839 719 q 684 266 758 401 q 508 50 610 131 q 289 -31 407 -31 m 768 1706 q 795 1640 795 1706 q 738 1550 795 1574 q 687 1541 716 1541 q 635 1554 657 1541 q 593 1581 613 1567 q 555 1608 573 1596 q 521 1621 536 1621 q 464 1571 488 1621 q 432 1554 450 1554 q 407 1578 407 1554 q 410 1593 407 1585 q 515 1687 457 1687 q 590 1661 546 1687 q 659 1623 634 1635 q 710 1611 684 1611 q 736 1617 736 1611 l 736 1625 l 729 1663 q 741 1693 729 1681 q 768 1706 753 1706 z "},"":{"ha":861,"x_min":41,"x_max":839,"o":"m 289 -31 q 41 410 41 -31 q 156 959 41 707 q 479 1234 280 1234 q 625 1178 557 1234 q 637 1150 637 1164 q 615 1117 637 1117 q 583 1131 610 1117 q 458 1165 522 1165 q 291 1056 374 1165 q 156 777 208 947 q 104 439 104 606 q 224 49 104 117 q 300 33 252 33 q 401 57 349 33 q 646 340 547 124 q 741 631 709 477 q 774 929 774 785 q 720 1183 774 1073 q 620 1278 682 1260 q 561 1291 589 1286 q 513 1303 532 1297 q 493 1324 493 1310 q 528 1354 493 1350 q 833 998 800 1354 q 839 868 839 938 q 799 560 839 719 q 684 266 758 401 q 508 50 610 131 q 289 -31 407 -31 m 715 1558 q 682 1603 682 1569 q 700 1654 682 1636 q 752 1686 733 1686 q 795 1643 795 1686 q 774 1585 795 1613 q 726 1556 752 1556 q 715 1558 722 1556 m 507 1675 l 507 1676 q 529 1629 529 1650 q 498 1577 529 1607 q 450 1548 468 1548 q 421 1570 431 1548 q 411 1612 411 1593 q 416 1645 411 1631 q 430 1668 421 1658 q 449 1685 438 1678 q 475 1691 460 1691 q 507 1675 491 1691 z "},"":{"ha":505,"x_min":20,"x_max":503,"o":"m 256 507 q 454 660 364 602 q 476 664 465 664 q 495 655 487 664 q 503 631 503 646 q 488 602 503 616 q 286 452 416 556 q 364 336 334 367 q 412 295 395 306 q 429 271 429 283 q 417 250 429 259 q 393 240 406 240 q 376 243 381 240 q 268 365 318 283 q 240 412 254 389 q 56 273 79 279 q 42 272 50 272 q 26 279 33 272 q 20 301 20 286 q 41 334 20 317 q 210 468 105 378 q 169 531 190 500 q 134 599 148 563 l 134 604 q 145 635 134 622 q 167 648 157 648 q 186 633 176 648 q 209 597 197 618 q 233 551 220 575 q 256 507 245 526 z "},"":{"ha":861,"x_min":41,"x_max":839,"o":"m 707 1297 q 782 1419 734 1413 l 789 1419 q 809 1403 809 1419 q 789 1375 809 1387 q 766 1309 773 1350 q 755 1259 759 1267 q 752 1250 752 1251 q 839 884 839 1129 q 749 405 839 639 q 513 54 659 170 q 289 -31 407 -31 q 171 3 220 -31 l 144 -56 q 113 -75 134 -75 q 92 -58 92 -75 q 95 -47 92 -54 l 134 37 q 41 424 41 140 q 156 959 41 707 q 479 1234 280 1234 q 625 1178 557 1234 q 637 1150 637 1164 q 615 1117 637 1117 q 583 1131 610 1117 q 458 1165 522 1165 q 292 1056 374 1165 q 160 777 210 947 q 110 439 110 606 q 166 111 110 212 q 198 184 182 147 q 230 256 214 221 q 259 324 245 292 q 285 382 273 356 l 389 611 q 586 1015 492 838 q 690 1229 680 1192 q 626 1276 663 1265 q 561 1291 589 1286 q 513 1303 532 1297 q 493 1324 493 1310 q 528 1354 493 1350 q 707 1297 637 1354 m 200 67 q 293 33 237 33 q 493 123 401 33 q 647 351 585 212 q 741 643 709 490 q 774 934 774 795 q 722 1178 774 1074 q 622 977 705 1141 q 499 729 539 813 q 422 565 459 646 q 348 400 386 484 q 273 231 311 315 q 200 67 235 146 z "},"":{"ha":888,"x_min":68,"x_max":937,"o":"m 913 1335 q 937 1311 937 1335 q 922 1261 937 1297 q 897 1189 907 1225 q 870 1081 887 1152 q 836 928 854 1010 q 799 760 818 846 q 694 328 730 438 q 628 163 657 218 q 323 -14 534 -14 q 138 65 209 -14 q 68 253 68 144 q 79 334 68 300 q 124 590 103 468 q 179 902 144 711 q 275 1314 214 1093 q 305 1335 290 1335 q 335 1311 335 1335 q 331 1294 334 1303 q 325 1278 328 1286 l 298 1193 q 223 794 269 1048 q 152 416 177 541 q 126 239 126 292 q 178 104 126 159 q 323 50 229 50 q 544 140 471 50 q 602 243 584 189 l 632 330 q 750 805 678 471 q 864 1280 821 1139 q 886 1320 871 1305 q 913 1335 900 1335 m 464 1693 q 476 1723 464 1710 q 499 1736 488 1736 q 528 1712 524 1736 q 651 1490 543 1630 q 656 1470 656 1483 q 645 1445 656 1457 q 622 1433 634 1433 q 598 1443 609 1433 q 464 1693 486 1590 z "},"":{"ha":888,"x_min":68,"x_max":937,"o":"m 913 1335 q 937 1311 937 1335 q 922 1261 937 1297 q 897 1189 907 1225 q 870 1081 887 1152 q 836 928 854 1010 q 799 760 818 846 q 694 328 730 438 q 628 163 657 218 q 323 -14 534 -14 q 138 65 209 -14 q 68 253 68 144 q 79 334 68 300 q 124 590 103 468 q 179 902 144 711 q 275 1314 214 1093 q 305 1335 290 1335 q 335 1311 335 1335 q 331 1294 334 1303 q 325 1278 328 1286 l 298 1193 q 223 794 269 1048 q 152 416 177 541 q 126 239 126 292 q 178 104 126 159 q 323 50 229 50 q 544 140 471 50 q 602 243 584 189 l 632 330 q 750 805 678 471 q 864 1280 821 1139 q 886 1320 871 1305 q 913 1335 900 1335 m 630 1433 q 599 1465 599 1433 q 613 1495 599 1475 q 645 1547 628 1516 q 678 1610 663 1577 q 709 1674 694 1642 q 739 1736 724 1706 q 774 1757 755 1757 q 799 1733 799 1757 q 788 1703 799 1723 q 763 1651 778 1683 q 722 1565 748 1619 q 661 1467 695 1510 q 649 1443 659 1453 q 630 1433 639 1433 z "},"":{"ha":888,"x_min":68,"x_max":937,"o":"m 913 1335 q 937 1311 937 1335 q 922 1261 937 1297 q 897 1189 907 1225 q 870 1081 887 1152 q 836 928 854 1010 q 799 760 818 846 q 694 328 730 438 q 628 163 657 218 q 323 -14 534 -14 q 138 65 209 -14 q 68 253 68 144 q 79 334 68 300 q 124 590 103 468 q 179 902 144 711 q 275 1314 214 1093 q 305 1335 290 1335 q 335 1311 335 1335 q 331 1294 334 1303 q 325 1278 328 1286 l 298 1193 q 223 794 269 1048 q 152 416 177 541 q 126 239 126 292 q 178 104 126 159 q 323 50 229 50 q 544 140 471 50 q 602 243 584 189 l 632 330 q 750 805 678 471 q 864 1280 821 1139 q 886 1320 871 1305 q 913 1335 900 1335 m 680 1654 l 679 1637 q 711 1547 679 1605 q 783 1461 744 1488 q 789 1439 789 1452 q 777 1416 789 1427 q 750 1405 766 1405 q 682 1457 721 1405 q 623 1568 644 1510 q 614 1552 618 1560 q 507 1415 594 1512 q 483 1407 494 1407 q 458 1429 458 1407 q 508 1507 458 1451 q 572 1591 557 1563 q 600 1637 588 1619 q 655 1681 630 1681 q 680 1654 680 1681 z "},"":{"ha":888,"x_min":68,"x_max":937,"o":"m 913 1335 q 937 1311 937 1335 q 922 1261 937 1297 q 897 1189 907 1225 q 870 1081 887 1152 q 836 928 854 1010 q 799 760 818 846 q 694 328 730 438 q 628 163 657 218 q 323 -14 534 -14 q 138 65 209 -14 q 68 253 68 144 q 79 334 68 300 q 124 590 103 468 q 179 902 144 711 q 275 1314 214 1093 q 305 1335 290 1335 q 335 1311 335 1335 q 331 1294 334 1303 q 325 1278 328 1286 l 298 1193 q 223 794 269 1048 q 152 416 177 541 q 126 239 126 292 q 178 104 126 159 q 323 50 229 50 q 544 140 471 50 q 602 243 584 189 l 632 330 q 750 805 678 471 q 864 1280 821 1139 q 886 1320 871 1305 q 913 1335 900 1335 m 740 1477 q 707 1522 707 1489 q 725 1573 707 1556 q 777 1605 758 1605 q 821 1563 821 1605 q 799 1504 821 1533 q 751 1475 777 1475 q 740 1477 747 1475 m 532 1594 l 532 1596 q 554 1548 554 1569 q 524 1497 554 1527 q 475 1467 493 1467 q 446 1490 456 1467 q 436 1531 436 1512 q 441 1564 436 1550 q 455 1588 446 1577 q 474 1604 463 1598 q 500 1610 485 1610 q 532 1594 516 1610 z "},"":{"ha":597,"x_min":66,"x_max":774,"o":"m 117 -41 q 92 -53 112 -53 q 66 -28 66 -53 q 115 17 66 5 q 168 29 142 23 q 220 40 193 35 q 264 209 252 129 q 284 341 277 288 q 300 457 291 395 q 146 1067 240 534 q 110 1300 123 1204 q 120 1331 110 1318 q 146 1344 130 1344 q 176 1332 161 1344 q 182 1313 182 1324 q 175 1293 182 1302 q 192 1170 183 1235 q 332 528 252 725 q 433 781 363 597 q 569 1096 504 965 q 722 1332 635 1226 q 746 1343 731 1343 q 774 1320 774 1343 q 762 1292 774 1305 q 532 872 650 1171 q 449 656 500 791 q 374 472 398 520 q 328 260 353 391 q 283 50 304 129 q 353 54 319 54 q 488 17 488 54 q 474 -9 488 2 q 443 -21 460 -21 q 333 -9 400 -9 q 197 -26 265 -9 q 121 -43 129 -43 l 117 -43 l 117 -41 m 454 1433 q 422 1465 422 1433 q 437 1495 422 1475 q 469 1547 452 1516 q 502 1610 486 1577 q 532 1674 517 1642 q 563 1736 547 1706 q 597 1757 578 1757 q 623 1733 623 1757 q 612 1703 623 1723 q 587 1651 602 1683 q 545 1565 572 1619 q 485 1467 519 1510 q 473 1443 483 1453 q 454 1433 463 1433 z "},"":{"ha":872,"x_min":32,"x_max":897,"o":"m 396 1578 q 421 1556 421 1578 q 419 1543 421 1548 l 415 1528 q 399 1420 415 1480 q 374 1324 384 1361 q 358 1246 364 1286 q 583 1353 481 1353 q 867 1124 791 1353 q 897 916 897 1031 q 807 558 897 688 q 547 378 717 429 q 165 334 401 334 l 96 14 q 76 -13 90 -3 q 49 -24 61 -24 q 32 -5 32 -24 q 32 -1 32 -3 q 33 4 32 1 l 345 1499 q 350 1537 350 1520 q 365 1566 350 1553 q 396 1578 380 1578 m 178 396 q 480 420 384 396 q 637 479 576 444 q 836 903 836 590 q 707 1257 836 1179 q 577 1287 659 1287 q 395 1222 496 1287 q 346 1181 366 1202 l 178 396 z "},"":{"ha":665,"x_min":-100,"x_max":791,"o":"m 314 717 q 290 736 290 719 q 315 775 290 756 l 336 786 l 338 794 l 349 794 q 584 1010 454 865 q 692 1152 664 1099 q 721 1226 721 1205 q 708 1264 721 1247 q 676 1280 695 1280 q 330 914 473 1280 q 103 132 194 567 q 23 -275 60 -75 q -33 -583 -13 -475 q -54 -611 -39 -600 q -82 -623 -69 -623 q -100 -603 -100 -623 l -100 -598 q -85 -519 -100 -596 q -45 -291 -71 -441 q 7 -22 -19 -141 q 67 243 33 97 q 223 797 155 616 q 328 1054 291 978 q 693 1343 470 1343 q 791 1264 791 1343 q 672 1042 791 1198 q 424 783 553 886 q 563 683 519 758 q 606 530 606 607 q 452 64 606 207 q 248 -11 372 -11 q 174 8 206 -11 q 113 82 113 45 q 140 134 113 120 q 159 139 149 139 q 176 134 169 139 q 191 104 184 118 q 208 78 198 90 q 274 53 228 53 q 428 120 368 53 q 509 288 487 188 q 530 466 530 389 q 524 584 530 544 q 502 654 517 624 q 462 704 486 685 q 407 722 437 722 q 314 717 376 722 z "},"":{"ha":624,"x_min":22,"x_max":558,"o":"m 102 0 q 22 100 22 0 q 97 344 22 199 q 271 594 171 489 q 435 700 372 700 q 507 644 498 700 q 511 608 510 627 q 526 612 517 612 q 558 582 558 612 l 558 576 q 541 515 558 574 q 503 319 524 456 q 481 83 481 181 q 495 74 487 79 q 515 59 503 69 q 528 34 528 48 q 519 8 528 20 q 494 -3 510 -3 q 434 31 460 -3 q 407 104 407 65 q 453 396 407 189 q 304 163 395 275 q 177 26 212 52 q 102 0 142 0 m 92 97 q 113 72 92 72 q 138 82 127 72 q 389 416 278 203 q 456 557 452 538 q 460 588 460 575 q 453 612 460 601 q 434 624 446 624 q 398 611 422 624 q 270 490 346 583 q 142 288 193 397 q 92 97 92 178 m 302 1072 q 314 1103 302 1090 q 337 1116 326 1116 q 366 1092 361 1116 q 489 869 380 1009 q 494 849 494 863 q 483 824 494 836 q 459 812 472 812 q 436 823 447 812 q 302 1072 323 969 z "},"":{"ha":624,"x_min":22,"x_max":637,"o":"m 102 0 q 22 100 22 0 q 97 344 22 199 q 271 594 171 489 q 435 700 372 700 q 507 644 498 700 q 511 608 510 627 q 526 612 517 612 q 558 582 558 612 l 558 576 q 541 515 558 574 q 503 319 524 456 q 481 83 481 181 q 495 74 487 79 q 515 59 503 69 q 528 34 528 48 q 519 8 528 20 q 494 -3 510 -3 q 434 31 460 -3 q 407 104 407 65 q 453 396 407 189 q 304 163 395 275 q 177 26 212 52 q 102 0 142 0 m 92 97 q 113 72 92 72 q 138 82 127 72 q 389 416 278 203 q 456 557 452 538 q 460 588 460 575 q 453 612 460 601 q 434 624 446 624 q 398 611 422 624 q 270 490 346 583 q 142 288 193 397 q 92 97 92 178 m 469 812 q 437 844 437 812 q 452 875 437 854 q 484 926 467 895 q 517 989 501 957 q 547 1053 532 1021 q 578 1116 562 1085 q 612 1137 593 1137 q 637 1113 637 1137 q 627 1082 637 1102 q 602 1030 616 1063 q 560 944 587 998 q 500 846 534 890 q 488 823 498 833 q 469 812 477 812 z "},"":{"ha":624,"x_min":22,"x_max":628,"o":"m 102 0 q 22 100 22 0 q 97 344 22 199 q 271 594 171 489 q 435 700 372 700 q 507 644 498 700 q 511 608 510 627 q 526 612 517 612 q 558 582 558 612 l 558 576 q 541 515 558 574 q 503 319 524 456 q 481 83 481 181 q 495 74 487 79 q 515 59 503 69 q 528 34 528 48 q 519 8 528 20 q 494 -3 510 -3 q 434 31 460 -3 q 407 104 407 65 q 453 396 407 189 q 304 163 395 275 q 177 26 212 52 q 102 0 142 0 m 92 97 q 113 72 92 72 q 138 82 127 72 q 389 416 278 203 q 456 557 452 538 q 460 588 460 575 q 453 612 460 601 q 434 624 446 624 q 398 611 422 624 q 270 490 346 583 q 142 288 193 397 q 92 97 92 178 m 519 1034 l 518 1017 q 551 926 518 985 q 623 840 583 867 q 628 819 628 831 q 616 795 628 806 q 589 785 605 785 q 522 837 560 785 q 463 947 483 889 q 453 931 457 939 q 346 795 433 892 q 322 787 334 787 q 298 809 298 787 q 347 887 298 831 q 412 970 396 943 q 439 1017 427 998 q 494 1060 469 1060 q 519 1034 519 1060 z "},"":{"ha":624,"x_min":22,"x_max":660,"o":"m 102 0 q 22 100 22 0 q 97 344 22 199 q 271 594 171 489 q 435 700 372 700 q 507 644 498 700 q 511 608 510 627 q 526 612 517 612 q 558 582 558 612 l 558 576 q 541 515 558 574 q 503 319 524 456 q 481 83 481 181 q 495 74 487 79 q 515 59 503 69 q 528 34 528 48 q 519 8 528 20 q 494 -3 510 -3 q 434 31 460 -3 q 407 104 407 65 q 453 396 407 189 q 304 163 395 275 q 177 26 212 52 q 102 0 142 0 m 92 97 q 113 72 92 72 q 138 82 127 72 q 389 416 278 203 q 456 557 452 538 q 460 588 460 575 q 453 612 460 601 q 434 624 446 624 q 398 611 422 624 q 270 490 346 583 q 142 288 193 397 q 92 97 92 178 m 632 1004 q 660 939 660 1004 q 602 849 660 873 q 551 840 581 840 q 499 853 522 840 q 457 880 477 865 q 419 907 437 895 q 385 920 401 920 q 328 869 352 920 q 296 853 315 853 q 271 877 271 853 q 274 892 271 884 q 379 986 321 986 q 454 960 410 986 q 523 922 498 934 q 574 910 548 910 q 600 916 600 910 l 600 924 l 593 962 q 606 992 593 979 q 632 1004 618 1004 z "},"":{"ha":624,"x_min":22,"x_max":659,"o":"m 102 0 q 22 100 22 0 q 97 344 22 199 q 271 594 171 489 q 435 700 372 700 q 507 644 498 700 q 511 608 510 627 q 526 612 517 612 q 558 582 558 612 l 558 576 q 541 515 558 574 q 503 319 524 456 q 481 83 481 181 q 495 74 487 79 q 515 59 503 69 q 528 34 528 48 q 519 8 528 20 q 494 -3 510 -3 q 434 31 460 -3 q 407 104 407 65 q 453 396 407 189 q 304 163 395 275 q 177 26 212 52 q 102 0 142 0 m 92 97 q 113 72 92 72 q 138 82 127 72 q 389 416 278 203 q 456 557 452 538 q 460 588 460 575 q 453 612 460 601 q 434 624 446 624 q 398 611 422 624 q 270 490 346 583 q 142 288 193 397 q 92 97 92 178 m 578 857 q 545 902 545 868 q 563 953 545 935 q 615 985 596 985 q 659 942 659 985 q 637 883 659 912 q 589 854 615 854 q 578 857 585 854 m 370 974 l 370 975 q 392 927 392 949 q 361 876 392 906 q 313 846 331 846 q 284 869 294 846 q 274 911 274 892 q 279 943 274 930 q 293 967 284 957 q 312 983 301 977 q 338 989 323 989 q 370 974 354 989 z "},"":{"ha":624,"x_min":22,"x_max":572,"o":"m 102 0 q 22 100 22 0 q 97 344 22 199 q 271 594 171 489 q 435 700 372 700 q 507 644 498 700 q 511 608 510 627 q 526 612 517 612 q 558 582 558 612 l 558 576 q 541 515 558 574 q 503 319 524 456 q 481 83 481 181 q 495 74 487 79 q 515 59 503 69 q 528 34 528 48 q 519 8 528 20 q 494 -3 510 -3 q 434 31 460 -3 q 407 104 407 65 q 453 396 407 189 q 304 163 395 275 q 177 26 212 52 q 102 0 142 0 m 92 97 q 113 72 92 72 q 138 82 127 72 q 389 416 278 203 q 456 557 452 538 q 460 588 460 575 q 453 612 460 601 q 434 624 446 624 q 398 611 422 624 q 270 490 346 583 q 142 288 193 397 q 92 97 92 178 m 464 1015 q 479 1020 469 1020 q 497 1014 490 1020 q 572 892 572 961 q 540 816 572 848 q 460 785 509 785 q 345 837 382 785 q 330 883 330 857 q 338 933 330 909 q 360 977 346 957 q 394 1009 374 996 q 432 1021 414 1021 q 464 1015 450 1021 m 467 845 q 507 886 507 845 q 475 941 507 909 l 467 941 q 445 947 455 941 q 423 954 435 954 q 404 940 412 954 q 395 902 395 926 q 420 861 395 878 q 467 845 445 845 z "},"":{"ha":760,"x_min":22,"x_max":742,"o":"m 509 635 q 652 710 579 710 q 718 675 694 710 q 742 593 742 640 q 695 443 742 505 q 581 341 649 380 q 425 267 513 302 l 422 167 q 493 50 422 50 q 573 72 532 50 q 632 104 614 94 q 661 114 651 114 q 685 89 685 114 q 614 23 685 60 q 495 -14 543 -14 q 424 2 448 -14 q 355 195 355 47 q 357 233 355 214 q 212 56 287 134 q 110 0 158 0 q 42 25 62 0 q 22 99 22 51 q 97 345 22 200 q 271 594 171 489 q 439 700 372 700 q 503 661 489 700 q 509 635 507 650 m 92 97 q 113 72 92 72 q 138 82 127 72 q 394 427 279 205 q 458 567 421 507 q 460 589 460 576 q 453 612 460 601 q 434 624 446 624 q 398 611 422 624 q 270 490 346 583 q 142 288 193 397 q 92 97 92 178 m 634 644 q 555 593 598 644 q 558 579 558 585 q 557 571 558 572 q 499 508 521 533 q 436 334 448 405 q 519 376 477 355 q 597 424 562 396 q 655 491 633 452 q 677 587 677 530 q 634 644 677 644 z "},"":{"ha":471,"x_min":41,"x_max":471,"o":"m 160 -184 q 135 -162 135 -184 q 153 -119 135 -140 q 179 -66 167 -94 q 205 -15 191 -39 q 167 -17 191 -17 q 78 35 115 -17 q 41 152 41 87 q 86 404 41 273 q 205 622 132 534 q 361 710 279 710 q 439 667 420 710 q 451 638 444 656 q 465 615 457 620 q 471 594 471 606 q 459 570 471 581 q 433 559 448 559 q 396 603 404 559 q 351 646 388 646 q 242 566 298 646 q 148 374 186 487 q 110 175 110 260 q 200 52 110 52 q 284 95 245 52 q 312 125 299 112 q 338 139 325 139 q 366 115 366 139 q 313 31 366 73 q 276 6 297 17 l 277 1 q 268 -22 277 -9 q 241 -77 260 -35 q 346 -131 298 -79 q 393 -239 393 -182 q 347 -348 393 -295 q 214 -400 300 -400 q 144 -389 178 -400 q 78 -342 78 -367 q 90 -317 78 -328 q 117 -306 101 -306 l 127 -307 q 226 -336 185 -336 q 297 -311 267 -336 q 328 -255 328 -286 q 308 -195 328 -223 q 229 -139 269 -139 q 192 -168 206 -139 l 189 -167 q 160 -184 173 -184 z "},"":{"ha":450,"x_min":46,"x_max":432,"o":"m 351 114 q 375 89 375 114 q 304 23 375 60 q 185 -14 233 -14 q 114 2 138 -14 q 75 45 90 18 q 46 176 46 100 q 87 432 46 312 q 195 631 127 552 q 342 710 263 710 q 408 675 384 710 q 432 593 432 640 q 386 442 432 504 q 271 341 339 380 q 115 267 203 302 l 113 167 q 183 50 113 50 q 263 72 221 50 q 323 104 304 94 q 351 114 341 114 m 368 590 q 323 644 368 644 q 227 571 282 644 q 136 378 172 498 q 126 334 127 349 q 182 362 153 349 q 237 391 210 376 q 334 472 300 425 q 368 590 368 518 m 213 1072 q 225 1103 213 1090 q 248 1116 237 1116 q 277 1092 273 1116 q 400 869 292 1009 q 406 849 406 863 q 394 824 406 836 q 371 812 383 812 q 347 823 358 812 q 213 1072 235 969 z "},"":{"ha":450,"x_min":46,"x_max":549,"o":"m 351 114 q 375 89 375 114 q 304 23 375 60 q 185 -14 233 -14 q 114 2 138 -14 q 75 45 90 18 q 46 176 46 100 q 87 432 46 312 q 195 631 127 552 q 342 710 263 710 q 408 675 384 710 q 432 593 432 640 q 386 442 432 504 q 271 341 339 380 q 115 267 203 302 l 113 167 q 183 50 113 50 q 263 72 221 50 q 323 104 304 94 q 351 114 341 114 m 368 590 q 323 644 368 644 q 227 571 282 644 q 136 378 172 498 q 126 334 127 349 q 182 362 153 349 q 237 391 210 376 q 334 472 300 425 q 368 590 368 518 m 380 812 q 349 844 349 812 q 363 875 349 854 q 395 926 378 895 q 428 989 412 957 q 458 1053 444 1021 q 489 1116 473 1085 q 524 1137 505 1137 q 549 1113 549 1137 q 538 1082 549 1102 q 513 1030 528 1063 q 471 944 498 998 q 411 846 445 890 q 399 823 409 833 q 380 812 389 812 z "},"":{"ha":450,"x_min":46,"x_max":539,"o":"m 351 114 q 375 89 375 114 q 304 23 375 60 q 185 -14 233 -14 q 114 2 138 -14 q 75 45 90 18 q 46 176 46 100 q 87 432 46 312 q 195 631 127 552 q 342 710 263 710 q 408 675 384 710 q 432 593 432 640 q 386 442 432 504 q 271 341 339 380 q 115 267 203 302 l 113 167 q 183 50 113 50 q 263 72 221 50 q 323 104 304 94 q 351 114 341 114 m 368 590 q 323 644 368 644 q 227 571 282 644 q 136 378 172 498 q 126 334 127 349 q 182 362 153 349 q 237 391 210 376 q 334 472 300 425 q 368 590 368 518 m 431 1034 l 429 1017 q 462 926 429 985 q 534 840 494 867 q 539 819 539 831 q 528 795 539 806 q 500 785 516 785 q 433 837 471 785 q 374 947 394 889 q 364 931 368 939 q 257 795 345 892 q 233 787 245 787 q 209 809 209 787 q 258 887 209 831 q 323 970 307 943 q 351 1017 338 998 q 406 1060 380 1060 q 431 1034 431 1060 z "},"":{"ha":450,"x_min":46,"x_max":571,"o":"m 351 114 q 375 89 375 114 q 304 23 375 60 q 185 -14 233 -14 q 114 2 138 -14 q 75 45 90 18 q 46 176 46 100 q 87 432 46 312 q 195 631 127 552 q 342 710 263 710 q 408 675 384 710 q 432 593 432 640 q 386 442 432 504 q 271 341 339 380 q 115 267 203 302 l 113 167 q 183 50 113 50 q 263 72 221 50 q 323 104 304 94 q 351 114 341 114 m 368 590 q 323 644 368 644 q 227 571 282 644 q 136 378 172 498 q 126 334 127 349 q 182 362 153 349 q 237 391 210 376 q 334 472 300 425 q 368 590 368 518 m 490 857 q 457 902 457 868 q 475 953 457 935 q 528 985 509 985 q 571 942 571 985 q 549 883 571 912 q 502 854 528 854 q 490 857 497 854 m 282 974 l 282 975 q 304 927 304 949 q 274 876 304 906 q 225 846 243 846 q 197 869 207 846 q 186 911 186 892 q 192 943 186 930 q 205 967 197 957 q 224 983 214 977 q 251 989 235 989 q 282 974 267 989 z "},"":{"ha":330,"x_min":43,"x_max":237,"o":"m 44 1072 q 56 1103 44 1090 q 79 1116 68 1116 q 108 1092 104 1116 q 231 869 123 1009 q 237 849 237 863 q 225 824 237 836 q 202 812 214 812 q 178 823 189 812 q 44 1072 66 969 m 164 616 l 164 630 q 154 676 164 640 q 165 707 154 693 q 194 721 177 721 q 221 700 210 721 q 232 654 232 679 q 168 354 232 629 q 104 65 104 79 q 118 50 104 50 q 143 67 127 50 q 171 85 159 85 q 193 57 193 85 q 151 7 193 28 q 90 -14 109 -14 q 43 62 43 -14 q 49 97 43 78 q 63 151 56 117 q 83 244 70 185 q 110 366 96 303 q 144 519 124 429 q 164 616 164 609 z "},"":{"ha":330,"x_min":43,"x_max":436,"o":"m 267 779 q 236 810 236 779 q 251 841 236 821 q 282 892 265 861 q 315 955 300 923 q 346 1019 331 987 q 376 1082 361 1051 q 411 1103 392 1103 q 436 1079 436 1103 q 426 1048 436 1068 q 400 997 415 1029 q 359 910 385 964 q 298 812 332 856 q 286 789 296 799 q 267 779 276 779 m 164 616 l 164 630 q 154 676 164 640 q 165 707 154 693 q 194 721 177 721 q 221 700 210 721 q 232 654 232 679 q 168 354 232 629 q 104 65 104 79 q 118 50 104 50 q 143 67 127 50 q 171 85 159 85 q 193 57 193 85 q 151 7 193 28 q 90 -14 109 -14 q 43 62 43 -14 q 49 97 43 78 q 63 151 56 117 q 83 244 70 185 q 110 366 96 303 q 144 519 124 429 q 164 616 164 609 z "},"":{"ha":330,"x_min":43,"x_max":415,"o":"m 307 1036 l 305 1019 q 338 929 305 987 q 410 843 370 870 q 415 822 415 834 q 404 798 415 809 q 376 787 392 787 q 309 840 347 787 q 250 950 270 892 q 240 934 244 942 q 133 798 220 895 q 109 789 121 789 q 85 811 85 789 q 134 889 85 833 q 199 973 183 945 q 227 1019 214 1001 q 281 1063 256 1063 q 307 1036 307 1063 m 164 616 l 164 630 q 154 676 164 640 q 165 707 154 693 q 194 721 177 721 q 221 700 210 721 q 232 654 232 679 q 168 354 232 629 q 104 65 104 79 q 118 50 104 50 q 143 67 127 50 q 171 85 159 85 q 193 57 193 85 q 151 7 193 28 q 90 -14 109 -14 q 43 62 43 -14 q 49 97 43 78 q 63 151 56 117 q 83 244 70 185 q 110 366 96 303 q 144 519 124 429 q 164 616 164 609 z "},"":{"ha":330,"x_min":39,"x_max":424,"o":"m 164 616 l 164 630 q 154 676 164 640 q 165 707 154 693 q 194 721 177 721 q 221 700 210 721 q 232 654 232 679 q 168 354 232 629 q 104 65 104 79 q 118 50 104 50 q 143 67 127 50 q 171 85 159 85 q 193 57 193 85 q 151 7 193 28 q 90 -14 109 -14 q 43 62 43 -14 q 49 97 43 78 q 63 151 56 117 q 83 244 70 185 q 110 366 96 303 q 144 519 124 429 q 164 616 164 609 m 343 821 q 310 866 310 832 q 328 917 310 899 q 380 949 361 949 q 424 906 424 949 q 402 847 424 876 q 355 819 380 819 q 343 821 350 819 m 135 938 l 135 939 q 157 891 157 913 q 127 840 157 870 q 78 810 96 810 q 50 833 60 810 q 39 875 39 856 q 44 907 39 894 q 58 931 50 921 q 77 947 66 941 q 104 954 88 954 q 135 938 119 954 z "},"":{"ha":604,"x_min":49,"x_max":639,"o":"m 388 633 q 345 643 373 643 q 286 618 317 643 q 216 534 255 593 q 144 364 177 475 q 111 176 111 252 q 155 66 111 99 q 193 56 169 56 q 295 135 241 56 q 390 322 348 214 q 432 518 432 431 q 388 633 432 605 m 614 1137 q 639 1109 639 1137 q 610 1068 639 1080 l 534 1034 q 571 840 571 949 q 557 736 571 800 q 538 638 544 673 q 512 511 532 604 q 449 296 492 418 q 334 81 406 174 q 169 -12 263 -12 q 75 54 106 -12 q 49 161 49 106 q 126 512 49 371 q 192 611 163 579 q 264 672 220 643 q 372 701 308 701 q 465 639 437 701 l 490 736 q 506 867 506 799 q 476 1003 506 935 l 346 935 l 338 933 q 313 959 313 933 q 330 1000 313 985 q 449 1053 401 1026 q 231 1218 377 1160 q 208 1246 208 1227 q 220 1271 208 1265 q 242 1278 233 1278 q 263 1272 252 1278 q 318 1244 274 1265 q 414 1181 361 1222 q 504 1088 467 1141 q 570 1120 530 1102 q 614 1137 610 1137 z "},"":{"ha":619,"x_min":56,"x_max":597,"o":"m 473 549 q 437 616 473 616 q 250 336 388 616 q 163 145 188 210 q 126 54 138 80 q 102 14 114 27 q 76 0 90 0 q 58 7 61 0 q 56 33 56 14 q 110 353 56 52 q 173 670 165 654 q 189 690 182 686 q 213 694 195 694 q 240 681 231 694 q 250 657 250 667 q 248 636 250 646 q 233 591 243 618 q 171 328 201 498 l 157 245 q 192 324 172 278 q 250 455 212 370 q 336 608 289 541 q 450 696 397 696 q 543 546 543 696 q 527 406 543 490 q 492 222 511 321 q 471 57 473 122 l 463 20 q 458 -2 463 5 q 432 -8 454 -8 q 400 0 410 -8 q 393 29 390 8 l 461 435 q 473 549 473 510 m 569 1004 q 597 939 597 1004 q 539 849 597 873 q 488 840 517 840 q 436 853 458 840 q 394 880 414 865 q 356 907 374 895 q 322 920 338 920 q 265 869 289 920 q 233 853 252 853 q 208 877 208 853 q 211 892 208 884 q 316 986 258 986 q 391 960 347 986 q 460 922 435 934 q 511 910 485 910 q 537 916 537 910 l 537 924 l 530 962 q 543 992 530 979 q 569 1004 555 1004 z "},"":{"ha":529,"x_min":41,"x_max":488,"o":"m 359 701 q 488 507 488 701 q 404 182 488 356 q 269 14 348 66 q 184 -12 228 -12 q 75 49 108 -12 q 41 180 41 110 q 84 425 41 307 q 199 623 126 544 q 359 701 272 701 m 178 477 q 104 191 104 330 q 158 60 104 94 q 195 50 174 50 q 292 125 239 50 q 382 311 346 201 q 419 500 419 421 q 410 600 419 579 q 389 629 401 621 q 350 637 377 637 q 290 616 322 637 q 178 477 227 575 m 233 1072 q 245 1103 233 1090 q 269 1116 257 1116 q 297 1092 293 1116 q 420 869 312 1009 q 426 849 426 863 q 415 824 426 836 q 391 812 404 812 q 368 823 378 812 q 233 1072 255 969 z "},"":{"ha":529,"x_min":41,"x_max":570,"o":"m 359 701 q 488 507 488 701 q 404 182 488 356 q 269 14 348 66 q 184 -12 228 -12 q 75 49 108 -12 q 41 180 41 110 q 84 425 41 307 q 199 623 126 544 q 359 701 272 701 m 178 477 q 104 191 104 330 q 158 60 104 94 q 195 50 174 50 q 292 125 239 50 q 382 311 346 201 q 419 500 419 421 q 410 600 419 579 q 389 629 401 621 q 350 637 377 637 q 290 616 322 637 q 178 477 227 575 m 401 812 q 370 844 370 812 q 384 875 370 854 q 416 926 399 895 q 449 989 433 957 q 479 1053 465 1021 q 510 1116 494 1085 q 545 1137 526 1137 q 570 1113 570 1137 q 559 1082 570 1102 q 534 1030 549 1063 q 492 944 519 998 q 432 846 466 890 q 420 823 430 833 q 401 812 410 812 z "},"":{"ha":529,"x_min":41,"x_max":559,"o":"m 359 701 q 488 507 488 701 q 404 182 488 356 q 269 14 348 66 q 184 -12 228 -12 q 75 49 108 -12 q 41 180 41 110 q 84 425 41 307 q 199 623 126 544 q 359 701 272 701 m 178 477 q 104 191 104 330 q 158 60 104 94 q 195 50 174 50 q 292 125 239 50 q 382 311 346 201 q 419 500 419 421 q 410 600 419 579 q 389 629 401 621 q 350 637 377 637 q 290 616 322 637 q 178 477 227 575 m 451 1034 l 450 1017 q 482 926 450 985 q 554 840 515 867 q 559 819 559 831 q 548 795 559 806 q 521 785 536 785 q 453 837 492 785 q 394 947 414 889 q 385 931 389 939 q 277 795 365 892 q 254 787 265 787 q 229 809 229 787 q 278 887 229 831 q 343 970 328 943 q 371 1017 359 998 q 426 1060 401 1060 q 451 1034 451 1060 z "},"":{"ha":529,"x_min":41,"x_max":591,"o":"m 359 701 q 488 507 488 701 q 404 182 488 356 q 269 14 348 66 q 184 -12 228 -12 q 75 49 108 -12 q 41 180 41 110 q 84 425 41 307 q 199 623 126 544 q 359 701 272 701 m 178 477 q 104 191 104 330 q 158 60 104 94 q 195 50 174 50 q 292 125 239 50 q 382 311 346 201 q 419 500 419 421 q 410 600 419 579 q 389 629 401 621 q 350 637 377 637 q 290 616 322 637 q 178 477 227 575 m 564 1004 q 591 939 591 1004 q 534 849 591 873 q 483 840 512 840 q 431 853 453 840 q 389 880 409 865 q 351 907 369 895 q 317 920 332 920 q 260 869 283 920 q 228 853 246 853 q 203 877 203 853 q 205 892 203 884 q 311 986 253 986 q 386 960 342 986 q 455 922 430 934 q 506 910 479 910 q 532 916 532 910 l 532 924 l 525 962 q 537 992 525 979 q 564 1004 549 1004 z "},"":{"ha":529,"x_min":41,"x_max":591,"o":"m 359 701 q 488 507 488 701 q 404 182 488 356 q 269 14 348 66 q 184 -12 228 -12 q 75 49 108 -12 q 41 180 41 110 q 84 425 41 307 q 199 623 126 544 q 359 701 272 701 m 178 477 q 104 191 104 330 q 158 60 104 94 q 195 50 174 50 q 292 125 239 50 q 382 311 346 201 q 419 500 419 421 q 410 600 419 579 q 389 629 401 621 q 350 637 377 637 q 290 616 322 637 q 178 477 227 575 m 511 857 q 477 902 477 868 q 496 953 477 935 q 548 985 529 985 q 591 942 591 985 q 570 883 591 912 q 522 854 548 854 q 511 857 517 854 m 302 974 l 302 975 q 325 927 325 949 q 294 876 325 906 q 245 846 264 846 q 217 869 227 846 q 207 911 207 892 q 212 943 207 930 q 225 967 217 957 q 245 983 234 977 q 271 989 256 989 q 302 974 287 989 z "},"":{"ha":608,"x_min":41,"x_max":572,"o":"m 530 407 l 66 415 q 41 433 41 418 q 72 473 41 456 q 90 479 81 477 q 323 475 208 478 q 554 471 438 472 q 572 453 572 467 q 559 426 572 439 q 530 407 546 412 m 313 632 q 258 677 258 632 q 290 754 258 716 q 349 793 322 793 q 398 774 376 793 q 419 734 419 756 q 408 695 419 713 q 369 655 397 677 q 313 632 340 632 m 174 144 q 147 222 147 144 q 170 268 147 248 q 221 288 193 288 q 274 270 249 288 q 298 230 298 252 q 281 187 298 208 q 193 139 244 144 q 175 144 178 141 l 174 144 z "},"":{"ha":525,"x_min":36,"x_max":482,"o":"m 414 687 q 482 503 482 650 q 399 182 482 356 q 263 14 342 66 q 189 -12 222 -12 q 140 -7 155 -12 q 102 -41 120 -41 q 83 -22 83 -41 q 94 18 82 -11 q 36 199 36 71 q 126 530 36 370 q 267 679 184 635 q 354 701 308 701 q 363 701 360 701 q 385 714 373 712 l 393 714 q 415 694 415 714 q 414 687 415 690 m 300 395 q 235 234 273 334 q 187 106 196 134 q 168 53 178 79 q 193 50 176 50 q 237 71 211 50 q 377 311 319 138 q 414 511 414 421 q 389 624 414 601 q 367 547 378 574 q 345 496 355 519 l 300 395 m 338 636 q 216 548 273 627 q 107 278 136 441 q 98 179 98 231 q 124 89 98 127 q 143 134 132 104 l 227 349 q 265 439 245 397 q 293 501 285 481 q 310 545 301 521 q 325 588 319 569 q 333 616 331 607 q 338 636 335 625 z "},"":{"ha":590,"x_min":56,"x_max":555,"o":"m 406 -33 q 364 78 364 -33 q 378 225 364 150 q 407 372 392 300 q 359 280 382 328 q 320 204 337 233 q 293 156 303 176 q 131 -11 205 -11 q 56 138 56 -11 q 116 570 56 328 l 137 654 q 180 700 150 700 q 204 676 198 700 q 193 636 202 654 q 180 595 184 618 q 121 184 121 294 l 119 119 q 138 64 119 64 q 317 313 191 64 q 366 409 337 351 q 410 497 394 467 q 439 555 427 527 q 532 672 493 672 q 555 646 555 672 q 529 560 555 620 q 486 438 503 500 q 425 74 437 264 l 425 66 q 434 36 425 46 q 446 22 442 26 q 450 4 450 18 q 434 -22 450 -10 q 406 -33 418 -33 m 220 1072 q 232 1103 220 1090 q 255 1116 243 1116 q 283 1092 279 1116 q 407 869 298 1009 q 412 849 412 863 q 401 824 412 836 q 377 812 390 812 q 354 823 365 812 q 220 1072 241 969 z "},"":{"ha":590,"x_min":56,"x_max":555,"o":"m 406 -33 q 364 78 364 -33 q 378 225 364 150 q 407 372 392 300 q 359 280 382 328 q 320 204 337 233 q 293 156 303 176 q 131 -11 205 -11 q 56 138 56 -11 q 116 570 56 328 l 137 654 q 180 700 150 700 q 204 676 198 700 q 193 636 202 654 q 180 595 184 618 q 121 184 121 294 l 119 119 q 138 64 119 64 q 317 313 191 64 q 366 409 337 351 q 410 497 394 467 q 439 555 427 527 q 532 672 493 672 q 555 646 555 672 q 529 560 555 620 q 486 438 503 500 q 425 74 437 264 l 425 66 q 434 36 425 46 q 446 22 442 26 q 450 4 450 18 q 434 -22 450 -10 q 406 -33 418 -33 m 387 812 q 355 844 355 812 q 370 875 355 854 q 402 926 385 895 q 435 989 419 957 q 465 1053 450 1021 q 496 1116 480 1085 q 530 1137 511 1137 q 555 1113 555 1137 q 545 1082 555 1102 q 519 1030 534 1063 q 478 944 505 998 q 418 846 452 890 q 406 823 416 833 q 387 812 395 812 z "},"":{"ha":590,"x_min":56,"x_max":555,"o":"m 406 -33 q 364 78 364 -33 q 378 225 364 150 q 407 372 392 300 q 359 280 382 328 q 320 204 337 233 q 293 156 303 176 q 131 -11 205 -11 q 56 138 56 -11 q 116 570 56 328 l 137 654 q 180 700 150 700 q 204 676 198 700 q 193 636 202 654 q 180 595 184 618 q 121 184 121 294 l 119 119 q 138 64 119 64 q 317 313 191 64 q 366 409 337 351 q 410 497 394 467 q 439 555 427 527 q 532 672 493 672 q 555 646 555 672 q 529 560 555 620 q 486 438 503 500 q 425 74 437 264 l 425 66 q 434 36 425 46 q 446 22 442 26 q 450 4 450 18 q 434 -22 450 -10 q 406 -33 418 -33 m 437 1034 l 436 1017 q 469 926 436 985 q 541 840 501 867 q 546 819 546 831 q 534 795 546 806 q 507 785 523 785 q 439 837 478 785 q 380 947 401 889 q 371 931 375 939 q 264 795 351 892 q 240 787 252 787 q 216 809 216 787 q 265 887 216 831 q 330 970 314 943 q 357 1017 345 998 q 412 1060 387 1060 q 437 1034 437 1060 z "},"":{"ha":590,"x_min":56,"x_max":578,"o":"m 406 -33 q 364 78 364 -33 q 378 225 364 150 q 407 372 392 300 q 359 280 382 328 q 320 204 337 233 q 293 156 303 176 q 131 -11 205 -11 q 56 138 56 -11 q 116 570 56 328 l 137 654 q 180 700 150 700 q 204 676 198 700 q 193 636 202 654 q 180 595 184 618 q 121 184 121 294 l 119 119 q 138 64 119 64 q 317 313 191 64 q 366 409 337 351 q 410 497 394 467 q 439 555 427 527 q 532 672 493 672 q 555 646 555 672 q 529 560 555 620 q 486 438 503 500 q 425 74 437 264 l 425 66 q 434 36 425 46 q 446 22 442 26 q 450 4 450 18 q 434 -22 450 -10 q 406 -33 418 -33 m 497 857 q 464 902 464 868 q 482 953 464 935 q 534 985 515 985 q 578 942 578 985 q 556 883 578 912 q 509 854 534 854 q 497 857 504 854 m 289 974 l 289 975 q 311 927 311 949 q 281 876 311 906 q 232 846 250 846 q 203 869 214 846 q 193 911 193 892 q 198 943 193 930 q 212 967 203 957 q 231 983 220 977 q 258 989 242 989 q 289 974 273 989 z "},"":{"ha":583,"x_min":-43,"x_max":541,"o":"m 455 607 q 462 637 455 607 q 481 685 470 668 q 515 701 493 701 q 538 685 538 701 q 477 401 538 669 q 395 35 416 134 q 443 79 422 58 q 480 115 464 100 q 509 129 496 129 q 534 106 534 129 q 524 78 534 92 q 379 -41 448 10 q 268 -464 321 -362 q 231 -517 254 -492 q 105 -579 176 -579 q -4 -527 35 -579 q -43 -426 -43 -475 q -31 -341 -43 -377 q 3 -275 -18 -305 q 52 -220 24 -245 q 113 -171 81 -195 q 181 -124 146 -147 q 250 -75 216 -101 l 318 -24 q 370 149 326 6 q 421 318 414 291 q 278 53 363 148 q 170 -11 221 -11 q 85 31 118 -11 q 52 147 52 72 q 118 515 52 264 q 151 650 151 640 q 154 677 149 670 q 200 704 174 704 q 227 677 227 704 q 175 443 227 652 q 123 163 123 234 q 141 74 123 92 q 183 56 158 56 q 296 144 237 56 q 397 389 355 233 q 455 607 439 545 m 301 -104 q 196 -181 245 -147 q 109 -249 146 -215 q 28 -412 28 -322 q 65 -500 28 -469 q 107 -513 81 -513 q 155 -495 133 -513 q 195 -450 177 -477 q 226 -387 212 -422 q 251 -316 240 -351 q 270 -249 262 -281 q 283 -195 277 -216 l 301 -104 m 372 812 q 340 844 340 812 q 355 875 340 854 q 387 926 370 895 q 420 989 404 957 q 450 1053 435 1021 q 481 1116 465 1085 q 515 1137 496 1137 q 541 1113 541 1137 q 530 1082 541 1102 q 505 1030 519 1063 q 463 944 490 998 q 403 846 437 890 q 391 823 401 833 q 372 812 380 812 z "},"":{"ha":582,"x_min":-60,"x_max":550,"o":"m 163 187 q 262 39 182 39 q 387 121 319 39 q 458 279 431 172 q 486 453 486 385 q 471 561 486 522 q 438 620 455 601 q 396 639 420 639 q 268 537 330 639 q 192 351 207 435 l 174 257 l 174 253 q 163 187 174 218 m -33 -575 q -60 -545 -60 -575 q -36 -389 -60 -494 q -8 -259 -13 -283 q 0 -222 -3 -235 l 268 1069 q 282 1096 275 1088 q 305 1103 289 1103 q 334 1065 334 1103 q 319 998 330 1050 q 299 905 308 947 q 281 821 290 864 q 253 685 273 778 q 231 576 233 591 q 407 707 312 707 q 509 632 469 707 q 550 496 550 557 q 517 258 550 375 q 422 66 485 140 q 244 -22 348 -22 q 129 50 165 -22 q 4 -542 63 -231 q -22 -572 0 -562 q -33 -575 -28 -575 z "},"":{"ha":583,"x_min":-43,"x_max":562,"o":"m 455 607 q 462 637 455 607 q 481 685 470 668 q 515 701 493 701 q 538 685 538 701 q 477 401 538 669 q 395 35 416 134 q 443 79 422 58 q 480 115 464 100 q 509 129 496 129 q 534 106 534 129 q 524 78 534 92 q 379 -41 448 10 q 268 -464 321 -362 q 231 -517 254 -492 q 105 -579 176 -579 q -4 -527 35 -579 q -43 -426 -43 -475 q -31 -341 -43 -377 q 3 -275 -18 -305 q 52 -220 24 -245 q 113 -171 81 -195 q 181 -124 146 -147 q 250 -75 216 -101 l 318 -24 q 370 149 326 6 q 421 318 414 291 q 278 53 363 148 q 170 -11 221 -11 q 85 31 118 -11 q 52 147 52 72 q 118 515 52 264 q 151 650 151 640 q 154 677 149 670 q 200 704 174 704 q 227 677 227 704 q 175 443 227 652 q 123 163 123 234 q 141 74 123 92 q 183 56 158 56 q 296 144 237 56 q 397 389 355 233 q 455 607 439 545 m 301 -104 q 196 -181 245 -147 q 109 -249 146 -215 q 28 -412 28 -322 q 65 -500 28 -469 q 107 -513 81 -513 q 155 -495 133 -513 q 195 -450 177 -477 q 226 -387 212 -422 q 251 -316 240 -351 q 270 -249 262 -281 q 283 -195 277 -216 l 301 -104 m 481 857 q 448 902 448 868 q 467 953 448 935 q 519 985 500 985 q 562 942 562 985 q 541 883 562 912 q 493 854 519 854 q 481 857 488 854 m 273 974 l 273 975 q 296 927 296 949 q 265 876 296 906 q 216 846 235 846 q 188 869 198 846 q 178 911 178 892 q 183 943 178 930 q 196 967 188 957 q 216 983 205 977 q 242 989 227 989 q 273 974 258 989 z "},"":{"ha":297,"x_min":43,"x_max":232,"o":"m 164 616 l 164 630 q 154 676 164 640 q 165 707 154 693 q 194 721 177 721 q 221 700 210 721 q 232 654 232 679 q 168 354 232 629 q 104 65 104 79 q 118 50 104 50 q 143 67 127 50 q 171 85 159 85 q 193 57 193 85 q 151 7 193 28 q 90 -14 109 -14 q 43 62 43 -14 q 49 97 43 78 q 63 151 56 117 q 83 244 70 185 q 110 366 96 303 q 144 519 124 429 q 164 616 164 609 z "},"":{"ha":1413,"x_min":41,"x_max":1495,"o":"m 1426 1344 q 1495 1321 1495 1344 q 1485 1295 1495 1307 q 1461 1279 1474 1283 l 1368 1279 q 968 1243 1076 1279 q 940 1139 953 1201 q 898 958 926 1076 q 843 720 870 839 q 941 714 883 714 l 1026 714 q 1235 717 1192 714 q 1258 694 1258 711 q 1230 657 1258 666 q 1143 648 1202 648 l 1026 650 l 1004 650 q 829 656 867 650 q 778 401 789 477 q 750 231 767 325 q 696 62 732 136 l 1232 52 q 1328 54 1301 52 q 1352 31 1352 47 q 1320 -6 1352 3 q 1250 -12 1299 -12 l 1240 -12 q 939 -5 1136 -12 q 701 3 742 3 l 654 -1 q 623 8 631 -1 q 615 27 615 18 q 620 43 615 36 q 693 283 657 102 q 408 -7 574 60 q 289 -31 351 -31 q 41 410 41 -31 q 156 959 41 707 q 479 1234 280 1234 q 625 1178 557 1234 q 637 1150 637 1164 q 615 1117 637 1117 q 583 1131 610 1117 q 458 1165 522 1165 q 292 1056 374 1165 q 160 777 210 947 q 110 439 110 606 q 289 33 110 33 q 582 232 455 33 q 743 648 689 399 q 774 934 774 795 q 720 1183 774 1073 q 620 1278 682 1260 q 561 1291 589 1286 q 513 1303 532 1297 q 493 1324 493 1310 q 528 1354 493 1350 q 836 968 810 1354 q 889 1190 868 1106 l 895 1214 q 872 1241 872 1216 q 913 1287 872 1265 l 913 1291 q 925 1318 913 1304 q 954 1331 942 1331 q 978 1310 975 1331 q 1388 1344 1114 1344 l 1426 1344 z "},"":{"ha":766,"x_min":32,"x_max":749,"o":"m 473 579 q 659 710 558 710 q 725 675 701 710 q 749 593 749 640 q 702 443 749 505 q 588 341 656 380 q 432 267 520 302 l 429 167 q 500 50 429 50 q 579 72 538 50 q 640 104 621 94 q 668 114 658 114 q 692 89 692 114 q 621 23 692 60 q 488 -14 549 -14 q 366 132 385 -14 q 172 -12 279 -12 q 65 48 98 -12 q 32 180 32 109 q 74 425 32 307 q 190 623 117 544 q 350 701 262 701 q 473 579 451 701 m 168 477 q 94 191 94 330 q 149 60 94 94 q 186 50 165 50 q 284 126 231 50 q 373 311 338 202 q 401 425 385 378 q 410 514 410 482 q 407 568 410 545 q 398 606 405 590 q 379 629 391 621 q 340 637 368 637 q 280 616 313 637 q 168 477 216 574 m 685 590 q 639 644 685 644 q 552 581 598 644 q 472 433 507 518 q 452 338 464 381 q 507 366 479 352 q 648 468 611 416 q 685 590 685 519 z "},"":{"ha":1157,"x_min":335,"x_max":665,"o":"m 557 1651 l 555 1634 q 588 1544 555 1603 q 660 1458 621 1485 q 665 1437 665 1449 q 654 1413 665 1424 q 627 1402 642 1402 q 559 1455 597 1402 q 500 1565 520 1507 q 490 1549 494 1557 q 383 1413 471 1510 q 359 1404 371 1404 q 335 1427 335 1404 q 384 1505 335 1449 q 449 1588 433 1560 q 477 1634 465 1616 q 532 1678 507 1678 q 557 1651 557 1678 z "},"":{"ha":899,"x_min":260,"x_max":708,"o":"m 401 1458 q 297 1582 351 1554 q 270 1596 281 1590 q 260 1616 260 1603 q 272 1640 260 1630 q 302 1651 284 1651 q 382 1602 339 1651 q 458 1495 425 1552 q 657 1740 531 1615 q 683 1752 671 1752 q 708 1728 708 1752 q 697 1700 708 1714 q 496 1447 560 1560 q 474 1414 484 1426 q 448 1402 463 1402 q 424 1418 432 1402 q 401 1458 415 1433 z "},"":{"ha":924,"x_min":351,"x_max":593,"o":"m 485 1633 q 500 1638 490 1638 q 518 1632 511 1638 q 593 1510 593 1579 q 561 1434 593 1466 q 481 1402 530 1402 q 366 1455 404 1402 q 351 1501 351 1474 q 359 1551 351 1527 q 381 1594 367 1575 q 415 1627 395 1614 q 453 1639 435 1639 q 485 1633 471 1639 m 488 1463 q 528 1504 528 1463 q 496 1558 528 1527 l 488 1558 q 466 1565 476 1558 q 444 1572 456 1572 q 425 1558 433 1572 q 416 1520 416 1544 q 441 1479 416 1495 q 488 1463 466 1463 z "},"":{"ha":1157,"x_min":339,"x_max":728,"o":"m 700 1622 q 728 1556 728 1622 q 670 1467 728 1491 q 619 1458 648 1458 q 567 1471 589 1458 q 525 1498 545 1483 q 487 1525 505 1512 q 453 1537 469 1537 q 396 1487 420 1537 q 364 1471 382 1471 q 339 1495 339 1471 q 342 1510 339 1501 q 447 1604 389 1604 q 522 1578 478 1604 q 591 1540 566 1552 q 642 1528 616 1528 q 668 1533 668 1528 l 668 1541 l 661 1579 q 673 1610 661 1597 q 700 1622 686 1622 z "},"":{"ha":777,"x_min":29,"x_max":778,"o":"m 307 806 q 199 1089 199 917 q 225 1194 199 1142 q 291 1280 252 1246 q 458 1348 368 1348 q 724 1213 633 1348 q 778 1112 754 1169 q 763 1086 776 1098 q 736 1074 751 1074 q 714 1093 722 1074 q 616 1238 670 1194 q 464 1282 562 1282 q 316 1222 366 1282 q 265 1082 265 1162 q 387 838 265 926 q 399 839 393 839 l 414 839 q 519 822 475 839 q 602 754 602 791 q 567 707 602 723 q 537 703 557 703 q 460 723 517 703 q 364 764 403 743 q 179 607 261 733 q 97 348 97 481 q 144 141 97 215 q 347 46 205 46 q 593 133 490 46 q 713 357 696 219 q 750 379 728 379 q 772 346 772 379 q 511 12 711 92 q 352 -16 440 -16 q 104 94 189 -16 q 29 332 29 188 q 107 609 29 475 q 307 806 184 742 m 640 1473 q 607 1518 607 1485 q 625 1569 607 1552 q 677 1601 659 1601 q 721 1558 721 1601 q 699 1500 721 1529 q 652 1471 677 1471 q 640 1473 647 1471 m 432 1590 l 432 1592 q 454 1544 454 1565 q 424 1493 454 1522 q 375 1463 393 1463 q 347 1486 357 1463 q 336 1527 336 1508 q 341 1560 336 1546 q 355 1584 347 1573 q 374 1600 363 1594 q 401 1606 385 1606 q 432 1590 416 1606 z "},"":{"ha":652,"x_min":-79,"x_max":958,"o":"m 850 1349 l 916 1348 q 935 1349 925 1348 q 958 1325 958 1343 q 890 1283 958 1283 q 722 1270 867 1283 q 504 1257 577 1257 q 412 1263 431 1257 q 395 1177 405 1227 q 372 1068 385 1126 q 312 776 360 1009 q 232 403 264 543 q 500 694 374 694 q 585 572 585 694 q 537 238 585 517 q 476 -146 490 -42 q 61 -575 420 -575 q -64 -548 -14 -575 q -79 -528 -79 -540 q -69 -503 -79 -515 q -45 -488 -58 -491 q 74 -505 0 -505 q 412 -150 345 -505 l 530 550 q 523 605 530 584 q 492 625 515 625 q 282 389 418 625 q 204 233 219 279 q 183 160 189 186 q 171 107 176 134 q 160 61 165 79 q 156 35 155 43 q 158 21 158 27 q 107 -11 158 -11 q 92 0 100 -11 q 83 28 83 10 q 197 555 100 115 q 340 1263 294 996 q 233 1265 287 1264 q 118 1267 180 1267 q -16 1263 56 1267 q -45 1286 -45 1265 q 56 1331 -45 1331 q 354 1325 66 1331 q 380 1340 360 1340 q 412 1325 399 1340 q 436 1324 418 1324 q 518 1329 454 1324 q 850 1349 789 1349 z "},"":{"ha":681,"x_min":7,"x_max":799,"o":"m 489 1487 q 517 1575 489 1496 q 568 1700 545 1653 q 603 1721 583 1721 q 628 1697 628 1721 q 620 1671 628 1687 q 602 1633 611 1656 q 584 1587 592 1610 q 568 1539 576 1563 q 553 1497 560 1515 q 515 1466 541 1466 q 489 1487 489 1466 m 176 1340 l 249 1329 l 267 1329 q 314 1369 286 1369 q 336 1336 336 1369 q 335 1329 335 1333 q 361 1331 351 1330 q 378 1333 370 1332 q 402 1335 386 1333 q 510 1337 418 1337 l 685 1343 q 799 1317 799 1343 q 786 1290 799 1302 q 755 1278 773 1278 q 686 1283 727 1283 l 503 1272 q 421 1275 436 1272 q 393 1278 406 1278 q 322 1274 380 1278 q 229 789 286 1097 q 141 320 172 481 q 69 0 110 160 q 54 -20 66 -14 q 31 -26 41 -26 q 7 -4 7 -26 q 21 62 7 3 q 57 225 35 122 q 97 426 78 328 q 134 619 116 524 q 183 889 151 714 q 249 1223 216 1063 q 243 1240 243 1233 q 243 1251 243 1248 q 244 1258 244 1254 q 228 1257 237 1257 l 208 1257 q 126 1292 130 1257 q 155 1337 126 1331 q 176 1340 164 1339 z "},"":{"ha":711,"x_min":68,"x_max":751,"o":"m 619 1368 l 725 1364 q 749 1340 749 1358 q 739 1316 749 1328 q 715 1300 729 1304 q 610 1305 715 1300 q 362 1168 473 1305 q 196 760 252 1030 q 217 761 199 761 q 357 672 271 761 q 507 583 444 583 q 661 673 591 583 q 700 720 679 697 q 728 730 713 730 q 751 707 751 730 q 708 641 751 690 q 642 572 665 592 q 545 525 587 528 l 493 524 q 332 603 416 524 q 248 673 277 654 q 195 696 220 691 q 182 692 188 696 q 175 648 178 670 q 157 541 172 627 q 143 369 143 456 q 198 110 143 205 q 349 14 253 14 q 518 77 446 14 q 558 121 541 96 q 586 132 572 132 q 611 110 611 132 q 575 52 611 87 q 385 -47 476 -47 q 219 -21 259 -47 q 158 34 179 5 q 125 94 137 62 q 105 162 113 126 q 90 231 98 197 q 81 364 81 265 q 106 610 81 463 l 106 615 q 107 621 106 617 q 90 618 99 618 q 75 625 81 618 q 68 641 68 633 q 84 672 68 649 q 123 717 100 695 q 519 1353 222 1242 q 619 1368 563 1368 z "},"":{"ha":778,"x_min":-9,"x_max":804,"o":"m 585 1343 q 799 1168 747 1343 q 804 1146 804 1159 q 792 1123 804 1134 q 768 1112 781 1112 q 743 1138 747 1112 q 692 1242 734 1199 q 585 1284 650 1284 q 486 1239 519 1284 q 453 1132 453 1194 q 470 1005 453 1070 q 511 875 486 940 q 565 745 536 810 q 619 614 594 680 q 677 339 677 461 q 610 117 677 218 q 339 -16 524 -16 q 94 55 197 -16 q -9 257 -9 125 q 69 484 -9 389 q 139 555 98 519 q 165 567 153 567 q 192 545 192 567 q 186 524 192 533 q 94 418 117 460 q 57 277 57 345 q 81 168 57 209 q 144 100 104 127 q 345 46 221 46 q 545 144 469 46 q 611 348 611 227 q 498 730 611 468 q 386 1094 386 991 q 435 1269 386 1196 q 585 1343 484 1343 z "},"":{"ha":376,"x_min":-78,"x_max":526,"o":"m 214 1271 q 187 1297 187 1271 q 200 1320 187 1308 q 231 1333 213 1332 l 349 1333 q 505 1332 420 1333 q 526 1310 526 1324 q 515 1284 526 1296 q 489 1270 505 1273 l 445 1270 q 392 1271 426 1270 q 118 62 191 464 q 258 37 246 59 q 261 22 261 31 q 249 1 261 14 q 221 -14 237 -12 q 142 -7 183 -14 q 79 1 101 -1 q 24 4 56 4 q -43 -7 -7 4 l -50 -7 q -71 0 -64 -7 q -78 17 -78 7 q 53 64 -78 64 l 58 64 q 204 748 116 373 q 326 1271 292 1123 q 309 1270 316 1270 l 273 1270 l 214 1271 z "},"":{"ha":410,"x_min":-78,"x_max":625,"o":"m -43 -7 l -50 -7 q -71 0 -64 -7 q -78 17 -78 7 q 53 64 -78 64 l 58 64 q 56 78 56 69 q 134 510 78 273 q 210 838 191 747 q 258 1047 230 929 q 328 1267 287 1164 q 221 1264 286 1264 l 214 1264 q 187 1287 187 1268 q 200 1313 187 1301 q 231 1326 213 1325 l 237 1326 q 339 1332 290 1332 q 426 1330 389 1332 q 529 1326 463 1328 q 550 1304 550 1319 q 539 1279 550 1290 q 513 1264 528 1267 q 465 1265 492 1264 l 423 1265 q 392 1267 409 1266 q 282 887 330 1113 q 214 574 235 662 q 163 355 193 486 q 119 87 134 224 q 107 62 117 73 q 261 26 261 58 q 249 1 261 14 q 221 -14 237 -12 q 142 -7 183 -14 q 79 1 101 -1 q 24 4 56 4 q -43 -7 -7 4 m 544 1457 q 511 1501 511 1468 q 529 1552 511 1535 q 581 1584 562 1584 q 625 1541 625 1584 q 603 1483 625 1512 q 555 1454 581 1454 q 544 1457 551 1454 m 336 1573 l 336 1575 q 358 1527 358 1548 q 328 1475 358 1505 q 279 1446 297 1446 q 251 1469 261 1446 q 240 1510 240 1491 q 245 1543 240 1529 q 259 1567 250 1556 q 278 1583 267 1577 q 304 1589 289 1589 q 336 1573 320 1589 z "},"":{"ha":708,"x_min":-90,"x_max":743,"o":"m 667 1331 q 684 1336 675 1336 q 701 1331 692 1336 q 718 1336 709 1336 q 743 1312 737 1336 q 659 933 703 1160 q 603 639 616 705 q 570 468 590 572 q 508 249 550 363 q 392 64 466 134 q 164 -18 303 -18 q -50 143 26 -18 q -90 248 -90 228 q -79 280 -90 268 q -58 293 -68 293 q -30 275 -34 293 q 9 172 -19 227 q 80 79 37 117 q 188 41 123 41 q 309 78 254 41 q 403 179 363 115 q 517 515 468 286 q 540 628 527 566 q 568 760 553 691 q 597 900 582 829 q 626 1038 612 971 q 653 1164 640 1105 q 675 1267 665 1223 q 574 1239 626 1239 q 446 1260 523 1239 q 326 1284 368 1280 q 307 1308 307 1293 q 319 1334 307 1322 q 346 1349 331 1347 q 455 1324 381 1345 q 575 1304 530 1304 q 667 1331 621 1304 z "},"":{"ha":1311,"x_min":-82,"x_max":1242,"o":"m 779 510 q 760 530 760 513 q 768 558 760 547 l 799 595 l 835 750 q 946 1222 912 1102 q 810 1048 872 1173 l 779 986 q 645 637 714 854 q 611 532 626 578 q 565 388 595 485 q 477 188 534 290 q 372 31 420 86 q 210 -60 293 -60 q 7 68 111 -60 q -65 189 -58 148 q -75 215 -68 205 q -82 236 -82 224 q -71 259 -82 248 q -47 271 -60 271 q -26 263 -33 271 q -14 243 -19 255 q -6 219 -9 232 q 24 160 -3 206 q 92 71 50 115 q 228 4 157 4 q 419 198 321 4 q 512 417 475 310 q 606 703 549 525 q 714 986 663 880 q 808 1157 766 1093 q 903 1260 850 1222 q 932 1281 913 1267 q 970 1301 951 1294 q 1015 1346 987 1346 q 1036 1312 1036 1346 q 897 750 974 1115 l 879 669 q 972 692 916 692 q 1081 664 1029 692 q 1168 591 1133 636 q 1242 371 1242 497 q 1187 203 1242 294 q 968 8 1099 60 q 887 -9 924 -9 q 771 47 819 -9 q 722 187 722 104 q 779 510 728 275 m 860 582 q 847 520 854 551 q 829 439 840 490 q 815 369 819 389 q 799 304 812 348 q 786 197 786 260 q 818 94 786 134 q 887 54 850 54 q 959 69 924 54 q 1085 167 1028 98 q 1175 371 1175 275 q 1114 547 1175 468 q 966 627 1052 627 q 900 614 922 627 q 860 582 878 602 z "},"":{"ha":1192,"x_min":-205,"x_max":1219,"o":"m -143 413 l -140 400 q -152 373 -140 385 q -176 361 -163 361 q -205 401 -205 361 q -41 582 -205 481 q 46 626 7 612 q 122 657 85 641 q 183 681 159 673 q 218 693 207 689 q 306 1303 304 1048 l 306 1314 q 346 1344 321 1343 q 351 1343 347 1344 l 354 1343 l 355 1341 q 368 1326 364 1337 l 368 1324 q 370 1321 368 1322 l 370 1311 q 286 711 368 1050 q 774 777 487 762 q 907 1312 855 1153 q 925 1337 912 1327 q 949 1346 937 1346 q 970 1312 970 1346 q 885 998 920 1152 q 836 779 850 844 l 1196 790 q 1219 766 1219 783 q 1210 742 1219 754 q 1186 726 1200 730 q 1005 721 1095 722 q 822 715 916 720 l 812 669 q 906 692 849 692 q 1015 664 963 692 q 1101 591 1066 636 q 1175 371 1175 497 q 1120 203 1175 294 q 901 8 1033 60 q 821 -9 857 -9 q 704 47 752 -9 q 656 187 656 104 q 713 510 662 273 q 693 530 693 513 q 701 558 693 546 l 732 595 l 760 713 q 269 644 465 697 q 179 308 227 473 q 92 -20 132 142 q 53 -47 77 -47 q 29 -20 32 -47 q 113 298 68 138 q 201 625 159 459 q -81 484 27 568 q -98 471 -87 479 q -143 413 -143 437 m 793 582 q 766 455 781 522 q 749 369 752 389 q 732 304 745 348 q 720 197 720 260 q 752 94 720 134 q 821 54 785 54 q 1016 164 924 54 q 1108 371 1108 275 q 1049 544 1108 467 q 982 604 1021 581 q 899 627 942 627 q 833 614 856 627 q 793 582 810 602 z "},"":{"ha":650,"x_min":56,"x_max":574,"o":"m 131 21 q 79 -11 131 -11 q 57 5 61 -11 q 56 9 56 7 q 107 274 56 41 q 176 588 159 507 q 211 752 193 670 q 245 913 229 834 q 125 922 150 915 q 88 935 101 929 q 79 957 79 945 q 92 980 79 969 q 119 991 104 991 q 151 986 134 991 q 185 981 168 981 l 227 982 q 244 981 237 981 l 259 981 q 319 1301 297 1167 l 325 1320 q 349 1340 331 1340 q 393 1305 384 1340 q 357 1126 376 1219 q 326 979 337 1033 l 338 979 q 473 985 378 979 q 495 961 495 977 q 458 921 495 930 q 343 913 430 913 l 313 913 q 266 689 296 836 q 204 403 235 543 q 472 694 346 694 q 549 654 524 694 q 574 565 574 614 q 556 429 574 516 l 533 312 q 495 83 495 120 l 497 30 q 485 1 497 12 q 454 -9 473 -9 q 425 4 434 -9 q 416 31 416 18 q 418 54 416 44 l 498 505 q 503 555 503 527 q 464 625 503 625 q 264 406 391 625 q 177 234 193 282 q 145 124 161 186 q 130 45 130 62 l 131 21 z "},"":{"ha":859,"x_min":14,"x_max":873,"o":"m 233 551 q 186 517 205 523 l 179 517 q 145 362 161 439 q 115 225 128 286 q 92 123 102 165 q 78 35 82 81 q 63 7 76 18 q 37 -4 50 -4 q 14 25 16 -4 q 29 119 18 74 q 104 481 39 163 q 283 1303 169 798 q 301 1327 289 1318 q 325 1336 313 1336 q 346 1311 346 1336 l 346 1303 q 197 603 286 995 q 459 896 328 756 q 669 1123 591 1036 q 822 1304 747 1209 q 850 1315 836 1315 q 873 1292 873 1315 q 863 1264 873 1278 q 644 1010 762 1135 q 432 785 527 886 q 286 615 336 684 l 290 606 q 397 242 304 416 q 553 68 463 120 q 650 41 600 41 q 720 52 700 41 q 781 110 753 68 q 806 121 794 121 q 833 96 833 121 q 777 28 833 75 q 734 0 759 12 q 648 -12 709 -12 q 437 85 532 -12 q 307 293 357 166 q 233 551 256 420 m 170 567 q 170 569 170 568 l 168 567 l 170 567 m 573 1383 q 542 1415 542 1383 q 556 1445 542 1425 q 588 1496 571 1466 q 621 1559 606 1527 q 652 1624 637 1592 q 682 1686 667 1655 q 717 1707 698 1707 q 742 1683 742 1707 q 731 1653 742 1672 q 706 1601 721 1633 q 665 1514 691 1569 q 604 1417 638 1460 q 592 1393 602 1403 q 573 1383 582 1383 z "},"":{"ha":842,"x_min":-123,"x_max":953,"o":"m 393 454 q 244 717 244 454 q 335 1202 244 850 q 364 1310 349 1258 q 386 1333 372 1323 q 411 1343 399 1343 q 429 1320 429 1343 q 331 878 347 982 q 315 700 315 774 q 343 572 315 627 q 419 518 370 518 q 547 572 468 518 q 669 684 626 625 q 911 1333 764 1333 q 953 1258 953 1333 q 901 1001 953 1182 q 739 682 848 821 q 731 627 735 655 q 721 561 726 598 q 471 56 670 210 q 251 -16 378 -16 q 26 99 124 -16 q -59 212 -20 153 q -111 287 -98 271 q -123 304 -123 302 l -123 312 q -109 340 -123 326 q -83 355 -95 355 q -61 349 -72 355 q 66 155 -11 238 q 273 52 163 52 q 498 172 397 57 q 639 469 600 286 q 646 516 642 484 q 657 593 650 549 q 393 454 498 454 m 885 1242 q 758 810 798 1061 q 823 963 802 892 q 885 1242 875 1141 z "},"":{"ha":939,"x_min":-29,"x_max":974,"o":"m 227 56 l 350 54 q 351 54 350 54 l 375 60 q 393 52 386 60 q 529 49 458 49 q 613 50 599 49 q 635 53 628 51 q 647 56 643 54 q 657 58 650 57 q 661 97 659 77 q 667 135 663 116 l 700 292 q 911 1308 861 1044 q 950 1336 926 1336 q 974 1308 971 1336 q 878 839 943 1164 q 777 354 813 514 q 733 155 741 193 q 724 97 725 117 q 720 57 723 76 q 754 32 754 52 q 728 -3 754 9 q 711 -7 720 -6 q 684 -4 694 -4 l 672 -5 q 661 -3 667 -5 l 648 -3 q 630 -4 635 -3 l 616 -7 q 542 -12 597 -12 l 400 -12 q 371 -184 396 -85 q 340 -307 345 -284 q 301 -335 325 -335 q 278 -307 281 -335 q 288 -271 281 -293 q 338 -12 336 -90 q 61 0 252 -12 q 26 -26 45 -26 q 0 -3 6 -26 l 0 4 q -29 29 -29 9 q -18 53 -29 42 q 8 68 -6 64 l 9 68 q 52 220 18 111 q 115 481 85 329 q 157 697 144 634 q 176 790 170 760 q 190 859 182 821 q 207 941 198 897 q 224 1029 216 985 q 250 1164 233 1074 q 273 1310 268 1254 q 281 1328 277 1318 q 291 1348 284 1337 q 315 1360 297 1360 q 342 1335 342 1360 l 342 1332 l 343 1333 q 247 859 300 1156 q 170 447 193 562 q 130 275 147 333 q 97 167 113 218 q 71 62 80 116 q 227 56 163 56 z "},"":{"ha":975,"x_min":-109,"x_max":880,"o":"m 143 443 q 323 431 197 436 q 624 952 441 608 q 772 1324 739 1168 q 790 1348 778 1338 q 814 1357 802 1357 q 833 1336 831 1357 q 843 1312 844 1325 q 835 1291 842 1298 q 813 1176 819 1236 q 786 954 806 1116 q 766 681 766 791 q 783 412 766 570 q 873 394 867 404 q 880 373 880 385 q 868 350 880 361 q 841 339 855 338 q 815 341 826 340 q 793 345 804 343 l 793 338 q 795 317 793 334 q 798 270 798 300 q 801 217 798 240 q 808 168 803 193 q 824 96 814 143 q 835 34 835 49 q 824 7 835 19 q 799 -4 812 -4 q 774 16 785 -4 q 758 67 764 36 q 746 137 751 98 q 739 213 742 176 q 733 283 735 251 q 728 334 730 315 l 724 353 q 537 363 631 362 q 349 367 443 365 q 11 24 170 96 q -72 -3 -42 -3 q -109 32 -109 -3 q -96 62 -109 50 q -71 75 -84 75 q -50 64 -58 75 l -49 65 q 225 293 96 121 q 257 336 245 320 q 281 368 269 351 q 123 379 176 374 q 104 401 104 387 q 116 429 104 416 q 143 443 128 441 m 717 419 q 705 666 705 510 q 734 1043 705 821 q 552 698 652 873 q 392 429 452 524 q 555 427 473 428 q 717 419 637 426 z "},"":{"ha":798,"x_min":-236,"x_max":1069,"o":"m -209 141 q -236 228 -236 180 q -203 277 -236 277 q -166 223 -182 277 q -122 146 -150 170 q 71 62 -52 85 q 200 667 136 351 l 180 667 q 154 650 168 650 q 126 677 126 650 q 214 733 126 726 q 314 1225 261 972 q 309 1243 309 1234 q 311 1264 309 1253 q 212 1257 260 1257 q 117 1292 119 1257 q 157 1337 117 1329 q 180 1341 168 1340 q 203 1325 199 1336 l 220 1325 q 332 1329 275 1325 q 379 1369 351 1369 q 401 1336 401 1369 l 401 1335 q 592 1354 498 1343 q 743 1364 686 1364 q 1069 1317 1069 1364 q 1057 1290 1069 1302 q 1026 1278 1044 1278 q 792 1299 907 1299 q 582 1290 677 1299 q 387 1274 487 1282 q 332 1003 359 1139 q 278 732 305 867 q 582 623 469 720 q 694 386 694 526 q 609 151 694 245 q 293 -4 498 28 q 192 -14 233 -14 q 117 -9 152 -14 q 114 -20 115 -11 q 99 -35 112 -29 q 77 -41 87 -41 q 53 -20 53 -41 q 56 -4 53 -12 l 56 0 q -209 141 -137 40 m 132 53 q 198 50 157 50 q 386 85 286 50 q 559 193 487 119 q 631 375 631 266 q 428 633 631 561 q 264 664 359 657 q 132 53 175 225 z "},"":{"ha":714,"x_min":-113,"x_max":665,"o":"m 4 -56 q 14 0 7 -34 q -26 8 -6 4 q -113 53 -110 25 q -113 64 -113 56 q -105 81 -113 72 q -91 90 -98 90 q -76 88 -83 90 q -44 74 -66 85 q 28 64 -22 64 l 64 215 q 111 430 85 322 q 163 650 137 538 l 121 652 q 100 675 100 652 q 175 708 100 708 q 229 989 205 838 q 290 1260 253 1141 q 244 1231 265 1249 q 208 1206 232 1206 q 193 1212 202 1206 q 184 1234 184 1217 q 225 1290 184 1265 q 318 1325 266 1315 q 339 1339 327 1339 q 361 1328 352 1339 q 568 1239 490 1324 q 646 1014 646 1155 q 561 801 646 899 q 370 689 475 703 q 576 586 488 682 q 665 387 665 490 q 514 89 665 189 q 103 -11 362 -11 l 74 -9 q 69 -43 69 -29 q 54 -72 66 -60 q 31 -83 42 -83 q 4 -56 7 -83 m 86 54 q 140 52 104 52 q 482 140 362 52 q 602 378 602 229 q 507 563 602 481 q 296 644 412 644 q 222 647 266 644 q 140 283 157 361 q 119 188 123 205 q 109 148 114 170 l 97 102 q 86 54 91 77 m 578 1013 q 578 1076 578 1013 q 514 1202 578 1138 q 347 1268 450 1265 q 282 965 313 1156 q 236 710 250 774 q 478 804 379 720 q 578 1013 578 888 z "},"":{"ha":681,"x_min":29,"x_max":821,"o":"m 199 1340 l 271 1329 l 289 1329 q 336 1369 307 1369 q 358 1336 358 1369 q 357 1329 357 1333 q 383 1331 374 1330 q 400 1333 393 1332 q 424 1335 408 1333 q 532 1337 440 1337 l 707 1343 q 821 1317 821 1343 q 808 1290 821 1302 q 778 1278 795 1278 q 708 1283 749 1283 l 525 1272 q 443 1275 458 1272 q 415 1278 427 1278 q 345 1274 403 1278 q 251 789 308 1097 q 163 320 194 481 q 92 0 132 160 q 76 -20 88 -14 q 53 -26 63 -26 q 29 -4 29 -26 q 62 139 29 3 q 164 661 94 275 q 271 1223 235 1047 q 265 1241 265 1234 q 266 1251 265 1248 q 267 1258 267 1254 q 250 1257 259 1257 l 231 1257 q 149 1292 152 1257 q 178 1337 149 1331 q 199 1340 186 1339 z "},"":{"ha":1303,"x_min":-33,"x_max":1265,"o":"m 314 334 q 450 890 410 702 q 532 1287 489 1078 q 100 1091 239 1276 q 29 972 59 1036 q -9 945 16 945 q -33 972 -31 945 q 71 1143 22 1087 q 164 1233 120 1200 q 543 1349 305 1341 l 547 1368 q 563 1391 551 1381 q 585 1401 576 1401 q 611 1378 605 1401 l 607 1349 q 986 1225 825 1343 q 1194 974 1123 1124 q 1265 694 1265 823 q 1200 362 1265 522 q 884 17 1095 102 q 728 -12 812 -12 q 538 96 644 -12 q 422 209 457 179 q 353 256 387 239 q 327 140 342 212 q 296 45 312 69 q 255 3 280 20 q 185 -14 231 -14 q 70 35 107 -14 q 32 143 32 83 q 53 241 32 203 q 107 301 75 279 q 176 334 139 324 q 244 343 213 343 q 314 334 275 343 m 596 1287 q 490 819 568 1126 q 367 315 412 511 q 507 214 431 286 q 569 156 539 184 q 627 103 598 127 q 751 52 691 52 q 975 149 871 52 q 1137 397 1078 247 q 1196 699 1196 547 q 1119 985 1196 850 q 905 1200 1042 1120 q 596 1287 768 1280 m 264 279 q 93 151 93 279 q 138 65 93 89 q 176 56 156 56 q 216 66 197 56 q 258 119 248 83 l 298 275 q 264 279 274 279 z "},"":{"ha":736,"x_min":-8,"x_max":741,"o":"m 269 806 q 161 1089 161 916 q 188 1194 161 1142 q 254 1280 214 1246 q 421 1348 331 1348 q 686 1213 596 1348 q 741 1112 716 1169 q 726 1086 738 1098 q 699 1074 713 1074 q 676 1093 685 1074 q 578 1238 631 1194 q 427 1282 524 1282 q 278 1222 329 1282 q 228 1082 228 1162 q 350 838 228 926 q 362 839 355 839 l 376 839 q 481 822 437 839 q 564 754 564 791 q 530 707 564 723 q 500 703 520 703 q 423 723 480 703 q 326 764 366 743 q 142 607 224 734 q 60 348 60 481 q 310 46 60 46 q 555 133 452 46 q 675 357 659 219 q 712 379 690 379 q 734 346 734 379 q 473 12 673 92 q 315 -16 403 -16 q 66 94 152 -16 q -8 331 -8 188 q 69 608 -8 475 q 269 806 146 741 z "},"":{"ha":1430,"x_min":-149,"x_max":1444,"o":"m 804 551 q 757 517 776 523 l 750 517 q 690 247 707 329 q 663 123 673 165 q 650 49 653 81 q 634 7 646 18 q 608 -4 621 -4 q 585 25 587 -4 q 599 119 589 74 q 625 240 610 163 q 685 526 640 316 q 656 564 668 541 q 510 330 564 404 q 283 90 396 172 q -8 -12 143 -12 q -93 3 -66 -12 q -144 69 -119 18 q -149 88 -149 76 q -136 110 -149 100 q -110 121 -124 121 q -87 110 -95 121 q -26 43 -75 51 q 27 41 -10 41 q 123 68 65 41 q 450 355 285 142 q 612 606 553 486 q 619 613 616 610 q 625 619 622 617 q 613 646 618 633 q 532 813 608 659 q 319 1281 319 1247 q 331 1304 319 1293 q 357 1315 342 1315 q 379 1304 372 1315 q 522 959 454 1099 q 632 735 589 819 q 699 593 675 652 q 854 1303 777 967 q 872 1327 860 1318 q 896 1336 884 1336 q 917 1303 917 1336 q 768 603 867 1050 q 1030 896 899 756 q 1240 1123 1162 1036 q 1393 1304 1318 1209 q 1421 1315 1407 1315 q 1444 1292 1444 1315 q 1434 1264 1444 1278 q 1212 1007 1326 1128 q 1003 785 1098 886 q 857 615 907 684 l 861 606 q 968 242 876 417 q 1124 68 1032 121 q 1220 41 1171 41 q 1297 55 1270 41 q 1352 110 1323 68 q 1377 121 1365 121 q 1404 97 1404 121 q 1350 28 1404 74 q 1306 0 1331 12 q 1219 -12 1281 -12 q 1007 85 1102 -12 q 877 295 926 168 q 804 551 827 422 z "},"":{"ha":777,"x_min":-231,"x_max":721,"o":"m 294 1210 q 271 1236 271 1210 q 345 1307 271 1263 q 514 1352 420 1352 q 659 1294 608 1352 q 710 1140 710 1236 q 557 856 710 983 q 468 787 513 819 q 659 668 597 765 q 721 416 721 570 q 600 108 721 229 q 250 -14 479 -14 q -56 124 73 -14 q -231 446 -186 262 q -219 476 -231 463 q -193 490 -208 490 q -170 475 -179 490 q -16 180 -142 311 q 259 49 111 49 q 523 133 407 49 q 657 407 657 229 q 524 711 657 621 q 408 749 476 743 q 248 685 307 685 q 217 690 230 685 q 204 719 204 696 q 258 781 204 763 q 376 794 292 792 q 648 1139 648 960 q 607 1245 648 1205 q 506 1284 566 1284 q 319 1218 399 1284 q 294 1210 305 1210 z "},"":{"ha":1051,"x_min":-9,"x_max":1042,"o":"m 36 -5 l 28 -9 q -2 -1 5 -9 q -9 22 -9 7 q 103 517 44 198 q 256 1295 239 1254 q 260 1314 260 1304 q 276 1337 264 1327 q 300 1348 288 1348 q 323 1324 317 1348 q 289 1142 323 1264 q 229 837 283 1122 q 74 122 174 551 q 277 365 176 248 q 475 600 377 481 q 850 1105 700 871 q 873 1148 861 1122 q 901 1202 873 1148 q 968 1323 942 1283 q 1018 1362 995 1362 q 1042 1337 1042 1362 q 1038 1321 1042 1329 l 1039 1321 q 1035 1311 1038 1320 q 1018 1281 1031 1303 q 994 1222 1005 1259 q 911 1014 951 1114 q 772 372 772 667 q 804 57 772 146 q 944 214 863 97 q 987 271 964 243 q 1015 282 1000 282 q 1040 260 1040 282 q 1035 239 1040 248 q 1001 195 1019 220 q 947 125 983 171 q 786 -14 854 4 q 713 304 715 -1 q 713 437 713 342 q 740 666 713 531 q 828 953 766 800 l 842 990 q 251 245 632 682 q 36 -5 146 125 z "},"":{"ha":1051,"x_min":-9,"x_max":1042,"o":"m 36 -5 l 28 -9 q -2 -1 5 -9 q -9 22 -9 7 q 103 517 44 198 q 256 1295 239 1254 q 260 1314 260 1304 q 276 1337 264 1327 q 300 1348 288 1348 q 323 1324 317 1348 q 289 1142 323 1264 q 229 837 283 1122 q 74 122 174 551 q 277 365 176 248 q 475 600 377 481 q 850 1105 700 871 q 873 1148 861 1122 q 901 1202 873 1148 q 968 1323 942 1283 q 1018 1362 995 1362 q 1042 1337 1042 1362 q 1038 1321 1042 1329 l 1039 1321 q 1035 1311 1038 1320 q 1018 1281 1031 1303 q 994 1222 1005 1259 q 911 1014 951 1114 q 772 372 772 667 q 804 57 772 146 q 944 214 863 97 q 987 271 964 243 q 1015 282 1000 282 q 1040 260 1040 282 q 1035 239 1040 248 q 1001 195 1019 220 q 947 125 983 171 q 786 -14 854 4 q 713 304 715 -1 q 713 437 713 342 q 740 666 713 531 q 828 953 766 800 l 842 990 q 251 245 632 682 q 36 -5 146 125 m 933 1697 q 958 1675 958 1697 q 953 1654 958 1663 q 647 1444 798 1444 q 524 1500 568 1444 q 479 1642 479 1555 q 491 1672 479 1659 q 518 1685 503 1685 q 538 1671 532 1685 q 553 1596 545 1657 q 639 1507 566 1507 q 802 1569 728 1507 q 905 1686 849 1609 q 933 1697 918 1697 z "},"":{"ha":851,"x_min":-9,"x_max":865,"o":"m 842 1343 q 865 1320 865 1343 q 854 1292 865 1305 q 539 929 750 1167 q 257 608 328 691 q 371 244 276 414 q 530 76 437 126 q 628 50 578 50 q 705 60 678 50 q 758 110 732 71 q 784 121 772 121 q 811 96 811 121 q 770 36 811 72 q 693 -6 728 0 q 611 -12 658 -12 q 511 15 565 -12 q 412 87 456 41 q 278 298 332 168 q 201 557 224 427 q 173 528 186 540 q 150 500 159 515 q 54 26 79 182 q 39 -1 51 9 q 15 -12 26 -12 q -9 17 -7 -12 q 146 763 53 362 q 275 1322 239 1164 q 293 1346 281 1337 q 315 1356 305 1356 q 338 1331 338 1356 l 338 1322 q 263 971 304 1148 q 182 616 222 793 q 473 943 259 704 q 814 1332 688 1181 q 842 1343 827 1343 z "},"":{"ha":637,"x_min":-160,"x_max":591,"o":"m 526 1315 q 546 1342 531 1331 q 572 1353 561 1353 q 591 1329 589 1353 q 542 668 542 1004 q 579 35 542 333 q 551 -9 579 5 q 534 -14 543 -14 q 514 5 518 -14 q 476 575 476 313 q 496 1051 476 836 q 123 281 326 627 q -69 3 12 94 q -113 -16 -87 -16 q -150 -3 -140 -16 q -160 24 -160 9 q -149 50 -160 38 q -124 62 -137 62 q -104 57 -112 62 q -20 181 -71 92 q 83 349 32 270 q 227 607 134 427 q 521 1305 425 994 q 523 1310 522 1308 q 526 1315 524 1313 z "},"":{"ha":1189,"x_min":-8,"x_max":1126,"o":"m 1063 1311 q 1103 1344 1081 1344 q 1125 1324 1125 1344 q 1125 1320 1125 1322 q 1079 52 1084 630 q 1078 16 1088 34 q 1040 -17 1062 -17 q 1012 30 1014 -17 q 1011 116 1011 43 q 1015 322 1011 189 q 1024 590 1019 456 q 1034 859 1029 725 q 1043 1124 1040 993 q 810 658 976 974 q 587 228 644 342 q 552 199 572 199 q 525 218 532 199 q 418 703 490 381 q 319 1157 346 1025 q 176 521 274 926 q 54 12 77 115 q 16 -16 41 -16 q -8 12 -5 -16 q 142 693 36 254 q 288 1310 248 1133 q 303 1333 292 1323 q 326 1343 315 1343 q 351 1320 345 1343 q 468 787 409 1070 q 564 346 526 505 q 736 664 656 506 q 892 976 815 822 q 1063 1311 969 1130 z "},"":{"ha":990,"x_min":-205,"x_max":1219,"o":"m -143 412 l -140 400 q -152 373 -140 385 q -176 361 -163 361 q -205 401 -205 361 q -41 582 -205 484 q 50 628 15 615 q 122 657 85 641 q 185 682 159 673 q 218 693 211 690 q 263 947 248 815 q 287 1156 279 1078 q 306 1311 296 1234 q 346 1344 310 1344 q 366 1339 361 1344 q 370 1321 371 1333 q 286 711 353 1126 q 815 779 495 765 q 870 1162 861 1124 q 903 1325 900 1283 q 919 1349 907 1339 q 943 1358 930 1358 q 966 1335 960 1358 q 954 1251 964 1297 l 937 1177 q 907 996 924 1124 q 879 781 890 867 l 1196 790 q 1219 766 1219 784 q 1210 742 1219 754 q 1186 726 1200 730 q 1029 722 1107 723 q 869 718 950 720 q 833 500 857 619 q 788 263 810 380 q 762 24 767 145 q 748 -4 760 7 q 722 -16 735 -16 q 699 14 701 -16 q 725 258 703 139 q 761 449 747 377 q 787 593 775 520 l 807 715 q 269 644 485 703 q 179 308 227 474 q 92 -20 132 142 q 53 -47 77 -47 q 29 -20 32 -47 q 113 298 67 136 q 201 625 159 460 q -81 484 24 566 q -96 472 -86 479 q -143 415 -143 437 q -143 412 -143 414 z "},"":{"ha":861,"x_min":41,"x_max":839,"o":"m 289 -31 q 41 410 41 -31 q 156 959 41 707 q 479 1234 280 1234 q 625 1178 557 1234 q 637 1150 637 1164 q 615 1117 637 1117 q 583 1131 610 1117 q 458 1165 522 1165 q 291 1056 374 1165 q 156 777 208 947 q 104 439 104 606 q 224 49 104 117 q 300 33 252 33 q 401 57 349 33 q 646 340 547 124 q 741 631 709 477 q 774 929 774 785 q 720 1183 774 1073 q 620 1278 682 1260 q 561 1291 589 1286 q 513 1303 532 1297 q 493 1324 493 1310 q 528 1354 493 1350 q 833 998 800 1354 q 839 868 839 938 q 799 560 839 719 q 684 266 758 401 q 508 50 610 131 q 289 -31 407 -31 z "},"":{"ha":1063,"x_min":81,"x_max":1296,"o":"m 986 1289 l 485 1282 l 401 1282 q 396 1275 399 1276 q 392 1235 393 1255 q 387 1196 391 1215 l 143 22 q 104 -5 130 -5 q 81 22 83 -5 q 176 505 121 253 l 264 902 q 330 1227 328 1192 q 336 1283 332 1262 q 122 1297 229 1285 q 96 1321 96 1304 q 109 1347 96 1335 q 139 1360 121 1358 q 438 1343 307 1343 q 635 1344 570 1343 q 767 1347 701 1345 q 897 1350 833 1348 q 1015 1353 961 1352 q 1028 1357 1021 1357 q 1040 1354 1035 1357 l 1095 1354 q 1175 1349 1122 1354 q 1275 1340 1227 1344 q 1296 1318 1296 1333 q 1284 1293 1296 1304 q 1258 1278 1273 1281 l 1095 1291 l 1048 1291 q 950 892 994 1108 q 895 623 906 675 q 878 540 884 570 q 864 472 871 510 q 847 390 856 434 q 812 208 839 346 q 781 21 785 69 q 773 3 777 12 q 738 -29 763 -29 q 713 -4 713 -29 l 713 -1 l 711 -3 q 778 321 748 158 q 838 646 808 484 q 986 1289 913 1046 z "},"":{"ha":743,"x_min":64,"x_max":751,"o":"m 182 549 q 64 616 64 587 q 75 642 64 633 q 100 650 87 650 q 125 646 113 650 q 149 638 137 643 q 174 628 161 633 q 196 618 186 622 l 335 1270 q 244 1198 273 1251 q 212 1182 232 1182 q 187 1206 187 1182 q 191 1221 187 1211 q 355 1336 239 1314 q 390 1364 370 1364 q 414 1343 410 1364 l 419 1343 q 663 1239 574 1343 q 751 1008 751 1136 q 642 665 751 794 q 310 524 524 524 q 240 533 277 524 q 191 300 224 455 q 138 32 157 144 q 122 4 134 15 q 99 -7 110 -7 q 74 22 77 -7 q 133 319 97 156 q 182 549 168 482 m 254 597 q 353 589 287 589 q 484 620 419 589 q 595 704 549 651 q 693 975 693 817 q 614 1190 693 1099 q 400 1280 536 1280 l 254 597 z "},"":{"ha":745,"x_min":41,"x_max":811,"o":"m 602 174 q 625 149 625 174 q 604 114 625 130 q 540 68 572 92 q 323 -20 422 -20 q 217 8 267 -20 q 64 223 111 68 q 41 372 41 301 q 78 648 41 488 q 184 971 115 808 q 350 1244 254 1135 q 555 1353 446 1353 q 737 1262 663 1353 q 811 1078 811 1172 q 797 1051 809 1063 q 772 1039 785 1039 q 754 1047 760 1039 q 742 1092 745 1059 q 680 1232 731 1178 q 553 1286 629 1286 q 391 1183 477 1286 q 195 799 277 1048 q 113 407 113 551 q 161 165 113 262 q 334 47 221 47 q 524 125 416 47 q 572 160 553 146 q 602 174 590 174 z "},"":{"ha":804,"x_min":109,"x_max":991,"o":"m 486 1263 q 268 1267 328 1267 q 138 1263 208 1267 q 109 1286 109 1265 q 179 1329 109 1324 q 218 1331 199 1331 l 503 1325 q 555 1383 522 1383 q 579 1360 575 1383 l 582 1332 l 581 1325 q 649 1329 619 1326 q 706 1332 680 1331 q 784 1338 732 1334 q 899 1341 836 1341 l 949 1341 q 968 1343 958 1341 q 991 1320 991 1337 q 924 1278 991 1278 q 735 1271 836 1278 q 553 1263 635 1264 q 497 1005 530 1148 q 399 532 464 861 q 298 -14 334 203 q 283 -42 295 -31 q 260 -53 271 -53 q 235 -24 237 -53 q 418 923 276 319 q 449 1052 438 1011 q 463 1114 460 1093 q 470 1161 467 1136 q 478 1212 474 1185 q 486 1263 481 1238 z "},"":{"ha":842,"x_min":-123,"x_max":953,"o":"m 393 454 q 244 717 244 454 q 335 1202 244 850 q 364 1310 349 1258 q 386 1333 372 1323 q 411 1343 399 1343 q 429 1320 429 1343 q 331 878 347 982 q 315 700 315 774 q 343 572 315 627 q 419 518 370 518 q 547 572 468 518 q 669 684 626 625 q 911 1333 764 1333 q 953 1258 953 1333 q 901 1001 953 1182 q 739 682 848 821 q 731 627 735 655 q 721 561 726 598 q 471 56 670 210 q 251 -16 378 -16 q 26 99 124 -16 q -59 212 -20 153 q -111 287 -98 271 q -123 304 -123 302 l -123 312 q -109 340 -123 326 q -83 355 -95 355 q -61 349 -72 355 q 66 155 -11 238 q 273 52 163 52 q 498 172 397 57 q 639 469 600 286 q 646 516 642 484 q 657 593 650 549 q 393 454 498 454 m 885 1242 q 758 810 798 1061 q 823 963 802 892 q 885 1242 875 1141 z "},"":{"ha":1797,"x_min":41,"x_max":1775,"o":"m 705 -385 q 688 -368 688 -385 q 753 -25 688 -352 q 621 -31 669 -31 q 423 7 526 -31 q 58 372 131 116 q 41 500 41 430 q 106 797 41 644 q 283 1077 171 949 q 534 1278 396 1204 q 812 1352 673 1352 q 977 1291 871 1352 q 1036 1253 1009 1274 q 1092 1522 1079 1438 q 1089 1540 1089 1527 q 1104 1566 1089 1553 q 1134 1578 1119 1578 q 1160 1555 1160 1578 q 1154 1528 1160 1547 q 1109 1253 1154 1432 q 1461 1353 1295 1353 q 1746 1124 1674 1353 q 1775 916 1775 1034 q 1646 483 1775 684 q 1299 151 1518 282 q 817 -17 1080 20 l 751 -347 q 731 -374 746 -364 q 705 -385 717 -385 m 1014 1171 q 837 1269 937 1234 q 791 1279 808 1279 q 403 1111 578 1279 q 169 751 248 963 q 121 511 121 621 q 260 174 121 315 q 653 33 400 33 q 764 39 720 33 q 884 637 820 337 l 1014 1171 m 1097 1187 q 1112 1145 1112 1166 q 1086 1107 1112 1124 q 1071 1101 1078 1103 q 969 699 1005 871 q 897 367 934 528 q 829 46 861 205 q 1273 197 1071 79 q 1595 498 1476 315 q 1714 903 1714 682 q 1638 1179 1714 1072 q 1411 1287 1563 1287 q 1097 1187 1259 1287 z "},"":{"ha":872,"x_min":-78,"x_max":958,"o":"m 268 1275 q 249 1299 249 1275 q 267 1340 249 1322 q 294 1358 285 1358 l 307 1358 q 315 1356 309 1358 q 337 1308 321 1354 q 374 1186 353 1261 q 421 1011 395 1110 q 476 803 447 912 q 849 1284 696 1114 q 910 1340 896 1336 q 934 1344 924 1344 q 951 1338 943 1344 q 958 1322 958 1332 q 940 1289 958 1312 q 830 1158 922 1265 q 500 715 738 1051 q 734 9 646 184 q 721 -24 734 -10 q 691 -39 707 -39 q 669 -29 675 -39 q 668 -31 668 -29 q 653 34 660 2 q 636 97 646 66 q 449 642 551 286 q 232 325 342 486 q -3 0 121 165 q -34 -18 -14 -18 q -78 16 -78 -18 l -77 22 q 302 551 66 204 q 425 729 363 640 q 352 992 387 862 q 275 1249 316 1122 l 269 1275 l 268 1275 z "},"":{"ha":860,"x_min":-17,"x_max":920,"o":"m 521 -102 q 485 22 485 -102 q 553 416 485 145 q 436 164 477 235 q 365 56 395 94 q 239 -31 298 -31 q 176 -5 204 -31 q 100 247 100 67 q 126 601 100 426 q 181 921 152 775 q 214 1093 210 1067 q 296 1354 253 1318 q 326 1365 311 1365 q 345 1350 341 1365 l 347 1341 q 345 1332 347 1338 l 338 1318 q 325 1292 327 1298 l 273 1063 q 168 258 168 595 q 241 36 168 36 q 415 225 308 36 q 593 659 522 414 q 680 971 663 904 q 763 1283 750 1263 q 827 1315 783 1315 q 840 1292 840 1315 q 826 1221 840 1268 q 794 1113 812 1174 q 760 987 777 1052 q 725 857 742 923 q 645 553 707 791 q 568 229 583 316 q 553 66 553 141 l 553 18 q 557 -8 553 8 q 687 69 617 69 q 824 -9 756 69 q 920 -294 920 -119 q 891 -469 920 -382 q 817 -618 863 -555 q 603 -788 732 -735 q 366 -842 474 -842 q 182 -820 257 -842 q 71 -775 108 -798 q -17 -632 -17 -722 q 110 -481 -17 -543 q 416 -382 191 -441 q 444 -399 444 -382 q 412 -441 444 -424 q 343 -465 382 -454 q 237 -496 305 -476 q 120 -545 168 -517 q 54 -637 54 -585 q 110 -723 54 -690 q 357 -774 195 -774 q 700 -652 559 -774 q 831 -446 794 -571 q 850 -330 850 -382 q 761 -47 850 -144 q 666 0 718 0 q 586 -51 614 0 q 553 -92 568 -83 q 521 -102 538 -102 z "},"":{"ha":635,"x_min":61,"x_max":704,"o":"m 208 380 q 61 574 61 380 q 171 1145 61 845 q 240 1325 203 1234 q 277 1348 261 1348 q 297 1340 294 1348 q 300 1321 300 1333 l 298 1314 q 182 984 210 1091 q 126 583 126 774 q 168 450 126 479 q 212 439 184 439 q 277 462 240 439 q 351 528 315 486 q 507 859 452 644 q 528 945 519 904 q 611 1240 578 1165 q 650 1324 644 1314 q 663 1340 656 1333 q 687 1348 671 1348 q 704 1333 704 1348 q 661 1181 704 1319 q 419 125 585 935 l 403 41 q 350 -46 390 -16 q 324 -56 337 -56 q 297 -45 311 -56 q 282 -20 282 -34 q 297 6 282 -6 q 328 18 312 18 q 357 143 338 62 q 472 653 443 505 q 345 450 421 520 q 208 380 269 380 z "},"":{"ha":1154,"x_min":86,"x_max":1207,"o":"m 907 -35 q 889 -14 889 -35 l 889 -9 q 893 11 889 -7 q 925 197 897 30 q 958 436 952 364 q 802 71 879 174 q 675 -14 739 -14 q 574 66 611 -14 q 538 258 538 146 q 551 473 538 369 q 570 611 565 576 q 441 234 513 390 q 296 18 370 78 q 221 -14 256 -14 q 132 39 160 -14 q 95 160 104 91 q 86 372 86 230 q 215 1307 86 645 q 236 1330 222 1320 q 260 1340 250 1340 q 281 1317 281 1340 q 154 301 154 662 q 214 54 154 54 q 468 447 311 54 q 665 1071 591 753 l 718 1301 q 739 1325 724 1315 q 765 1335 753 1335 q 781 1310 781 1335 q 778 1289 781 1301 l 757 1202 q 657 760 683 895 q 604 313 604 482 q 646 79 604 144 q 691 54 663 54 q 747 82 719 54 q 802 157 775 109 q 853 271 828 205 q 901 414 878 337 q 946 574 924 490 q 989 744 968 659 q 1030 911 1010 829 q 1081 1115 1050 994 q 1130 1279 1112 1236 q 1159 1329 1148 1322 q 1188 1335 1170 1335 q 1207 1311 1207 1335 q 1006 387 1099 956 q 982 197 996 327 q 956 4 968 67 q 935 -24 949 -13 q 907 -35 920 -35 z "},"":{"ha":1332,"x_min":56,"x_max":1430,"o":"m 796 -50 q 624 306 624 -50 q 657 688 624 475 q 397 165 545 401 q 380 136 391 155 q 174 -53 271 -53 q 87 24 118 -53 q 56 212 56 100 q 97 536 56 323 q 118 630 105 580 q 155 772 132 680 q 213 1004 179 864 q 286 1283 246 1145 q 308 1307 294 1297 q 332 1317 322 1317 q 351 1293 351 1317 q 303 1106 328 1200 q 254 919 278 1013 q 123 184 123 412 q 195 16 123 16 q 324 160 229 16 q 386 252 370 231 q 662 878 591 616 q 718 1093 688 973 q 768 1280 747 1213 q 790 1304 776 1294 q 813 1314 804 1314 q 835 1293 832 1314 l 835 1291 q 813 1175 835 1279 q 763 918 792 1070 q 690 309 690 541 q 753 15 690 77 q 786 1 766 1 q 827 13 806 1 q 868 41 848 24 q 907 82 888 59 q 943 127 926 104 q 975 172 960 151 q 1003 208 990 193 q 1168 526 1085 307 q 1241 803 1207 691 q 1307 1023 1275 915 q 1364 1246 1339 1131 q 1401 1278 1373 1263 q 1407 1279 1404 1279 l 1411 1279 q 1422 1275 1419 1279 q 1428 1268 1425 1271 l 1429 1261 l 1430 1255 q 1316 778 1363 935 q 1234 532 1268 621 q 1175 276 1202 403 q 1120 20 1148 149 q 1176 24 1140 24 q 1260 -1 1213 24 q 1343 -66 1307 -26 q 1422 -257 1422 -153 q 1345 -450 1422 -362 q 1060 -605 1243 -568 q 966 -616 1006 -616 q 571 -556 733 -616 q 425 -408 427 -500 q 424 -368 425 -387 q 438 -335 422 -350 q 467 -321 453 -321 q 485 -330 480 -321 q 490 -353 489 -340 q 492 -380 492 -366 q 498 -404 493 -395 q 806 -543 554 -511 q 966 -551 879 -551 q 1142 -521 1053 -551 q 1294 -429 1232 -490 q 1356 -286 1356 -368 q 1300 -137 1356 -204 q 1171 -40 1244 -71 q 1145 -36 1160 -36 q 1071 -52 1131 -36 q 1046 -31 1046 -49 q 1109 272 1055 23 q 955 57 1048 163 q 796 -50 863 -50 z "},"":{"ha":686,"x_min":74,"x_max":742,"o":"m 96 869 l 103 1038 q 103 1046 103 1042 q 74 1200 103 1139 q 100 1248 74 1235 q 121 1253 109 1253 l 131 1251 q 346 1171 206 1201 l 368 1165 q 615 1356 475 1356 q 705 1323 669 1356 q 742 1248 742 1291 q 473 1086 742 1086 q 385 1090 432 1086 q 231 503 253 752 q 393 586 306 566 q 432 591 416 591 q 605 525 550 591 q 647 390 647 473 q 601 213 647 307 q 473 55 555 120 q 294 -9 391 -9 q 180 69 215 -9 q 144 267 144 147 q 171 543 144 387 q 334 1099 227 873 q 161 1150 243 1114 q 174 1016 174 1081 q 164 889 174 951 q 143 861 157 872 q 115 850 128 850 q 96 869 96 850 m 435 525 q 403 525 435 525 q 310 489 371 525 q 218 401 250 452 q 208 259 208 321 q 318 58 208 58 q 499 158 420 58 q 578 358 578 258 q 538 476 578 428 q 435 525 499 525 m 676 1219 q 628 1284 676 1267 q 580 1291 610 1291 q 505 1252 549 1291 q 421 1156 460 1213 q 491 1144 456 1144 q 562 1154 526 1144 q 676 1219 676 1183 z "},"":{"ha":1131,"x_min":26,"x_max":1162,"o":"m 277 1292 l 275 1297 q 302 1345 275 1331 q 319 1350 310 1350 q 345 1320 345 1350 q 338 1261 345 1290 q 324 1204 332 1232 q 308 1151 316 1176 q 275 1047 299 1126 q 208 787 251 967 q 146 512 164 608 q 111 337 127 416 q 94 177 94 259 q 128 65 94 96 q 217 35 161 35 q 399 101 317 35 q 531 269 481 168 q 581 447 581 370 q 510 668 581 592 q 298 741 298 684 q 336 782 298 768 q 415 796 373 796 q 558 732 497 796 q 636 728 595 728 q 950 851 836 728 q 979 963 964 908 q 1003 1053 994 1018 q 1022 1128 1012 1088 q 1044 1199 1032 1168 q 1093 1304 1056 1229 q 1112 1328 1099 1318 q 1140 1337 1125 1337 q 1160 1318 1155 1337 l 1162 1320 l 1160 1314 q 1161 1307 1161 1310 l 1161 1272 q 1152 1179 1161 1240 q 1003 842 1121 981 q 943 528 963 667 q 912 322 922 388 q 901 170 901 257 q 911 51 901 83 q 949 18 920 18 q 1002 34 979 18 q 1063 96 1026 50 q 1125 143 1100 143 q 1150 126 1150 143 q 1132 92 1150 109 q 1094 45 1112 70 q 959 -46 1025 -46 q 849 26 877 -46 q 831 157 831 73 q 840 312 831 240 q 861 451 848 383 q 889 582 874 519 q 914 694 903 644 l 930 772 q 794 691 863 718 q 635 664 726 664 l 604 664 q 650 472 650 576 q 585 250 650 369 q 416 51 519 132 q 205 -29 312 -29 q 35 74 63 -29 q 26 153 26 105 q 51 345 26 201 q 123 698 76 489 q 200 1006 170 907 q 234 1118 231 1105 q 257 1195 238 1131 q 277 1292 277 1259 m 1079 1117 q 1043 999 1051 1030 q 1079 1117 1065 1048 z "},"":{"ha":615,"x_min":26,"x_max":546,"o":"m 83 510 q 64 534 64 513 q 72 558 64 546 l 103 595 l 139 750 q 191 989 154 818 q 278 1312 228 1160 q 296 1337 283 1327 q 319 1346 308 1346 q 340 1312 340 1346 q 201 750 278 1115 l 183 669 q 277 692 220 692 q 385 664 334 692 q 472 591 437 636 q 546 371 546 497 q 491 203 546 294 q 272 8 404 60 q 191 -9 228 -9 q 75 47 123 -9 q 26 187 26 104 q 83 510 33 275 m 164 582 q 151 520 158 551 q 134 439 144 490 q 119 369 123 389 q 103 304 116 348 q 90 197 90 260 q 122 94 90 134 q 191 54 155 54 q 328 107 260 54 q 437 235 395 160 q 479 364 479 310 q 464 463 479 418 q 420 544 448 508 q 353 604 392 581 q 270 627 313 627 q 204 614 227 627 q 164 582 181 602 z "},"":{"ha":802,"x_min":-14,"x_max":779,"o":"m 56 654 q 32 682 32 654 q 49 710 32 695 q 100 748 78 731 q 154 784 121 766 q 232 803 186 803 q 322 787 278 803 q 439 720 366 770 q 625 637 560 637 q 679 654 651 637 q 714 982 714 827 q 641 1278 714 1202 q 573 1305 614 1305 q 486 1282 532 1305 q 375 1217 440 1259 q 359 1214 367 1214 q 336 1239 336 1214 q 375 1287 336 1253 q 471 1349 414 1322 q 573 1375 528 1375 q 760 1173 713 1375 q 779 1011 779 1088 q 753 684 779 831 q 771 660 771 681 q 739 615 771 640 q 547 153 683 372 q 426 35 503 82 q 292 -12 349 -12 q 104 43 186 -12 q -14 192 23 99 q -2 222 -14 208 q 23 236 9 236 q 47 221 37 236 q 141 100 75 149 q 282 50 206 50 q 530 244 414 50 q 663 581 616 389 q 615 576 643 576 q 553 589 587 576 q 427 656 498 608 q 250 737 311 737 q 163 722 189 737 q 105 680 138 706 q 56 654 73 654 z "},"":{"ha":1218,"x_min":-9,"x_max":1196,"o":"m 1140 1251 q 1196 1017 1196 1181 q 1177 834 1196 945 q 806 15 1065 151 q 680 -14 751 -14 q 550 26 608 -14 q 456 132 493 65 q 380 465 380 263 q 406 694 380 580 q 305 676 378 691 q 176 660 232 661 q 58 39 106 319 q 60 33 60 36 l 56 24 l 56 20 l 54 20 q 33 -2 47 6 q 8 -9 20 -9 q -9 11 -9 -9 q 59 389 9 136 q 113 660 109 642 q 122 700 117 678 q 150 832 127 722 q 191 1036 173 942 q 224 1190 210 1129 q 272 1320 239 1251 q 295 1343 281 1334 q 321 1353 309 1353 q 336 1335 336 1353 l 336 1328 q 329 1309 336 1324 q 313 1273 321 1295 q 298 1229 304 1251 q 288 1183 292 1207 q 253 1026 283 1160 q 191 725 224 892 q 241 734 214 731 q 292 740 269 736 q 350 748 315 743 q 422 758 386 754 q 641 1179 490 1004 q 981 1353 791 1353 q 1143 1283 1080 1353 q 1146 1269 1146 1276 q 1140 1251 1146 1261 m 1042 1267 q 949 1289 1002 1289 q 748 1200 848 1289 q 572 972 648 1112 q 447 503 447 744 q 505 194 447 317 q 690 56 571 56 q 1006 410 880 56 q 1116 886 1080 616 q 1128 1017 1128 970 q 1121 1097 1128 1064 q 1103 1151 1114 1130 q 1079 1185 1092 1173 q 1056 1206 1067 1198 q 1038 1223 1045 1215 q 1031 1243 1031 1231 q 1042 1267 1031 1256 z "},"":{"ha":704,"x_min":-1426,"x_max":861,"o":"m 411 -21 q 392 3 392 -18 l 404 70 q 418 127 412 100 l 529 614 q 452 564 486 583 q 274 414 345 480 q 127 259 203 347 q -19 81 52 172 q -165 -94 -91 -9 q -494 -385 -340 -291 q -921 -507 -693 -507 q -1205 -430 -1067 -507 q -1426 -232 -1344 -353 l -1426 -227 q -1413 -193 -1426 -208 q -1385 -179 -1400 -179 q -1364 -184 -1371 -179 q -1168 -371 -1289 -299 q -924 -443 -1047 -443 q -701 -408 -801 -443 q -513 -316 -602 -374 q -345 -181 -425 -258 q -193 -22 -266 -105 q -52 146 -120 61 q 103 326 17 231 q 325 530 189 420 q 169 617 245 537 q 93 804 93 698 q 156 1075 93 939 q 454 1370 259 1297 q 606 1396 522 1396 q 859 1244 783 1396 q 861 1226 861 1238 q 847 1202 861 1215 q 820 1189 832 1189 q 800 1192 807 1189 q 751 1263 776 1236 l 671 933 q 630 749 647 842 q 593 578 612 656 q 562 443 574 499 q 536 332 549 387 q 510 217 524 276 q 483 98 497 158 q 452 8 469 38 q 411 -21 435 -21 m 700 1303 q 586 1331 648 1331 q 375 1254 473 1331 q 220 1063 278 1177 q 161 845 161 949 q 214 669 161 742 q 335 596 266 596 q 441 623 386 596 q 460 632 448 627 q 498 655 473 637 q 539 673 524 673 l 543 672 q 688 1270 613 975 q 686 1275 686 1273 l 686 1278 q 700 1303 688 1293 z "},"":{"ha":624,"x_min":22,"x_max":558,"o":"m 102 0 q 22 100 22 0 q 97 344 22 199 q 271 594 171 489 q 435 700 372 700 q 507 644 498 700 q 511 608 510 627 q 526 612 517 612 q 558 582 558 612 l 558 576 q 541 515 558 574 q 503 319 524 456 q 481 83 481 181 q 495 74 487 79 q 515 59 503 69 q 528 34 528 48 q 519 8 528 20 q 494 -3 510 -3 q 434 31 460 -3 q 407 104 407 65 q 453 396 407 189 q 304 163 395 275 q 177 26 212 52 q 102 0 142 0 m 92 97 q 113 72 92 72 q 138 82 127 72 q 389 416 278 203 q 456 557 452 538 q 460 588 460 575 q 453 612 460 601 q 434 624 446 624 q 398 611 422 624 q 270 490 346 583 q 142 288 193 397 q 92 97 92 178 z "},"":{"ha":530,"x_min":54,"x_max":905,"o":"m 182 -17 q 54 140 54 -17 q 119 500 54 325 q 240 680 166 626 q 312 708 278 708 q 403 682 378 708 q 359 781 386 733 q 305 878 332 829 q 241 1105 241 998 q 303 1281 241 1213 q 457 1349 365 1349 q 559 1334 509 1349 q 640 1312 609 1319 q 713 1305 670 1305 q 782 1310 756 1305 q 824 1320 807 1314 q 852 1330 840 1326 q 880 1335 864 1335 q 905 1314 905 1335 q 852 1262 905 1282 q 741 1242 799 1242 q 653 1249 684 1242 q 564 1271 623 1255 q 437 1286 505 1286 q 334 1221 368 1286 q 307 1105 307 1171 q 325 987 307 1039 q 397 842 342 935 q 486 586 486 694 l 479 524 l 479 521 q 397 176 479 351 q 266 9 342 59 q 182 -17 227 -17 m 385 347 q 392 374 385 347 q 407 448 399 400 q 415 543 415 495 q 390 613 415 590 q 329 636 366 636 q 268 615 293 636 q 209 539 243 593 q 145 379 176 486 q 115 199 115 273 q 124 100 115 124 q 180 52 142 52 q 249 78 219 52 q 305 146 279 104 q 351 241 330 189 q 385 347 371 294 z "},"":{"ha":458,"x_min":40,"x_max":498,"o":"m 403 1346 q 498 1229 498 1346 q 370 895 498 1083 q 269 750 334 842 q 168 578 204 657 q 149 557 162 564 l 144 530 q 387 703 277 703 q 454 642 434 703 q 467 553 467 602 q 425 323 467 459 q 320 96 384 188 q 161 -14 244 -14 q 87 49 118 -14 q 56 196 56 112 q 61 332 56 279 q 40 355 40 334 q 43 371 40 363 l 71 419 q 193 987 99 628 q 347 1316 256 1223 q 403 1346 376 1346 m 118 250 q 175 54 118 54 q 280 143 228 54 q 366 355 332 232 q 400 536 400 478 q 393 610 400 594 q 358 625 387 625 q 236 551 304 625 q 126 397 191 501 q 118 250 118 318 m 333 1190 q 178 704 250 1025 q 228 783 200 742 q 304 899 255 825 q 431 1203 431 1096 q 427 1254 431 1236 q 406 1272 422 1272 q 333 1190 374 1272 z "},"":{"ha":432,"x_min":40,"x_max":400,"o":"m 272 729 q 354 631 354 729 q 229 386 354 553 q 103 151 103 218 q 125 78 103 98 q 174 58 147 58 q 218 68 200 58 q 302 135 252 85 q 376 184 352 184 q 400 161 400 184 q 389 134 400 146 q 309 51 337 74 q 173 -7 239 -7 q 73 34 106 -7 q 40 123 40 74 q 57 216 40 172 q 100 303 74 260 q 157 388 126 347 q 216 472 189 430 q 290 640 281 569 q 251 665 279 665 q 184 636 222 665 q 150 595 151 608 q 137 569 149 581 q 115 557 125 557 q 87 583 87 557 q 150 682 87 635 q 272 729 212 729 z "},"":{"ha":528,"x_min":-64,"x_max":518,"o":"m 494 186 q 518 163 518 186 q 507 135 518 144 q 361 26 431 76 q 338 -104 349 -39 q 310 -250 326 -170 q 271 -399 294 -329 q 203 -519 248 -469 q 93 -570 159 -570 q -19 -525 26 -570 q -64 -410 -64 -479 q -32 -283 -64 -341 q 53 -169 1 -224 q 169 -60 104 -114 q 300 49 234 -6 q 317 122 307 79 q 340 222 327 165 q 203 5 286 56 q 153 -11 176 -11 q 73 28 104 -11 q 41 131 41 66 q 86 382 41 250 q 210 611 131 515 q 382 707 288 707 q 467 685 429 707 q 485 689 475 689 q 507 666 507 689 q 499 622 507 644 q 370 94 460 519 q 420 135 395 112 q 463 172 446 158 q 494 186 480 186 m 148 372 q 126 312 148 372 q 104 154 104 253 q 156 56 104 56 q 256 138 199 56 q 346 323 313 221 q 400 506 378 426 q 435 633 421 585 q 381 652 413 652 q 255 571 319 652 q 148 372 191 490 m 289 -26 q 109 -195 163 -131 q 4 -395 4 -319 q 37 -491 4 -471 q 80 -500 51 -500 q 132 -488 109 -500 q 177 -442 155 -475 q 219 -349 198 -408 q 253 -227 239 -290 q 270 -140 266 -164 q 278 -97 275 -117 q 284 -60 281 -77 q 289 -26 286 -43 z "},"":{"ha":450,"x_min":46,"x_max":432,"o":"m 351 114 q 375 89 375 114 q 304 23 375 60 q 185 -14 233 -14 q 114 2 138 -14 q 75 45 90 18 q 46 176 46 100 q 87 432 46 312 q 195 631 127 552 q 342 710 263 710 q 408 675 384 710 q 432 593 432 640 q 386 442 432 504 q 271 341 339 380 q 115 267 203 302 l 113 167 q 183 50 113 50 q 263 72 221 50 q 323 104 304 94 q 351 114 341 114 m 368 590 q 323 644 368 644 q 227 571 282 644 q 136 378 172 498 q 126 334 127 349 q 182 362 153 349 q 237 391 210 376 q 334 472 300 425 q 368 590 368 518 z "},"":{"ha":863,"x_min":-65,"x_max":890,"o":"m 494 364 q 467 317 475 334 l 467 315 q 456 292 465 300 q 407 25 427 151 q 391 -3 404 8 q 368 -14 379 -14 q 343 16 346 -14 l 395 300 q 387 315 390 307 q 380 332 384 323 q 322 243 350 288 q 264 155 294 198 q 119 3 195 56 q 62 -18 91 -18 q -28 31 9 -18 q -65 135 -65 79 q -49 158 -61 149 q -26 168 -37 168 q -10 158 -16 168 q 6 109 -4 149 q 64 50 22 50 q 221 184 134 50 q 296 303 246 222 q 358 397 346 385 q 332 485 345 440 q 221 650 283 650 q 140 604 174 650 q 122 597 136 597 q 97 621 97 597 q 142 683 97 656 q 224 710 186 710 q 330 637 300 710 q 372 514 345 600 q 411 395 399 427 q 453 604 442 559 q 468 677 465 648 q 484 701 472 691 q 509 711 496 711 q 532 688 525 711 q 524 633 532 659 q 504 544 515 608 q 485 441 493 480 q 692 662 595 589 q 782 704 749 704 q 845 669 816 704 q 873 609 873 634 q 862 573 873 585 q 837 561 851 561 q 814 573 823 561 q 799 600 806 585 q 787 627 793 614 q 772 639 781 639 q 739 625 764 639 q 646 542 713 611 q 549 437 578 472 q 589 193 551 309 q 665 72 616 109 q 718 53 689 53 q 838 135 774 53 q 865 146 851 146 q 890 123 890 146 q 832 37 890 87 q 727 -12 774 -12 q 593 62 646 -12 q 494 364 522 161 z "},"":{"ha":532,"x_min":-54,"x_max":538,"o":"m 94 555 q 68 585 68 555 q 91 620 68 598 q 149 662 113 642 q 313 707 233 707 q 422 675 393 707 q 452 582 452 644 q 322 326 452 444 q 392 163 392 295 q 389 106 392 145 l 494 180 q 514 186 503 186 q 538 161 538 186 q 526 134 538 147 q 489 109 521 130 q 382 33 458 88 q 317 -291 358 -148 q 252 -474 276 -433 q 209 -533 229 -515 q 116 -570 168 -570 q -18 -511 25 -570 q -54 -390 -54 -463 q 62 -155 -54 -275 q 322 58 144 -71 q 328 161 328 116 q 313 239 328 207 q 257 273 299 272 l 237 260 q 89 191 139 191 q 62 200 69 191 q 54 219 54 209 q 71 248 54 230 q 131 294 87 266 q 239 334 174 321 q 339 433 315 400 q 390 579 390 504 q 374 627 390 612 q 314 643 357 643 q 238 634 271 643 q 156 591 205 626 q 94 555 107 555 m 271 -210 q 313 -17 297 -115 q 59 -248 144 -144 q 5 -378 5 -314 q 32 -476 5 -441 q 101 -510 59 -510 q 169 -479 143 -510 q 271 -210 214 -425 z "},"":{"ha":625,"x_min":56,"x_max":590,"o":"m 567 697 q 590 673 590 697 q 568 575 590 649 q 539 472 545 500 q 524 398 532 443 q 507 308 515 354 q 490 210 499 262 q 468 93 481 157 q 476 57 468 68 q 489 42 485 47 q 493 23 493 37 q 477 -2 493 9 q 444 -14 461 -14 q 411 12 427 -14 q 395 56 395 38 l 395 80 q 419 207 395 115 q 454 339 443 298 q 472 416 465 380 q 435 337 455 382 q 377 209 416 292 q 157 -11 274 -11 q 62 66 87 -11 q 56 127 56 88 q 64 220 56 166 q 84 327 72 274 q 112 429 97 379 q 149 553 127 479 q 172 667 170 627 q 188 690 176 680 q 213 700 200 700 q 236 664 227 700 q 215 547 236 617 q 179 431 194 477 q 122 121 122 255 q 155 62 122 79 q 184 57 166 57 q 277 135 223 57 q 383 323 332 213 q 462 513 434 433 q 503 623 490 592 q 567 697 538 697 z "},"":{"ha":673,"x_min":56,"x_max":707,"o":"m 682 1059 q 707 1034 707 1059 q 701 1015 707 1025 q 581 883 634 924 q 399 806 481 806 q 272 861 317 806 q 228 1003 228 916 q 240 1033 228 1021 q 267 1046 252 1046 q 287 1032 281 1046 q 302 957 293 1018 q 388 868 315 868 q 551 930 476 868 q 654 1047 597 969 q 682 1059 668 1059 m 567 697 q 590 673 590 697 q 568 575 590 649 q 539 472 545 500 q 524 398 532 443 q 507 308 515 354 q 490 210 499 262 q 468 93 481 157 q 476 57 468 68 q 489 42 485 47 q 493 23 493 37 q 477 -2 493 9 q 444 -14 461 -14 q 411 12 427 -14 q 395 56 395 38 l 395 80 q 419 207 395 115 q 454 339 443 298 q 472 416 465 380 q 435 337 455 382 q 377 209 416 292 q 157 -11 274 -11 q 62 66 87 -11 q 56 127 56 88 q 64 220 56 166 q 84 327 72 274 q 112 429 97 379 q 149 553 127 479 q 172 667 170 627 q 188 690 176 680 q 213 700 200 700 q 236 664 227 700 q 215 547 236 617 q 179 431 194 477 q 122 121 122 255 q 155 62 122 79 q 184 57 166 57 q 277 135 223 57 q 383 323 332 213 q 462 513 434 433 q 503 623 490 592 q 567 697 538 697 z "},"":{"ha":636,"x_min":66,"x_max":597,"o":"m 222 704 q 245 681 239 704 q 240 630 245 652 q 225 554 235 608 q 203 430 216 500 q 467 699 356 646 q 516 711 492 711 q 569 676 541 711 q 597 616 597 640 q 586 580 597 591 q 560 568 574 568 q 537 581 546 568 q 523 607 529 593 q 510 633 516 621 q 496 646 505 646 q 457 629 487 646 q 364 544 427 612 q 272 437 301 475 q 327 203 286 301 q 412 69 368 104 q 459 52 435 52 q 498 64 484 52 q 521 103 512 76 q 538 134 530 131 q 554 136 546 136 q 573 127 562 136 q 583 91 583 117 q 560 37 583 64 q 468 -14 515 -14 q 260 206 334 -14 q 220 362 230 296 q 191 310 207 340 l 174 279 q 131 25 146 131 q 116 -3 128 8 q 92 -14 103 -14 q 66 16 69 -14 q 115 296 83 109 q 161 551 146 482 q 182 671 176 620 q 198 694 186 684 q 222 704 210 704 z "},"":{"ha":639,"x_min":-61,"x_max":612,"o":"m -1 127 q 79 43 -1 43 q 202 105 142 43 q 309 262 262 168 q 374 419 356 357 q 411 540 393 481 q 453 648 429 599 q 501 697 476 697 q 526 671 526 697 q 500 571 526 650 q 452 373 473 493 q 431 125 431 254 q 458 49 431 56 q 475 47 465 47 q 494 50 485 47 q 512 57 503 52 q 532 71 521 62 q 558 93 543 80 q 587 106 574 106 q 612 79 612 106 q 560 20 612 53 q 463 -12 507 -12 q 374 180 374 -12 q 382 283 374 225 q 244 69 332 155 q 69 -17 156 -17 q -5 1 18 -17 q -58 89 -41 31 q -61 107 -61 96 q -50 131 -61 118 q -25 143 -39 143 q -1 127 -11 143 z "},"":{"ha":720,"x_min":-7,"x_max":721,"o":"m 276 699 q 309 666 309 699 q 300 627 309 651 q 309 564 300 604 q 328 454 319 523 q 354 326 336 385 q 419 397 390 366 q 597 610 565 557 q 690 708 656 708 q 721 685 715 708 q 642 338 706 535 q 558 28 577 142 q 543 0 555 11 q 519 -11 530 -11 q 494 18 497 -11 q 556 273 509 143 q 635 561 602 402 l 582 496 q 530 431 554 463 q 367 257 441 318 q 338 249 353 249 q 312 263 323 249 q 292 307 301 277 q 275 386 283 338 q 254 503 267 434 l 248 533 q 95 171 129 260 q 61 77 62 82 q 58 64 60 73 q 53 47 56 55 q 58 31 58 42 q 46 8 58 20 q 17 -3 33 -3 q -7 23 -7 -3 q 243 673 -7 136 q 276 699 260 699 z "}}}
